<?xml version="1.0" encoding="utf-8"?>
<!-- Generator: Adobe Illustrator 28.3.0, SVG Export Plug-In . SVG Version: 6.00 Build 0)  -->
<svg version="1.1" id="Layer_1" xmlns="http://www.w3.org/2000/svg" xmlns:xlink="http://www.w3.org/1999/xlink" x="0px" y="0px"
	 viewBox="0 0 256 256" style="enable-background:new 0 0 256 256;" xml:space="preserve">
<style type="text/css">
	.st0{fill:none;stroke:#000000;stroke-width:0.6378;}
</style>
<path d="M47.8,122.1V34l1.9,1.9H25.2v-4h26.9v90.2H47.8z"/>
<path d="M80.1,175.8v-3.1l38.7-38.9c3.8-3.7,6.6-7,8.5-9.8c1.9-2.8,3.2-5.5,3.9-7.9c0.7-2.5,1-4.9,1-7.3c0-6-2.1-10.8-6.2-14.3
	c-4.1-3.6-10.1-5.4-17.9-5.4c-6,0-11.3,0.9-15.7,2.7c-4.4,1.7-8.2,4.4-11.3,8.1l-3-2.8c3.4-3.9,7.6-6.8,12.6-8.9
	c5.1-2.1,10.9-3.1,17.5-3.1c5.8,0,10.7,0.9,15,2.8c4.3,1.9,7.6,4.6,9.8,8.1c2.3,3.4,3.5,7.6,3.5,12.5c0,2.8-0.4,5.6-1.2,8.4
	c-0.8,2.7-2.2,5.7-4.4,8.9c-2.1,3.1-5.1,6.6-9,10.6l-37,37.3l-1.8-1.8h58.1v4H80.1z"/>
<path d="M194.6,230.1c-6.8,0-13-1.2-18.6-3.5c-5.6-2.3-9.8-5.3-12.8-9l2.3-3.1c2.6,3.3,6.4,6,11.6,8.2c5.2,2.2,10.9,3.4,17.3,3.4
	c8.6,0,15.1-1.9,19.6-5.8c4.5-4,6.7-9.2,6.7-15.7c0-6.5-2.3-11.7-6.8-15.6c-4.5-4-11.5-5.9-21-5.9h-5v-3.1l29.4-38.3l0.5,1.7h-51.6
	v-4h55.4v3.1l-29.4,38.3l-1.3-1.5h2.3c10.7,0,18.6,2.4,23.8,7.1c5.2,4.6,7.9,10.7,7.9,18.3c0,5-1.2,9.4-3.5,13.3
	c-2.3,3.8-5.8,6.8-10.3,9C206.7,229,201.2,230.1,194.6,230.1z"/>
<path class="st0" d="M47.8,122.1V34l1.9,1.9H25.2v-4h26.9v90.2H47.8z"/>
<path class="st0" d="M80.1,175.8v-3.1l38.7-38.9c3.8-3.7,6.6-7,8.5-9.8c1.9-2.8,3.2-5.5,3.9-7.9c0.7-2.5,1-4.9,1-7.3
	c0-6-2.1-10.8-6.2-14.3c-4.1-3.6-10.1-5.4-17.9-5.4c-6,0-11.3,0.9-15.7,2.7c-4.4,1.7-8.2,4.4-11.3,8.1l-3-2.8
	c3.4-3.9,7.6-6.8,12.6-8.9c5.1-2.1,10.9-3.1,17.5-3.1c5.8,0,10.7,0.9,15,2.8c4.3,1.9,7.6,4.6,9.8,8.1c2.3,3.4,3.5,7.6,3.5,12.5
	c0,2.8-0.4,5.6-1.2,8.4c-0.8,2.7-2.2,5.7-4.4,8.9c-2.1,3.1-5.1,6.6-9,10.6l-37,37.3l-1.8-1.8h58.1v4H80.1z"/>
<path class="st0" d="M194.6,230.1c-6.8,0-13-1.2-18.6-3.5c-5.6-2.3-9.8-5.3-12.8-9l2.3-3.1c2.6,3.3,6.4,6,11.6,8.2
	c5.2,2.2,10.9,3.4,17.3,3.4c8.6,0,15.1-1.9,19.6-5.8c4.5-4,6.7-9.2,6.7-15.7c0-6.5-2.3-11.7-6.8-15.6c-4.5-4-11.5-5.9-21-5.9h-5
	v-3.1l29.4-38.3l0.5,1.7h-51.6v-4h55.4v3.1l-29.4,38.3l-1.3-1.5h2.3c10.7,0,18.6,2.4,23.8,7.1c5.2,4.6,7.9,10.7,7.9,18.3
	c0,5-1.2,9.4-3.5,13.3c-2.3,3.8-5.8,6.8-10.3,9C206.7,229,201.2,230.1,194.6,230.1z"/>
</svg>
