<?xml version="1.0" encoding="UTF-8"?>
<svg id="Layer_1" data-name="Layer 1" xmlns="http://www.w3.org/2000/svg" version="1.1" viewBox="0 0 55.7 53.8">
  <defs>
    <style>
      .cls-1 {
        fill: #1d1d1b;
        stroke-width: 0px;
      }
    </style>
  </defs>
  <path class="cls-1" d="M51.1,13.4c-2.5-3.7-10.3-2.8-16.9-.9-11.2,3.5-22.5,11.2-22.5,19.2-3.1,2.8-5.8,5.6-8.1,8.6l.9.7c2.2-2.8,4.7-5.5,7.7-8,3,2.5,7.4,3.8,11.8,3.8s5-.4,7.2-1.5l1.9-.9h-2.2c-1.5-.3-3.7-.7-4.9-1.6,2.5.3,5.2.3,7.8.1h.1c6.1-2.7,16-10,17.6-15.7.3-1.5.1-2.8-.6-4ZM50.5,17.1c-1.5,5.2-11.1,12.4-16.9,14.9-3.4.3-6.7.1-9.9-.4l-1.9-.3,1.3,1.3c1.5,1.5,3.4,2.2,5.5,2.7-5.3,1.5-12.1.3-16-3-.1-7.7,11.2-15.2,21.9-18.6,7.7-2.4,13.8-2.4,15.5.3h.1c0,.1.1.1.1.1.3.9.4,1.8.1,3Z"/>
</svg>