<?xml version="1.0" encoding="UTF-8"?>
<svg id="Layer_1" data-name="Layer 1" xmlns="http://www.w3.org/2000/svg" viewBox="0 0 205.71 159.34">
  <defs>
    <style>
      .cls-1 {
        fill: #000;
        stroke-width: 0px;
      }
    </style>
  </defs>
  <path class="cls-1" d="M167.09,129.49h-60.63v-4.06h60.63c4.87,0,8.92-4.06,8.92-8.94s-4.06-8.94-8.92-8.94h-43.4l-.61-.41c-.2-.2-18.86-14.82-34.88-16.04-17.24-1.22-30.82,6.3-31.03,6.3l-.81.41-.81-.2L7.91,81.57l1.22-3.86,46.84,15.84c3.24-1.62,16.22-7.51,32.44-6.3,15.82,1.22,33.26,13.81,36.7,16.45h41.98c7.1,0,12.98,5.89,12.98,13s-5.88,12.79-12.98,12.79Z"/>
  <path class="cls-1" d="M124.31,159.34c-2.43,0-4.87-.41-7.3-1.22L0,120.96l1.22-3.86,117,37.16c6.08,2.03,12.78.81,18.05-3.05l62.46-48.94c1.22-1.02,2.03-2.44,2.23-4.06.2-1.62-.41-3.25-1.42-4.47-2.03-2.44-5.68-2.84-8.11-1.02l-20.89,14.82-2.43-3.25,21.09-15.03c4.26-3.05,10.34-2.23,13.59,1.83,1.83,2.03,2.64,4.87,2.23,7.51-.2,2.84-1.62,5.28-3.85,6.9l-62.46,48.94c-4.26,3.25-9.33,4.87-14.4,4.87Z"/>
  <path class="cls-1" d="M149.85,107.36l-2.43-3.25,42.58-31.07c4.26-3.25,10.34-2.23,13.59,1.83,3.24,4.06,2.64,9.95-1.01,13.4l-3.45,3.05-2.64-3.05,3.45-3.05c2.23-2.03,2.43-5.48.61-7.92-2.03-2.44-5.48-3.05-8.11-1.22l-42.58,31.27Z"/>
  <path class="cls-1" d="M129.78,107.35l-2.23-3.25,37.92-27.01c2.64-1.83,5.88-2.64,9.13-2.03,3.24.61,5.88,2.44,7.71,5.08l1.62,2.23-10.75,7.92-2.43-3.05,7.5-5.48c-1.22-1.22-2.64-2.23-4.46-2.44-2.03-.41-4.26,0-5.88,1.22l-38.12,26.81Z"/>
  <path class="cls-1" d="M121.26,61.05c-6.08,0-11.96-2.03-16.83-5.69-12.37-9.34-14.8-27.21-5.48-39.6C113.15-3.12,143.16.13,144.58.34l1.22.2.2,1.02c.41,1.22,12.17,29.04-2.23,48.33-4.46,6.09-11.15,9.95-18.45,10.97-1.62,0-2.84.2-4.06.2ZM138.09,3.99c-9.13,0-26.77,1.62-36.1,14.01-7.91,10.56-5.88,25.79,4.66,33.91,5.07,3.86,11.56,5.48,17.84,4.67,6.29-.81,11.96-4.26,15.82-9.34l1.62,1.22-1.62-1.22c11.56-15.23,4.26-37.98,2.23-43.05-1.01,0-2.43-.2-4.46-.2Z"/>
  <path class="cls-1" d="M98.75,71l-3.45-2.03c9.73-18.07,21.09-34.52,33.86-48.94l3.04,2.64c-12.78,14.22-23.93,30.46-33.46,48.33Z"/>
</svg>