<?xml version="1.0" encoding="UTF-8"?>
<svg xmlns="http://www.w3.org/2000/svg" xmlns:xlink="http://www.w3.org/1999/xlink" version="1.1" viewBox="0 0 291 168">
  <defs>
    <style>
      .cls-1 {
        fill: #fdeeeb;
        stroke: #000;
      }

      .cls-1, .cls-2, .cls-3 {
        stroke-miterlimit: 10;
      }

      .cls-4 {
        stroke-linecap: round;
      }

      .cls-4, .cls-5, .cls-6, .cls-7, .cls-8, .cls-9, .cls-10, .cls-11, .cls-12, .cls-3, .cls-13, .cls-14 {
        fill: none;
      }

      .cls-4, .cls-2, .cls-12, .cls-3 {
        stroke: #2b00ff;
      }

      .cls-4, .cls-12 {
        stroke-width: .7px;
      }

      .cls-15 {
        clip-path: url(#clippath);
      }

      .cls-5, .cls-16 {
        stroke-width: 0px;
      }

      .cls-17 {
        mask: url(#mask);
      }

      .cls-6 {
        stroke-opacity: .2;
      }

      .cls-6, .cls-7, .cls-8, .cls-9, .cls-10, .cls-11, .cls-13, .cls-14 {
        stroke: #fff;
        stroke-width: 1.3px;
      }

      .cls-8 {
        stroke-opacity: .9;
      }

      .cls-9 {
        stroke-opacity: .5;
      }

      .cls-18 {
        clip-path: url(#clippath-1);
      }

      .cls-10 {
        stroke-opacity: .2;
      }

      .cls-2 {
        fill: #fff;
      }

      .cls-2, .cls-3 {
        stroke-width: .7px;
      }

      .cls-11 {
        stroke-opacity: .6;
      }

      .cls-16 {
        fill: #d9d9d9;
      }

      .cls-13 {
        stroke-opacity: .8;
      }

      .cls-14 {
        stroke-opacity: .4;
      }

      .cls-19 {
        display: none;
      }
    </style>
    <clipPath id="clippath">
      <rect class="cls-5" x="7.6" y="60.1" width="273.8" height="102.5"/>
    </clipPath>
    <mask id="mask" x="59.6" y="-58.3" width="162" height="200.7" maskUnits="userSpaceOnUse">
      <g id="mask0_1144_691" data-name="mask0 1144 691">
        <ellipse class="cls-16" cx="140.6" cy="81.4" rx="81" ry="61"/>
      </g>
    </mask>
    <clipPath id="clippath-1">
      <rect class="cls-5" x="66" y="-58.2" width="107" height="177.3"/>
    </clipPath>
  </defs>
  <g id="Layer_2" data-name="Layer 2" class="cls-19">
    <rect class="cls-1" x="-105.5" y="-184.5" width="500" height="499"/>
  </g>
  <g id="Layer_1" data-name="Layer 1">
    <g class="cls-15">
      <g>
        <path class="cls-10" d="M281.3,114.5c0,32.2-74.9,52.9-155,47-69.1-5.1-118.6-28.7-118.6-53.3s49.4-46,118.6-47.8c80.1-2.2,155.1,21.9,155.1,54.2h0Z"/>
        <path class="cls-6" d="M268.3,114.2c0,29.1-67.7,47.8-140.2,42.5-62.5-4.6-107.2-25.9-107.2-48.2s44.7-41.5,107.2-43.2c72.4-2,140.2,19.8,140.2,49h0Z"/>
        <path class="cls-14" d="M255.3,113.9c0,26-60.5,42.7-125.3,37.9-55.8-4.1-95.8-23.2-95.8-43.1s39.9-37.1,95.8-38.6c64.7-1.7,125.3,17.7,125.3,43.8Z"/>
        <path class="cls-9" d="M242.3,113.6c0,22.9-53.3,37.6-110.4,33.4-49.2-3.6-84.4-20.4-84.4-37.9s35.2-32.7,84.4-34c57-1.5,110.4,15.6,110.4,38.5Z"/>
        <path class="cls-11" d="M229.4,113.2c0,19.8-46.1,32.5-95.5,28.9-42.6-3.1-73-17.7-73-32.8s30.4-28.3,73-29.4c49.3-1.3,95.5,13.5,95.5,33.3Z"/>
        <path class="cls-13" d="M216.4,112.9c0,16.7-38.9,27.5-80.6,24.4-35.9-2.6-61.6-14.9-61.6-27.7s25.7-23.9,61.6-24.8c41.6-1.1,80.6,11.4,80.6,28.1h0Z"/>
        <path class="cls-8" d="M203.4,112.6c0,13.6-31.7,22.4-65.7,19.9-29.3-2.1-50.2-12.1-50.2-22.6s20.9-19.5,50.2-20.3c33.9-.9,65.7,9.3,65.7,22.9Z"/>
        <path class="cls-7" d="M190.4,112.3c0,10.6-24.5,17.3-50.8,15.4-22.6-1.7-38.8-9.4-38.8-17.5s16.2-15,38.8-15.7c26.2-.7,50.8,7.2,50.8,17.7h0Z"/>
        <path class="cls-7" d="M177.4,112c0,7.5-17.3,12.2-35.9,10.9-16-1.2-27.4-6.6-27.4-12.3s11.4-10.6,27.4-11.1c18.5-.5,35.9,5.1,35.9,12.5h0Z"/>
      </g>
    </g>
    <g class="cls-17">
      <g class="cls-18">
        <g>
          <path class="cls-2" d="M172.2,104.1c0-.2-.1-.5-.3-.7l-20.6-32.5s-3.2.1-12.5,3.7c-9.3,3.6-22.9,10.8-22.9,10.8l6.6,21.1v2c0,2.2,0,3.5.8,4.3,1.4,1.4,4.2,3.4,5.3,3.9,1.7.8,6.7,2.1,14.4,2.1s10.1.4,15.7-.6c5.6-1,13-4.1,13.6-6.7.6-2.2,0-6.2-.2-7.4ZM143.8,105.1c-.3.7-.8,1.5-1.5,2.2h0c-1,0-5.1.2-7.1-.5-1.6-.6-2.3-.9-2.7-1,2.3-1.6,6.4-2.9,11.5-3.7.3,1.1.2,2-.2,2.9ZM159.9,104.6c-.2-.3-.8-1.2-1.5-2.4,1.1.2,2.1.4,2.9.7,0,.3,0,.5,0,.6,0,.1,0,.5.2,1-.4.3-1.1.4-1.3.4,0,0-.2-.2-.3-.3Z"/>
          <path class="cls-3" d="M165.6,112s.2-1.9-.3-2.8c-.5-1-1.7-1.7-3.1-2.7-.7-.5-1.4-1-2-1.7,0,0-.2-.2-.3-.3-.2-.3-.8-1.2-1.5-2.4-1.7-3-4.2-7.6-4.2-7.6l-7.5-12.9s-1-1.7-.8-2.9c.2-1.2,1-1.9,1-1.9"/>
          <path class="cls-3" d="M125.8,106.9c.2-.3.6-.3.6-.3,0,0,1.8-.2,3.3-.4,1.1-.1,2.1-.3,2.3-.3.1,0,.3,0,.4,0,.4.1,1.1.4,2.7,1,2,.7,6,.5,7.1.5h0c.2,0,.2,0,.2,0"/>
          <path class="cls-3" d="M162.3,106.6s0,0,0,0c0-.2-.5-1.2-.8-2.1-.2-.5-.3-.9-.2-1,0,0,0-.3,0-.6,0-.9-.2-2.6-.7-3.6-.7-1.4-8.8-18.4-10-20.3-1.2-1.9-2.3-1.6-2.3-1.6"/>
          <path class="cls-3" d="M160.2,104.9c.2,0,.9,0,1.3-.4"/>
          <path class="cls-3" d="M161.4,102.9c-.9-.3-1.8-.5-2.9-.7"/>
          <path class="cls-3" d="M144.1,102.2s0,0,0,0c-5,.7-9.2,2.1-11.5,3.7,0,0,0,0,0,0"/>
          <path class="cls-3" d="M156,98c1.6.2,3.1.4,4.4.8"/>
          <path class="cls-3" d="M127.8,104.6c2.6-2.4,8-4.6,14.7-5.8"/>
          <path class="cls-2" d="M69.9-57.3c-8.2,3.8-1.4,20.7,6.2,43.7,7.2,22,17.8,48.1,26.3,68.2,6.7,15.8,12,27.8,13.6,31.3.3.6.6,1.7.7,1.7,0,0,6.9-5.5,16-10.1,9.1-4.6,18.7-6.4,18.7-6.4,0,0-10.9-21.9-22.5-44-8.8-16.8-17.1-31.7-27.1-48.2-12.9-21.1-22.5-40.2-31.7-36Z"/>
          <path class="cls-3" d="M139.9,108.8c1-.3,1.8-.9,2.4-1.5.7-.7,1.2-1.5,1.5-2.2.4-.9.5-1.8.2-2.9-.1-.4-.3-.9-.6-1.4l-7-15.6c-.8-1.6-3.3-2.4-5.1-1.4-1.9,1-6.2,3.1-8.9,4.3-.6.3-.9,1-.6,1.6.4.8,5.3,13.9,5.3,13.9l.4,1"/>
          <path class="cls-3" d="M122.9,108.9l.4.4c0,0,.2,0,.2-.1v-3.7c0-.2.2-.3.3-.2l1.3.7c.5.3.6.6.6,1.1v3.9c0,.1,0,.2.2.3.5.3,1.8.9,2.5,1.2,1.7.8,6.9,1.9,14.6,1.9s10.1.4,15.7-.6c2.1-.4,4.3-.9,6.5-1.6.2,0,.4-.3.4-.6v-4.3c-.1-.4.1-.8.5-1l2.7-1.1c.2,0,.4,0,.4.2v4.4c.1.2.4.4.6.3,1.4-.7,2.5-1.5,2.8-2.3"/>
          <path class="cls-3" d="M123.5,105.3l3.9-.9c0,0,.2,0,.3,0l1.6.8c.5.3.5.4.5.9"/>
          <path class="cls-3" d="M164.3,108v-.9c0-.4.2-.8.6-1l2.2-.9c.3-.1.7-.2,1,0l1,.3"/>
        </g>
      </g>
    </g>
    <path class="cls-4" d="M205.2,54.8l-11.2,11.2-4.8-4.8"/>
    <circle class="cls-12" cx="197.1" cy="60.4" r="19.5"/>
  </g>
</svg>