<?xml version="1.0" encoding="utf-8"?>
<!-- Generator: Adobe Illustrator 28.3.0, SVG Export Plug-In . SVG Version: 6.00 Build 0)  -->
<svg version="1.1" id="Layer_1" xmlns="http://www.w3.org/2000/svg" xmlns:xlink="http://www.w3.org/1999/xlink" x="0px" y="0px"
	 viewBox="0 0 459.5 196.5" style="enable-background:new 0 0 459.5 196.5;" xml:space="preserve">
<style type="text/css">
	.st0{fill:#FFFFFF;}
</style>
<g>
	<path class="st0" d="M177.1,91.6h9.3l-28.3,72.7c-5.1,13.2-15.1,21.4-26.7,20.5v-8.3c7.9,1,14-3.7,18.1-13.8l1.7-4.1l-29.6-67h9.3
		l24.9,55.7L177.1,91.6L177.1,91.6z"/>
	<path class="st0" d="M220.5,119.4c11.1,2.8,25,5.8,25,20.3c0,5.7-2.3,10.3-6.8,13.8c-4.3,3.6-10.2,5.3-17.2,5.3
		c-12.7,0-22-6.3-25.5-15.3l7.4-4.4c2.5,6.9,9.3,11.2,18.1,11.2s15.2-3.3,15.2-10.6c0-6-6.1-9.3-13.6-11.3c-11.1-2.8-25-5.8-25-20.3
		c0-5.5,2.1-10,6.3-13.6c4.3-3.6,9.8-5.5,16.2-5.5c10.7,0,19.3,5.2,23.1,13.6l-7.3,4.3c-2.5-6.3-7.8-9.3-15.9-9.3
		c-7.6,0-13.9,3.7-13.9,10.5C206.9,114.1,213,117.4,220.5,119.4z"/>
	<path class="st0" d="M299.7,146.8c-2.1,1.8-4.8,2.7-7.5,2.7c-6.4,0-11.6-5.2-11.6-11.7V98h19v-8.5h-19V73.7l-8.7-0.1v16h-13.9V98
		h13.9v40.4c0.3,11,9.3,19.9,20.3,19.9c4.8,0,9.5-1.7,13.1-4.9l-5.7-6.7L299.7,146.8z"/>
	<path class="st0" d="M342.1,84c-11.1,0-20,8.9-20.3,20c0,0.1,0,0.1,0,0.2v54h8.8v-53.7c0-6.4,5.2-11.6,11.5-11.6
		c2.8,0,5.5,1,7.6,2.9l5.9-6.7C351.8,85.8,347,83.9,342.1,84L342.1,84z"/>
	<path class="st0" d="M441.8,152c-6.7-0.1-12-5.6-12-12.3c0-0.1,0-0.1,0-0.2v-16.1c0,0,0-0.1,0-0.2c0-0.1,0-0.1,0-0.2V87.4H421v12.5
		c-5.5-6.3-13.1-10.6-21.8-11.7c-0.7-0.1-1.3-0.1-2-0.2c-0.8,0-1.5-0.2-2.4-0.2c-0.4,0-0.8,0.1-1.2,0.1c-9.1,0.1-17,3.4-23.6,10.1
		c-4.3,4.4-7.1,9.6-8.6,15.3c-0.9,3.1-1.5,6.4-1.5,9.8c0,19.4,15.7,35.3,35,35.3c10.9,0,20.6-5.2,27-13l0.4,1
		c2.7,8.4,10.4,14.5,19.5,14.6c2.4,0,4.4-1.9,4.4-4.4S444.1,152,441.8,152L441.8,152z M394.8,96.8c11.4,0,21.1,7.5,24.7,17.7
		c0.8,2.6,1.4,5.4,1.4,8.4c0,7.3-2.5,13.6-7.6,18.8c-5,5-11.2,7.6-18.5,7.6s-13.5-2.5-18.5-7.6c-5.1-5.2-7.6-11.5-7.6-18.8
		c0-1.8,0.1-3.5,0.4-5.2C371.6,105.8,382.2,96.9,394.8,96.8L394.8,96.8z"/>
	<path class="st0" d="M36.9,168.5c-3.6,0-7.1-0.7-10.1-2.1c-7.1-3.2-12.3-10.3-13.1-18c-1.2-10,5-20.3,14.5-24.5
		c9.4-4.1,20-1.9,28.2,0.4c1.7,0.5,3.5,1.3,5.5,2.3c0-10.7,0-27.2-0.1-41.3c-9.5-1.3-18.9-5.3-26.6-11.4c-1.9-1.6-2.2-4.3-0.7-6.2
		c1.5-1.9,4.3-2.2,6.2-0.7c6.1,4.9,13.4,8.1,21,9.4c-0.2-7.4-0.1-30.5,0.9-37.3c1.3-9.5,4.6-16.3,10.1-21.2
		C82,9.4,97.9,9.6,108,18.3c8.6,7.5,12.4,20,9.8,32c-2.1,9.7-8.3,18.6-17.3,25.2c-6.1,4.4-15.3,7.8-21.2,8.9c-2.6,0.4-5.8,0.8-8.6,1
		c0.1,12.3,0.3,34.6,0.1,46.1c1.2,0.7,2.4,1.5,3.7,2.2c11.2,6.8,25.3,14.4,40.3,19.7c3,1,5.9,1.8,5.9,1.8s-0.3,8.6-0.2,8.6
		c-3.1-0.5-4.9-1-8.2-1.9c-16.3-4.7-30.7-13.5-42.3-20.5c-2.7,12.8-13.5,23.7-26.7,26.4C41.1,168.4,38.9,168.6,36.9,168.5
		L36.9,168.5z M40,130.4c-2.9,0-5.8,0.4-8.4,1.6c-5.9,2.6-10,9.3-9.3,15.4c0.5,4.7,3.7,9,8,10.9c3.1,1.4,7,1.7,11.1,0.8
		c10.4-2.2,19.2-11.5,20.3-21.7c0-0.2,0-0.5,0-0.9c-3.2-1.8-5.8-3.2-7.8-3.7C49.7,131.6,44.8,130.4,40,130.4z M89.7,20.4
		c-4.2,0-8.3,1.3-11.3,4c-3.7,3.4-6.1,8.6-7.1,15.8c-0.9,6.1-1,29.1-0.8,36.2c2.3-0.1,4.9-0.4,7.1-0.8c4.8-0.9,12.7-3.8,17.6-7.4
		c7.3-5.3,12.2-12.4,13.9-20c2-8.8-0.7-18-6.9-23.4C98.7,21.9,94.1,20.4,89.7,20.4L89.7,20.4z"/>
</g>
</svg>
