<?xml version="1.0" encoding="UTF-8"?>
<svg id="Layer_1" data-name="Layer 1" xmlns="http://www.w3.org/2000/svg" xmlns:xlink="http://www.w3.org/1999/xlink" version="1.1" viewBox="0 0 250.4 109.3">
  <defs>
    <style>
      .cls-1 {
        clip-path: url(#clippath);
      }

      .cls-2 {
        fill: none;
      }

      .cls-2, .cls-3 {
        stroke-width: 0px;
      }

      .cls-3 {
        fill: #522fff;
      }
    </style>
    <clipPath id="clippath">
      <rect class="cls-2" x="2.3" y="6.4" width="251.5" height="97.8"/>
    </clipPath>
  </defs>
  <g class="cls-1">
    <g>
      <path class="cls-3" d="M94.6,51.6h5.2l-16,41c-2.9,7.4-8.5,12.1-15.1,11.6v-4.7c4.5.5,7.9-2.1,10.2-7.8l1-2.3-16.7-37.8h5.2l14,31.5,12.1-31.5h0Z"/>
      <path class="cls-3" d="M117.7,67.2c6.3,1.6,14.1,3.3,14.1,11.4s-1.3,5.8-3.8,7.8c-2.4,2-5.8,3-9.7,3-7.2,0-12.4-3.5-14.4-8.6l4.2-2.5c1.4,3.9,5.2,6.3,10.2,6.3s8.6-1.9,8.6-6-3.4-5.3-7.7-6.4c-6.3-1.6-14.1-3.3-14.1-11.4s1.2-5.6,3.6-7.7c2.4-2,5.5-3.1,9.2-3.1,6.1,0,10.9,2.9,13.1,7.7l-4.1,2.4c-1.4-3.5-4.4-5.3-9-5.3s-7.8,2.1-7.8,5.9,3.4,5.3,7.7,6.4Z"/>
      <path class="cls-3" d="M161.3,82.7c-1.2,1-2.7,1.5-4.2,1.5-3.6,0-6.5-3-6.5-6.6v-22.5h10.7v-4.8h-10.7v-8.9h-4.9c0,0,0,8.9,0,8.9h-7.8v4.8h7.8v22.8c.2,6.2,5.2,11.2,11.4,11.2s5.3-1,7.4-2.8l-3.2-3.8h0Z"/>
      <path class="cls-3" d="M187.7,47.3c-6.3,0-11.3,5-11.5,11.3h0v30.6h5v-30.3c0-3.6,2.9-6.6,6.5-6.6s3.1.6,4.3,1.6l3.3-3.8c-2.1-1.9-4.8-2.9-7.6-2.9h0Z"/>
      <path class="cls-3" d="M244,85.6c-3.8,0-6.8-3.2-6.8-7h0v-9.2h0v-20.3h-5v7.1c-3.1-3.5-7.4-6-12.3-6.6-.4,0-.7,0-1.1-.1-.5,0-.9-.1-1.4-.1s-.5,0-.7,0c-5.1,0-9.6,1.9-13.3,5.7-2.4,2.5-4,5.4-4.8,8.6-.5,1.8-.9,3.6-.9,5.5,0,11,8.9,19.9,19.8,19.9s11.6-2.9,15.2-7.3l.2.5c1.5,4.7,5.8,8.2,11,8.2,1.4,0,2.5-1.1,2.5-2.5s-1.1-2.5-2.4-2.5h0ZM217.4,54.5c6.4,0,11.9,4.2,13.9,10,.5,1.5.8,3,.8,4.7,0,4.1-1.4,7.7-4.3,10.6-2.8,2.8-6.3,4.3-10.4,4.3s-7.6-1.4-10.4-4.3c-2.9-2.9-4.3-6.5-4.3-10.6s0-2,.2-2.9c1.4-6.7,7.4-11.8,14.5-11.8h0Z"/>
      <path class="cls-3" d="M15.5,95c-2,0-4-.4-5.7-1.2-4-1.8-6.9-5.8-7.4-10.2-.7-5.6,2.8-11.5,8.2-13.8,5.3-2.3,11.3-1.1,15.9.3,1,.3,2,.7,3.1,1.3,0-6,0-15.4,0-23.3-5.4-.7-10.7-3-15-6.4-1.1-.9-1.2-2.4-.4-3.5.9-1.1,2.4-1.3,3.5-.4,3.4,2.8,7.6,4.6,11.9,5.3-.1-4.2,0-17.2.5-21.1.7-5.3,2.6-9.2,5.7-12,5.3-4.8,14.3-4.7,20,.3,4.8,4.2,7,11.3,5.5,18.1-1.2,5.5-4.7,10.5-9.8,14.2-3.4,2.5-8.6,4.4-12,5-1.5.3-3.3.5-4.8.5,0,7,.2,19.5,0,26,.7.4,1.4.8,2.1,1.3,6.3,3.8,14.3,8.1,22.8,11.1,1.7.6,3.4,1,3.4,1,0,0-.2,4.9-.1,4.9-1.7-.3-2.8-.5-4.6-1.1-9.2-2.7-17.3-7.6-23.9-11.6-1.5,7.2-7.6,13.4-15.1,14.9-1.2.3-2.4.4-3.6.4h0ZM17.3,73.5c-1.7,0-3.3.3-4.7.9-3.3,1.5-5.6,5.3-5.3,8.7.3,2.6,2.1,5.1,4.5,6.2,1.7.8,3.9,1,6.3.5,5.9-1.3,10.8-6.5,11.4-12.3v-.5c-1.8-1-3.3-1.8-4.4-2.1-2.4-.7-5.1-1.3-7.8-1.3ZM45.3,11.4c-2.4,0-4.7.8-6.4,2.3-2.1,1.9-3.4,4.8-4,8.9-.5,3.4-.6,16.4-.5,20.4,1.3,0,2.8-.3,4-.5,2.7-.5,7.2-2.1,9.9-4.2,4.1-3,6.9-7,7.8-11.3,1.1-5-.4-10.1-3.9-13.2-1.9-1.7-4.6-2.5-7.1-2.5h0Z"/>
    </g>
  </g>
</svg>