<?xml version="1.0" encoding="UTF-8"?>
<svg id="Layer_1" data-name="Layer 1" xmlns="http://www.w3.org/2000/svg" version="1.1" viewBox="0 0 216 216">
  <defs>
    <style>
      .cls-1 {
        fill: #2b00ff;
        stroke-width: 0px;
      }
    </style>
  </defs>
  <path class="cls-1" d="M108,181.8c-4.4,0-8.9-1.1-12.8-3.4l-44.1-25.5c-7.9-4.6-12.8-13.1-12.8-22.2v-52.5c0-8.2,4.4-15.8,11.5-19.9,1.6-.9,3.7-.4,4.6,1.2.9,1.6.4,3.6-1.2,4.6-5,2.9-8.1,8.3-8.1,14.1v52.5c0,6.7,3.6,13,9.5,16.4l44.1,25.5c5.8,3.4,13.1,3.4,19,0l45.5-26.3c4.1-2.4,6.9-6.4,7.8-11,.2-1,.3-2,.3-3.1v-52.5c0-6.7-3.6-13-9.5-16.4l-45.5-26.3c-5-2.9-11.2-2.9-16.3,0l-20.2,11.5c-5.6,3.8-8.7,8.2-9.3,13.1-.9,6.9,3.3,12.4,5.1,14.5,3.4,3.8,8.3,8.6,11.7,10.6,3.5,2,8.3,4.3,12.6,5.3,0-5.2,0-18,.6-22,.8-5.9,2.9-10.2,6.3-13.3,6-5.4,16.1-5.3,22.5.3,5.4,4.7,7.9,12.6,6.2,20.1-1.4,6-5.2,11.6-10.8,15.7-3.8,2.8-9.6,4.9-13.3,5.5-1.5.3-3.2.4-4.7.6,0,7.5.2,20.4,0,27.3.4.2.7.4,1,.6,5.3,3.2,11.8,7.2,19,10.1,3.4,1.4,6.7,2.4,9.8,3,1.8.4,3,2.1,2.6,3.9-.4,1.8-2.2,3-3.9,2.6-3.5-.7-7.2-1.8-10.9-3.4-6.9-2.8-13.1-6.4-18.3-9.5-2,7.5-8.6,13.9-16.6,15.5-3.8.8-7.4.5-10.4-.9-4.6-2-7.9-6.5-8.4-11.5-.7-6.4,3.2-12.9,9.3-15.6,5-2.2,11-2.1,17.9.3.8.2,1.6.6,2.4,1v-23.6c-6.9-1.2-14-5.1-16.1-6.3-4.3-2.5-9.8-8-13.3-11.9-5.1-5.8-7.6-13-6.7-19.8.6-4.8,3.2-11.7,12.3-17.9h.2c0,0,20.3-11.7,20.3-11.7,7.1-4.1,15.9-4.1,22.9,0l45.5,26.3c7.9,4.6,12.8,13.1,12.8,22.2v52.5c0,1.4-.1,2.9-.4,4.3-1.2,6.5-5.3,12.2-11.1,15.6l-45.5,26.3c-4,2.3-8.4,3.4-12.8,3.4h-.3ZM87.5,126.2c-1.9,0-3.7.3-5.2,1-3.4,1.5-5.7,5.3-5.3,8.7.3,2.6,2.1,5.1,4.5,6.1,1.8.8,4,1,6.4.5,6.1-1.3,11.2-6.7,11.9-12.6-1.8-1-3.3-1.8-4.4-2.2-2.9-1-5.5-1.5-7.8-1.5h0ZM117.6,59.4c-2.4,0-4.8.8-6.5,2.3-2.2,1.9-3.6,5-4.2,9.2-.5,3.5-.6,16.3-.5,21.2,1.2,0,2.5-.2,3.6-.4,2.9-.5,7.7-2.3,10.5-4.4,4.3-3.1,7.3-7.3,8.3-11.8,1.2-5.1-.4-10.4-4-13.5-2-1.7-4.7-2.6-7.2-2.6h0Z"/>
  <path class="cls-1" d="M108,209.3c-55.9,0-101.3-45.5-101.3-101.3S52.1,6.7,108,6.7s101.3,45.5,101.3,101.3-45.5,101.3-101.3,101.3ZM108,13.4C55.8,13.4,13.4,55.8,13.4,108s42.5,94.6,94.6,94.6,94.6-42.5,94.6-94.6S160.2,13.4,108,13.4Z"/>
</svg>