<?xml version="1.0" encoding="UTF-8"?>
<svg xmlns="http://www.w3.org/2000/svg" xmlns:xlink="http://www.w3.org/1999/xlink" version="1.1" viewBox="0 0 345 289">
  <defs>
    <style>
      .cls-1 {
        fill: #fdeeeb;
      }

      .cls-1, .cls-2 {
        stroke: #000;
      }

      .cls-1, .cls-2, .cls-3, .cls-4 {
        stroke-miterlimit: 10;
      }

      .cls-5 {
        stroke-linecap: round;
      }

      .cls-5, .cls-6, .cls-2, .cls-7, .cls-8, .cls-9, .cls-10, .cls-11, .cls-12, .cls-13, .cls-4, .cls-14, .cls-15 {
        fill: none;
      }

      .cls-5, .cls-3, .cls-13, .cls-4 {
        stroke: #2b00ff;
      }

      .cls-5, .cls-13 {
        stroke-width: .7px;
      }

      .cls-16 {
        clip-path: url(#clippath);
      }

      .cls-6, .cls-17, .cls-18, .cls-19, .cls-20, .cls-21, .cls-22 {
        stroke-width: 0px;
      }

      .cls-2 {
        stroke-width: .7px;
      }

      .cls-23 {
        mask: url(#mask);
      }

      .cls-7 {
        stroke-opacity: .2;
      }

      .cls-7, .cls-8, .cls-9, .cls-10, .cls-11, .cls-12, .cls-14, .cls-15 {
        stroke: #fff;
        stroke-width: 1.3px;
      }

      .cls-17 {
        fill: url(#radial-gradient);
      }

      .cls-9 {
        stroke-opacity: .9;
      }

      .cls-10 {
        stroke-opacity: .5;
      }

      .cls-24 {
        clip-path: url(#clippath-1);
      }

      .cls-25 {
        clip-path: url(#clippath-2);
      }

      .cls-11 {
        stroke-opacity: .2;
      }

      .cls-3, .cls-4 {
        stroke-width: .7px;
      }

      .cls-3, .cls-22 {
        fill: #fff;
      }

      .cls-12 {
        stroke-opacity: .6;
      }

      .cls-18 {
        fill: #ff0a0a;
      }

      .cls-19 {
        fill: #fb1919;
      }

      .cls-20 {
        fill: #d9d9d9;
      }

      .cls-14 {
        stroke-opacity: .8;
      }

      .cls-15 {
        stroke-opacity: .4;
      }

      .cls-21 {
        fill: #2b00ff;
      }

      .cls-26 {
        display: none;
      }

      .cls-27 {
        mask: url(#mask-2);
      }

      .cls-28 {
        mask: url(#mask-1);
      }
    </style>
    <clipPath id="clippath">
      <rect class="cls-6" x="41.6" y="113.1" width="273.8" height="102.5"/>
    </clipPath>
    <mask id="mask" x="93.6" y="-5.3" width="162" height="200.7" maskUnits="userSpaceOnUse">
      <g id="mask0_1144_691" data-name="mask0 1144 691">
        <ellipse class="cls-20" cx="174.6" cy="134.4" rx="81" ry="61"/>
      </g>
    </mask>
    <clipPath id="clippath-1">
      <rect class="cls-6" x="100" y="-5.2" width="107" height="177.3"/>
    </clipPath>
    <radialGradient id="radial-gradient" cx="-67.5" cy="358.1" fx="-67.5" fy="358.1" r="1" gradientTransform="translate(-42267.4 7839.4) rotate(90.2) scale(115.8 -118.4)" gradientUnits="userSpaceOnUse">
      <stop offset="0" stop-color="#d9d9d9"/>
      <stop offset="1" stop-color="#737373" stop-opacity="0"/>
    </radialGradient>
    <mask id="mask-1" x="3" y="-6.1" width="337.4" height="301.6" maskUnits="userSpaceOnUse">
      <g id="mask0_1142_1152" data-name="mask0 1142 1152">
        <ellipse class="cls-17" cx="164.1" cy="146.8" rx="101.7" ry="99.5"/>
      </g>
    </mask>
    <mask id="mask-2" x="3.3" y="-5.1" width="336.7" height="299.6" maskUnits="userSpaceOnUse">
      <g id="mask1_1142_1152" data-name="mask1 1142 1152">
        <path class="cls-2" d="M228.5,294.1c-19.3-8.1-36.9-20.3-55.8-29.4-5-2.4-10.4-4.4-15.2-7.1-7.5-4.1-14.9-8.9-22.4-13.2-20.6-11.6-40.8-23.7-59.1-38.8-8.4-7-15.8-14-25.8-18.8-14.5-7.1-30.4-10.7-46.1-14.2"/>
        <path class="cls-2" d="M231.2,289.4c-20.9-7.2-39.4-20.1-59.2-29.8-12.8-6.3-24.9-13.5-37.4-20.4-20.2-11.2-40.3-22.5-58.3-37-8.4-6.8-15.8-13.5-25.7-18.2-14.9-7.1-31.2-10.8-47.1-14.7"/>
        <path class="cls-2" d="M234.1,284.4c-22.5-6.5-42.1-19.6-63-30-12.7-6.3-24.6-13.7-37.1-20.5-19.9-10.9-40.2-21.5-58-35.7-8.4-6.7-16-13-25.9-17.4-14.9-6.7-31.1-10.5-46.8-14.6"/>
        <path class="cls-2" d="M237.1,279.2c-24.1-6-44.5-18.8-66.4-29.9-12.6-6.4-24.6-14-37.1-20.8-19.2-10.4-40.1-19.8-57-33.8-8.1-6.7-16.2-12.5-26-16.7-15.1-6.4-31.2-10.4-46.9-15"/>
        <path class="cls-2" d="M240,273.9c-39-8.5-72.1-32.1-106.7-50.7-19-10.2-39.8-19-56.5-32.8-20.5-16.9-47.7-22.5-72.4-30.4"/>
        <path class="cls-2" d="M242.8,268.7c-16.2-3.1-31.8-7.8-46.4-15.5-8.7-4.5-17.2-9.3-25.9-13.8-12.7-6.6-24.5-14.7-37.2-21.4-18.9-10-38.5-19-55.9-31.4-21.3-15.2-47.6-21.1-71.9-29.7"/>
        <path class="cls-2" d="M245.3,263.6c-16.8-2.9-33.1-7.4-48.4-14.9-8.9-4.4-17.6-9.5-26.4-14.1-12.6-6.7-24.3-14.9-36.9-21.6-18.7-9.8-37.7-18.8-55.5-30.1-21.6-13.7-47.5-19.9-71.1-29.1"/>
        <path class="cls-2" d="M247.6,258.7c-17.2-2.7-34-6.9-49.8-14.4-9.1-4.3-17.8-9.5-26.6-14.3-5.3-2.9-10.1-6.7-15.2-9.9-7-4.3-14.3-8.1-21.5-11.9-18.4-9.6-37-18.8-55.1-28.9-7.1-4-14.5-7.1-22.1-10-16.2-6.1-32.5-12.2-48.5-18.9"/>
        <path class="cls-2" d="M249.5,254.1c-17.5-2.5-34.6-6.5-50.6-14-9-4.2-17.8-9.2-26.3-14.3-5.4-3.2-10.3-7.3-15.6-10.6-6.9-4.2-14-8-21.1-11.7-18-9.4-36.2-19.2-54.7-27.6-6.9-3.1-14-5.8-21.1-8.6-16.5-6.3-32.5-13.4-48.8-20.1"/>
        <path class="cls-2" d="M251,249.7c-27.9-3.8-54-12.5-77.3-28.5-11.8-8.1-23.5-15.6-36.3-22.2-9.5-4.9-19.2-9.6-28.8-14.3-8.3-4-16.2-8.6-24.9-11.9-23.7-8.8-46.7-18.4-69.8-28.8"/>
        <path class="cls-2" d="M252.2,245.7c-28.1-3.7-53.3-12.2-76.4-28.6-11.7-8.3-23.4-15.7-36.1-22.2-17.2-8.8-34.7-18.6-53.1-24.6-23.7-7.8-46.6-17.9-68.9-29.2"/>
        <path class="cls-2" d="M252.9,242c-16.5-2.1-32.9-5.3-48.1-12.3-9.3-4.3-17.7-10-26-15.9-11.9-8.5-23.7-16.2-36.7-22.9-17-8.7-34.2-17.5-52.6-22.9-23.7-7-44.6-19.8-67.4-29.2"/>
        <path class="cls-2" d="M253.3,238.5c-16.3-2.1-32.7-5.2-47.5-12.5-9.1-4.5-17.2-10.7-25.4-16.7-11.4-8.3-23-15.9-35.6-22.3-17-8.7-33.9-16-52.4-21-23.4-6.3-43.6-20.5-66.1-29.2"/>
        <path class="cls-2" d="M253.3,235.3c-15.7-2-31.8-5-45.8-12.7-8.5-4.7-16.2-11-24-16.7-11.4-8.4-23-16.1-35.6-22.5-8.7-4.4-17.4-8.6-26.6-11.9-8.3-3-16.8-4.7-25.3-6.9-8.5-2.2-16.1-5.7-23.8-9.9-13.5-7.4-27.4-14.3-41.9-19.7"/>
        <path class="cls-2" d="M253,232.3c-14.6-2-29.9-4.7-42.6-12.5-8.5-5.2-16.3-11.8-24.3-17.8-11.2-8.4-22.8-15.9-35.3-22.3-8.4-4.3-16.9-8-26.1-10.7-8.9-2.5-18-3.7-26.9-6.1-8.8-2.3-16.6-6.4-24.2-11.2-12.4-7.7-26-13.7-39.8-18.6"/>
        <path class="cls-2" d="M252.5,229.4c-14.1-2.1-28.3-5-40.1-13.4-8.2-5.8-16-12.2-24-18.3-10.9-8.3-22.5-15.4-34.7-21.7-8.4-4.3-17.2-7.4-26.5-9.3-8.7-1.8-17.6-2.5-26.2-4.8-9.8-2.6-18-7.9-26.4-13.2-11.8-7.5-24.6-12.9-37.7-17.5"/>
        <path class="cls-2" d="M251.8,226.6c-13.6-2.3-25.3-5.7-36.5-13.9-8-5.9-15.5-12.3-23.4-18.4-11.1-8.5-23.2-15.7-35.7-22-16.6-8.5-35.3-6.6-52.8-11.5-10.6-2.9-19.1-9.3-28.3-15-11.5-7-23-12.3-35.7-16.8"/>
        <path class="cls-2" d="M251.1,223.7c-6.6-1.3-13.3-2.7-19.4-5.5-5.2-2.4-9.8-6.2-14.3-9.7-7.9-6.1-15.4-12.7-23.2-18.8-10.9-8.4-23.4-15.9-36-21.3-16.9-7.2-35.8-3.3-53.1-8.7-10.3-3.2-19.2-9.8-28.1-15.7-11.2-7.5-22.8-12.6-35.6-17.1"/>
        <path class="cls-2" d="M251,220.7c-6.2-1.4-12.4-2.9-17.9-6.2-4.8-3-9.4-6.8-13.8-10.4-7.8-6.3-15.2-13-23.1-19.1-10.7-8.2-23.7-16.1-36.7-20.1-17-5.2-35.1-.5-52-6-11.2-3.6-20.7-11.2-30.2-17.9-10.6-7.4-22.4-12.3-34.5-16.6"/>
        <path class="cls-2" d="M251.5,217.9c-6.1-2-11.5-4-16.8-7.8-4.6-3.3-9-6.7-13.3-10.3-7.6-6.4-15-13.2-22.9-19.3-10.9-8.4-24.4-16.1-38-19-17.1-3.6-34.8,2.5-51.6-3.6-11.2-4.1-20.5-12-30.2-18.6-10.9-7.4-22.7-13.1-35.1-17.5"/>
        <path class="cls-2" d="M252.7,215.1c-33.4-13.8-52.7-53.3-91.2-57-17-1.7-33.9,5.1-50.5-1.2-11.3-4.3-20.3-12.3-30.1-19.1-11.2-7.7-23.2-13.8-35.9-18.7"/>
        <path class="cls-2" d="M254.6,212.4c-31.4-16.3-53.1-58-92.3-57.3-17.3.3-34.2,7.5-51,0-10.8-4.8-19.4-12.7-29-19.4-11.2-7.8-23.2-14.1-35.8-19.3"/>
        <path class="cls-2" d="M257.2,209.7c-10.4-7.7-20.4-15.4-29.8-24.3-7.3-6.8-14.4-13.7-22.4-19.7-12.4-9.3-26.1-15.1-41.8-13.3-17.3,1.9-34.1,8.9-50.9.8-10.4-5-18.7-12.8-28-19.3-11.3-8-23.4-14.4-36-20"/>
        <path class="cls-2" d="M259.8,206.2c-10.9-7.8-21-16.3-30.5-25.7-7-6.9-14.1-13.7-21.9-19.5-6.1-4.5-12.9-8.5-20.1-10.9-7.5-2.4-15.7-1.5-23.2,0-17.5,3.3-34.1,9.4-51.2,1-9.3-4.6-17-12.3-25.4-18.3-11.6-8.3-24.1-15.2-37-21.3"/>
        <path class="cls-2" d="M262.1,202.8c-11.4-8.3-21.8-17.5-31.6-27.6-6.8-7.1-13.8-13.9-21.8-19.7-5.8-4.2-12.9-8.5-20-9.8-8-1.4-15.9.2-23.7,2.2-16.6,4.2-34,9.5-50.2,1-9.4-4.9-17.3-12.9-25.9-19.1-11.3-8.1-23.4-14.8-35.9-21"/>
        <path class="cls-2" d="M264.2,199.3c-11.7-8.7-22.4-18.3-32.3-29-6.7-7.2-13.4-14.3-21.6-19.9-6.2-4.3-13-8.1-20.6-8.6-8.2-.6-16.1,2-23.9,4.3-16.1,4.8-34.4,9.2-49.8-.3-8.7-5.3-16.4-12.3-24.7-18.3-11.3-8.1-23.3-14.9-35.6-21.2"/>
        <path class="cls-2" d="M266,195.7c-12-9.1-23-19-33-30.2-6.4-7.1-12.5-14.3-20.4-19.6-6.6-4.4-13.4-7.8-21.5-7.6-8.4.3-16.4,3.6-24.3,6.2-16.6,5.4-32.9,7.3-48.5-2-8.4-5-15.9-11.5-23.8-17.2-11.3-8.1-23.2-15-35.5-21.5"/>
        <path class="cls-2" d="M267.4,192c-12.2-9.2-23.3-19.3-33.4-30.8-6.2-7-12-14.8-19.9-20-6.9-4.5-13.8-7-22.1-5.8-8.4,1.2-16.3,5-24.3,7.7-7.9,2.7-16.1,4.8-24.5,4.1-8.6-.7-16-4.4-23.3-8.7-8-4.8-15.3-10.6-22.9-16.1-11.1-8-22.9-14.9-34.9-21.4"/>
        <path class="cls-2" d="M268.4,188.2c-12.3-9.3-23.6-19.6-33.8-31.3-5.8-6.7-11.2-14.4-18.5-19.6-15.6-11.1-31.7-.8-47.4,4.5-7.9,2.7-16.3,4.4-24.6,3-8.4-1.5-15.6-6-22.7-10.5-7.3-4.6-14.2-9.7-21.3-14.7-11-7.8-22.6-14.7-34.4-21.3"/>
        <path class="cls-2" d="M269,184.3c-12.1-9.1-23.3-19.1-33.2-30.6-6-7-11.5-15.7-19.3-20.8-14.8-9.7-32.4,3.3-46.6,7.8-7.8,2.5-15.8,3.6-23.9,1.5-8.3-2.1-15.5-7.2-22.5-11.8-18-11.8-35.2-24.3-54-34.9"/>
        <path class="cls-2" d="M269.3,180.2c-11.7-8.7-22.6-18.1-32.2-29.1-5.9-6.7-11.4-16.5-19.3-21-15.3-8.7-32.1,5.4-46.7,9.6-17.6,5.1-30.9-3.2-45.1-12.8-17.4-11.8-34.4-23.8-52.7-34.2"/>
        <path class="cls-2" d="M269.2,176c-11.8-8.6-22.9-17.9-32.5-29-5.6-6.4-10.6-15.6-18.5-19.4-15.2-7.3-31.4,7.4-45.9,10.8-17.3,4.1-30.9-6.2-44.4-15.7-16.7-11.7-33.1-23.1-50.8-33.3"/>
        <path class="cls-2" d="M268.9,171.7c-11.8-8.3-22.9-17.4-32.4-28.2-5.6-6.4-10.3-14.8-18.6-18-7-2.7-14.1,0-20.6,2.8-7.8,3.4-15.4,7.5-23.8,8.9-17,2.8-31.5-9.5-44.4-18.9-15.8-11.4-31.4-22.2-48.4-31.8"/>
        <path class="cls-2" d="M268.3,167.2c-11.4-7.6-22-16-31.3-26.2-5.5-6.1-10.1-13.9-18.1-16.9-7.3-2.8-14.6.8-21.2,3.9-7.3,3.4-14.8,7-23,7.7-16.5,1.3-31.6-12.5-44.1-21.6-15.1-11.1-30-21.5-46.4-30.6"/>
        <path class="cls-2" d="M267.6,162.5c-11.3-7.2-22.1-15.2-31.2-25.1-5.1-5.6-9.9-12.7-17.5-15-6.9-2-13.6,1.6-19.7,4.5-7.4,3.5-14.8,7-23.2,6.8-8.4-.2-15.1-4.4-22-8.8-7.6-4.8-14.8-10.1-22-15.5-6-4.5-11.9-9.1-18-13.4-8.4-6-17.5-10.6-26.3-16.1"/>
        <path class="cls-2" d="M267,157.6c-10.8-6.4-21.2-13.6-30-22.6-5.1-5.3-10.4-12.6-18.1-14.2-6.4-1.4-12.7,2.2-18.4,4.8-7.4,3.5-14.9,6.9-23.2,5.7-8.4-1.2-15.5-6.4-22.4-11-7.4-4.9-14.6-10.2-21.8-15.6-6.1-4.6-12.1-9.3-18.4-13.7-7.6-5.3-15.9-9.4-23.5-14.7"/>
        <path class="cls-2" d="M266.9,152.8c-10.7-5.8-21.4-12.2-30-20.9-5-5-10.9-11.9-18.4-12.6-6.4-.6-12.5,3-18.1,5.5-6.8,3-14.2,5.7-21.7,3.9-7.7-1.9-14.9-7.5-21.3-11.9-7.7-5.2-15.2-10.7-22.6-16.3-6.2-4.7-12.3-9.5-18.7-13.8-7.1-4.8-14.7-8.5-21.3-14"/>
        <path class="cls-2" d="M268.4,148.6c-11.1-5.6-21.7-11.4-31-19.7-5.2-4.7-11.3-10.9-18.8-11.2-13.6-.6-24.6,12.2-38.9,7.4-7.6-2.5-14.8-8.4-21.3-12.9-7.8-5.4-15.5-11.1-23.1-16.8-6.2-4.6-12.3-9.4-18.7-13.6-6.5-4.2-13.3-7.6-18.8-13.2"/>
        <path class="cls-2" d="M271.2,144.8c-11.6-5.7-22.7-11.2-33.1-18.9-5.8-4.3-11.4-10-19.1-10.1-13.3,0-24.5,10.4-38.1,4.7-16.3-6.8-30.9-19.8-45-30.3-6.2-4.6-12.3-9.3-18.8-13.4-6.1-3.8-11.8-7-16.4-12.7"/>
        <path class="cls-2" d="M275.3,141.6c-12-5.7-25-10.9-36-18.4-6.1-4.1-11.6-9.1-19.4-9.3-5.9-.1-11.5,2.2-17.2,3.4-7.1,1.4-13.9,1.5-20.6-1.4-16.9-7.4-31.7-20.3-46.5-31.2-6.1-4.5-12.2-8.9-18.5-12.8-5.5-3.4-10.2-6.5-13.7-12.1"/>
        <path class="cls-2" d="M280.5,138.8c-13.6-6.3-28.6-11.9-41.3-20-5.7-3.6-11.7-7-18.6-7.1-6.1-.1-12,1.7-18.1,2-7,.4-13-.2-19.5-3-17.2-7.5-32.1-20.3-47.2-31.3-6-4.3-12-8.5-18.3-12.4-5.2-3.2-8.9-6.2-11.7-11.8"/>
        <path class="cls-2" d="M286.8,136.4c-15.2-7-30.6-13.7-45.6-21.1-6.3-3.1-12.5-5.9-19.6-6.3-13.2-.7-25.2,1.5-37.7-4-17.4-7.5-32.3-20.1-47.6-31-9.7-6.9-23.3-11.9-27.9-23.6"/>
        <path class="cls-2" d="M293.9,134.4c-17-7.7-33.9-16.2-51.4-22.9-6.8-2.6-13.6-4.7-20.9-5.4-12.9-1.3-25.4-1.7-37.5-6.9-17.4-7.6-32.3-19.6-47.7-30.3-9.5-6.6-22.4-11.1-26.1-23"/>
        <path class="cls-2" d="M301.7,132.8c-25.4-11.4-50.7-25-78.4-29.9-13.2-2.3-26.6-4.5-39-9.9-17-7.4-31.7-18.6-46.9-28.9-9.6-6.5-22.1-10.7-25.1-22.8"/>
        <path class="cls-2" d="M310.1,131.3c-27.5-13.6-55.9-24.1-85.5-31.9-13.6-3.6-27.6-7-40.5-12.7-16.5-7.3-31.1-17.7-46.1-27.5-9.6-6.3-21.5-10.3-24.1-22.5"/>
        <path class="cls-2" d="M317.5,128.9c-20.9-9.2-42.1-18.1-63.9-24.9-9.3-2.9-18.9-5.2-28.1-8.6-13.9-5-28.2-9.2-41.7-15.2-16-7.1-30.5-16.7-45.3-26-9.7-6.1-20.3-10-22.9-22"/>
        <path class="cls-2" d="M323.7,126.4c-21.5-8.6-42.8-17.4-65-24.3-10.3-3.2-21-5.7-30.8-10.3-14.6-6.9-30-11.5-44.7-18.2-15-6.8-29.7-15-43.6-24-9.7-6.3-19.6-9.9-22.7-21.8"/>
        <path class="cls-2" d="M329.2,123.9c-22.4-9.2-45.1-17.3-68.1-24.5-11-3.4-22.4-6.3-32.5-12-14.6-8.2-30.9-13.5-46.1-20.5-14.3-6.6-28.3-14-41.6-22.2-9.9-6.1-18.8-9.7-22.7-21.3"/>
        <path class="cls-2" d="M333.5,121.1c-22.6-8.8-45.5-16.4-68.5-23.7-12.5-4-24.1-8.3-35.8-14.3-15.6-8-31.7-15.1-47.6-22.6-13.8-6.5-26.9-14-40.5-20.9-9.7-4.9-17.4-10.3-22-20.3"/>
        <path class="cls-2" d="M336.8,118c-35-12.9-71.9-21.7-105.4-38.2-17-8.4-33.6-17.6-50.7-25.8-13.1-6.3-25.9-13.1-38.9-19.3-9.2-4.4-16.4-10.7-21.6-19.5"/>
        <path class="cls-2" d="M339,114.8c-23.2-8.2-46.7-15.3-70-23.3-12.2-4.2-24.3-9-35.5-15.3-17.6-9.9-35.4-19.6-53.5-28.6-20.7-10.3-44.2-17.7-58.7-36.6"/>
        <path class="cls-2" d="M339.9,111.3c-35.4-12-72.8-20.9-105.5-39.6-18.2-10.4-36.6-20.7-55.3-30.2-11.3-5.8-23-10.9-34.3-16.5-8.7-4.3-16-11.1-22.7-18"/>
        <path class="cls-2" d="M339.6,107.5c-22.2-7.3-44.8-13.9-66.7-22.1-13-4.9-25-11.1-37.1-17.7-19.2-10.5-38-21.8-57.4-32-10.4-5.5-21.2-10-31.6-15.3-8.7-4.4-16.5-11.1-23.9-17.3"/>
        <path class="cls-2" d="M338.1,103.3c-22-7-44.2-13.5-65.6-22.1-12.5-5-23.9-11.3-35.6-17.9-19.6-11.1-39.1-22.4-58.9-33.2-9.4-5.1-19.1-9.3-28.5-14.2-9-4.7-17.5-11-25.7-16.8"/>
        <path class="cls-2" d="M335.6,98.7c-21-6.5-42.1-12.9-62.4-21.4-11.7-4.9-22.4-11.1-33.3-17.5-20.5-12-41.3-23.3-61.9-34.9-17.8-10-35.6-19.2-53.2-29.7"/>
      </g>
    </mask>
    <clipPath id="clippath-2">
      <ellipse class="cls-6" cx="173.4" cy="166" rx="85" ry="32.2" transform="translate(-56.8 97.7) rotate(-27.2)"/>
    </clipPath>
  </defs>
  <g id="Layer_2" data-name="Layer 2" class="cls-26">
    <rect class="cls-1" x="-71.5" y="-131.5" width="500" height="499"/>
  </g>
  <g id="Layer_1" data-name="Layer 1" class="cls-26">
    <g class="cls-16">
      <g>
        <path class="cls-11" d="M315.3,167.5c0,32.2-74.9,52.9-155,47-69.1-5.1-118.6-28.7-118.6-53.3s49.4-46,118.6-47.8c80.1-2.2,155.1,21.9,155.1,54.2h0Z"/>
        <path class="cls-7" d="M302.3,167.2c0,29.1-67.7,47.8-140.2,42.5-62.5-4.6-107.2-25.9-107.2-48.2s44.7-41.5,107.2-43.2c72.4-2,140.2,19.8,140.2,49h0Z"/>
        <path class="cls-15" d="M289.3,166.9c0,26-60.5,42.7-125.3,37.9-55.8-4.1-95.8-23.2-95.8-43.1s39.9-37.1,95.8-38.6c64.7-1.7,125.3,17.7,125.3,43.8Z"/>
        <path class="cls-10" d="M276.3,166.6c0,22.9-53.3,37.6-110.4,33.4-49.2-3.6-84.4-20.4-84.4-37.9s35.2-32.7,84.4-34c57-1.5,110.4,15.6,110.4,38.5Z"/>
        <path class="cls-12" d="M263.4,166.2c0,19.8-46.1,32.5-95.5,28.9-42.6-3.1-73-17.7-73-32.8s30.4-28.3,73-29.4c49.3-1.3,95.5,13.5,95.5,33.3Z"/>
        <path class="cls-14" d="M250.4,165.9c0,16.7-38.9,27.5-80.6,24.4-35.9-2.6-61.6-14.9-61.6-27.7s25.7-23.9,61.6-24.8c41.6-1.1,80.6,11.4,80.6,28.1h0Z"/>
        <path class="cls-9" d="M237.4,165.6c0,13.6-31.7,22.4-65.7,19.9-29.3-2.1-50.2-12.1-50.2-22.6s20.9-19.5,50.2-20.3c33.9-.9,65.7,9.3,65.7,22.9Z"/>
        <path class="cls-8" d="M224.4,165.3c0,10.6-24.5,17.3-50.8,15.4-22.6-1.7-38.8-9.4-38.8-17.5s16.2-15,38.8-15.7c26.2-.7,50.8,7.2,50.8,17.7h0Z"/>
        <path class="cls-8" d="M211.4,165c0,7.5-17.3,12.2-35.9,10.9-16-1.2-27.4-6.6-27.4-12.3s11.4-10.6,27.4-11.1c18.5-.5,35.9,5.1,35.9,12.5h0Z"/>
      </g>
    </g>
    <g class="cls-23">
      <g class="cls-24">
        <g>
          <path class="cls-3" d="M206.2,157.1c0-.2-.1-.5-.3-.7l-20.6-32.5s-3.2.1-12.5,3.7c-9.3,3.6-22.9,10.8-22.9,10.8l6.6,21.1v2c0,2.2,0,3.5.8,4.3,1.4,1.4,4.2,3.4,5.3,3.9,1.7.8,6.7,2.1,14.4,2.1s10.1.4,15.7-.6c5.6-1,13-4.1,13.6-6.7.6-2.2,0-6.2-.2-7.4ZM177.8,158.1c-.3.7-.8,1.5-1.5,2.2h0c-1,0-5.1.2-7.1-.5-1.6-.6-2.3-.9-2.7-1,2.3-1.6,6.4-2.9,11.5-3.7.3,1.1.2,2-.2,2.9ZM193.9,157.6c-.2-.3-.8-1.2-1.5-2.4,1.1.2,2.1.4,2.9.7,0,.3,0,.5,0,.6,0,.1,0,.5.2,1-.4.3-1.1.4-1.3.4,0,0-.2-.2-.3-.3Z"/>
          <path class="cls-4" d="M199.6,165s.2-1.9-.3-2.8c-.5-1-1.7-1.7-3.1-2.7-.7-.5-1.4-1-2-1.7,0,0-.2-.2-.3-.3-.2-.3-.8-1.2-1.5-2.4-1.7-3-4.2-7.6-4.2-7.6l-7.5-12.9s-1-1.7-.8-2.9c.2-1.2,1-1.9,1-1.9"/>
          <path class="cls-4" d="M159.8,159.9c.2-.3.6-.3.6-.3,0,0,1.8-.2,3.3-.4,1.1-.1,2.1-.3,2.3-.3.1,0,.3,0,.4,0,.4.1,1.1.4,2.7,1,2,.7,6,.5,7.1.5h0c.2,0,.2,0,.2,0"/>
          <path class="cls-4" d="M196.3,159.6s0,0,0,0c0-.2-.5-1.2-.8-2.1-.2-.5-.3-.9-.2-1,0,0,0-.3,0-.6,0-.9-.2-2.6-.7-3.6-.7-1.4-8.8-18.4-10-20.3-1.2-1.9-2.3-1.6-2.3-1.6"/>
          <path class="cls-4" d="M194.2,157.9c.2,0,.9,0,1.3-.4"/>
          <path class="cls-4" d="M195.4,155.9c-.9-.3-1.8-.5-2.9-.7"/>
          <path class="cls-4" d="M178.1,155.2s0,0,0,0c-5,.7-9.2,2.1-11.5,3.7,0,0,0,0,0,0"/>
          <path class="cls-4" d="M190,151c1.6.2,3.1.4,4.4.8"/>
          <path class="cls-4" d="M161.8,157.6c2.6-2.4,8-4.6,14.7-5.8"/>
          <path class="cls-3" d="M103.9-4.3c-8.2,3.8-1.4,20.7,6.2,43.7,7.2,22,17.8,48.1,26.3,68.2,6.7,15.8,12,27.8,13.6,31.3.3.6.6,1.7.7,1.7,0,0,6.9-5.5,16-10.1,9.1-4.6,18.7-6.4,18.7-6.4,0,0-10.9-21.9-22.5-44-8.8-16.8-17.1-31.7-27.1-48.2-12.9-21.1-22.5-40.2-31.7-36Z"/>
          <path class="cls-4" d="M173.9,161.8c1-.3,1.8-.9,2.4-1.5.7-.7,1.2-1.5,1.5-2.2.4-.9.5-1.8.2-2.9-.1-.4-.3-.9-.6-1.4l-7-15.6c-.8-1.6-3.3-2.4-5.1-1.4-1.9,1-6.2,3.1-8.9,4.3-.6.3-.9,1-.6,1.6.4.8,5.3,13.9,5.3,13.9l.4,1"/>
          <path class="cls-4" d="M156.9,161.9l.4.4c0,0,.2,0,.2-.1v-3.7c0-.2.2-.3.3-.2l1.3.7c.5.3.6.6.6,1.1v3.9c0,.1,0,.2.2.3.5.3,1.8.9,2.5,1.2,1.7.8,6.9,1.9,14.6,1.9s10.1.4,15.7-.6c2.1-.4,4.3-.9,6.5-1.6.2,0,.4-.3.4-.6v-4.3c-.1-.4.1-.8.5-1l2.7-1.1c.2,0,.4,0,.4.2v4.4c.1.2.4.4.6.3,1.4-.7,2.5-1.5,2.8-2.3"/>
          <path class="cls-4" d="M157.5,158.3l3.9-.9c0,0,.2,0,.3,0l1.6.8c.5.3.5.4.5.9"/>
          <path class="cls-4" d="M198.3,161v-.9c0-.4.2-.8.6-1l2.2-.9c.3-.1.7-.2,1,0l1,.3"/>
        </g>
      </g>
    </g>
    <path class="cls-5" d="M239.2,107.8l-11.2,11.2-4.8-4.8"/>
    <circle class="cls-13" cx="231.1" cy="113.4" r="19.5"/>
  </g>
  <g id="Layer_3" data-name="Layer 3">
    <g class="cls-28">
      <g>
        <path class="cls-22" d="M227.9,295.5c-11.1-4.7-21.8-10.7-32.1-16.6-7.7-4.4-15.7-8.9-23.7-12.8-2-.9-4-1.8-6-2.7-3.1-1.3-6.3-2.7-9.3-4.4-4-2.2-8-4.6-11.9-7-3.5-2.1-7-4.2-10.6-6.2-18.5-10.4-40.1-23.1-59.3-39-1.5-1.2-3-2.5-4.5-3.7-6.7-5.7-13-11-21.1-14.9-14.9-7.3-32-11.1-45.7-14.1l.6-2.9c13.9,3.1,31.2,6.9,46.4,14.3,8.4,4.1,14.8,9.5,21.7,15.3,1.5,1.2,2.9,2.5,4.4,3.7,19,15.7,40.4,28.4,58.9,38.7,3.6,2,7.2,4.2,10.7,6.3,3.8,2.3,7.8,4.7,11.8,6.9,2.9,1.6,6,3,9.1,4.3,2,.9,4.1,1.8,6.1,2.8,8.1,3.9,16.2,8.5,23.9,12.9,10.2,5.8,20.8,11.9,31.8,16.5l-1.2,2.8Z"/>
        <path class="cls-22" d="M230.7,290.9c-13.5-4.7-26.2-11.8-38.5-18.7-6.8-3.8-13.8-7.7-20.9-11.2-9.3-4.5-18.3-9.6-27.1-14.6-3.4-1.9-6.9-3.9-10.4-5.8-22.5-12.5-41.1-23.1-58.5-37.2-1.3-1.1-2.6-2.1-3.8-3.1-6.9-5.7-13.3-11-21.6-14.9-13.9-6.6-29.2-10.3-44.1-13.9l-2.8-.7.7-2.9,2.8.7c15,3.6,30.5,7.3,44.6,14.1,8.5,4.1,15.2,9.5,22.2,15.3,1.3,1,2.5,2.1,3.8,3.1,17.2,13.9,35.7,24.5,58.1,36.9,3.5,1.9,7,3.9,10.4,5.8,8.7,4.9,17.7,10,26.9,14.5,7.1,3.5,14.2,7.4,21,11.3,12.2,6.8,24.8,13.9,38,18.4l-1,2.8Z"/>
        <path class="cls-22" d="M233.7,285.9c-16-4.6-30.8-12.7-45-20.4-5.9-3.2-12.1-6.6-18.2-9.6-8.1-4-16.1-8.6-23.8-13-4.3-2.5-8.8-5.1-13.3-7.5-2-1.1-3.9-2.1-5.9-3.2-17.8-9.7-36.1-19.7-52.3-32.6l-1.4-1.1c-7.7-6.2-15-12-24.2-16.1-12.7-5.7-26.5-9.3-39.9-12.8-2.2-.6-4.4-1.2-6.6-1.7l.8-2.9c2.2.6,4.4,1.2,6.6,1.7,13.5,3.5,27.5,7.2,40.4,13,9.6,4.3,17,10.2,24.9,16.5l1.4,1.1c16,12.7,34.2,22.7,51.9,32.3,2,1.1,3.9,2.1,5.9,3.2,4.5,2.5,9,5,13.4,7.5,7.7,4.4,15.6,8.9,23.7,12.9,6.2,3.1,12.4,6.4,18.3,9.7,14.1,7.7,28.7,15.6,44.4,20.2l-.8,2.9Z"/>
        <path class="cls-22" d="M236.7,280.7c-18.9-4.7-35.8-13.7-52.3-22.4-4.7-2.5-9.6-5.1-14.5-7.6-7.5-3.8-14.8-8-21.9-12.1-5-2.9-10.1-5.9-15.3-8.7-4.3-2.3-8.7-4.6-13-6.9-15.2-7.9-31-16.1-44.3-27.1-6.8-5.6-15.1-11.9-25.6-16.4-11.8-5-24.4-8.6-36.6-12-3.4-1-6.8-1.9-10.1-2.9l.8-2.9c3.4,1,6.7,1.9,10.1,2.9,12.3,3.5,25,7.1,37,12.2,10.9,4.6,19.4,11.1,26.3,16.9,13,10.8,28.6,18.9,43.7,26.8,4.3,2.2,8.8,4.6,13.1,6.9,5.2,2.8,10.3,5.8,15.3,8.7,7,4.1,14.3,8.3,21.7,12,4.9,2.5,9.8,5.1,14.5,7.6,17,9,33.1,17.5,51.6,22.2l-.7,2.9Z"/>
        <path class="cls-22" d="M239.7,275.4c-29.8-6.5-56.5-21.9-82.3-36.8-8.1-4.7-16.5-9.5-24.9-14-4.7-2.5-9.5-5-14.2-7.4-14.6-7.4-29.8-15.1-42.5-25.6-16.4-13.5-37.4-19.7-57.7-25.8-4.7-1.4-9.6-2.9-14.2-4.4l.9-2.9c4.7,1.5,9.5,3,14.2,4.4,20.6,6.1,41.8,12.5,58.7,26.4,12.5,10.2,27.5,17.8,42,25.2,4.7,2.4,9.6,4.9,14.3,7.4,8.4,4.5,16.8,9.4,24.9,14.1,25.6,14.8,52,30.1,81.4,36.5l-.6,2.9Z"/>
        <path class="cls-22" d="M242.5,270.2c-18-3.5-33.3-8.6-46.8-15.6-4.5-2.3-9-4.8-13.4-7.1-4.1-2.2-8.3-4.5-12.5-6.7-6.6-3.4-13-7.3-19.3-11.1-5.8-3.5-11.8-7.1-17.9-10.3-4.6-2.4-9.3-4.8-13.8-7.2-14.2-7.3-29-14.9-42.3-24.3-16.1-11.5-35.3-17.7-54-23.6-5.8-1.9-11.8-3.8-17.5-5.8l1-2.8c5.7,2,11.7,3.9,17.4,5.8,18.9,6.1,38.4,12.3,54.8,24.1,13.1,9.3,27.7,16.9,41.9,24.1,4.6,2.3,9.3,4.8,13.9,7.2,6.1,3.3,12.2,6.9,18,10.4,6.2,3.7,12.6,7.6,19.1,11,4.2,2.2,8.4,4.5,12.5,6.7,4.4,2.4,8.9,4.8,13.4,7.1,13.2,6.9,28.3,11.9,46,15.3l-.6,2.9Z"/>
        <path class="cls-22" d="M245.1,265.1c-18.9-3.3-34.9-8.2-48.8-15.1-5.7-2.8-11.3-5.9-16.8-8.9-3.1-1.7-6.4-3.5-9.6-5.2-6.3-3.3-12.4-7.1-18.3-10.7-6-3.7-12.3-7.5-18.6-10.9-4.9-2.6-9.9-5.2-14.8-7.6-13.6-7-27.7-14.2-40.9-22.6-15.1-9.6-32.5-15.5-49.4-21.3-7.1-2.4-14.5-4.9-21.5-7.7l1.1-2.8c7,2.7,14.3,5.2,21.4,7.6,17.1,5.8,34.7,11.8,50,21.6,13.1,8.3,27.1,15.5,40.6,22.4,4.9,2.5,9.9,5.1,14.8,7.7,6.4,3.4,12.7,7.2,18.8,11,5.9,3.6,12,7.3,18.1,10.6,3.2,1.7,6.5,3.5,9.7,5.3,5.4,3,11,6.1,16.7,8.8,13.6,6.7,29.3,11.6,48,14.8l-.5,3Z"/>
        <path class="cls-22" d="M247.3,260.2c-19.9-3.1-35.9-7.8-50.2-14.6-6.9-3.3-13.6-7-20.1-10.7-2.2-1.2-4.4-2.5-6.6-3.7-3.1-1.7-6.1-3.8-9-5.7-2.1-1.4-4.2-2.9-6.3-4.2-6.8-4.2-14-8-21.4-11.9-5.9-3.1-12-6.2-17.8-9.2-12.3-6.3-25-12.8-37.3-19.7-7.6-4.2-15.3-7.4-21.9-9.9l-5.3-2c-14.2-5.4-29-10.9-43.3-17l1.2-2.8c14.2,6,28.9,11.6,43.2,16.9l5.3,2c6.3,2.4,14.6,5.7,22.3,10.1,12.2,6.9,24.9,13.4,37.2,19.7,5.9,3,11.9,6.1,17.9,9.2,7.4,3.9,14.7,7.7,21.6,12,2.2,1.4,4.4,2.8,6.5,4.3,2.8,1.9,5.7,3.9,8.7,5.6,2.2,1.2,4.4,2.5,6.6,3.7,6.5,3.6,13.1,7.4,19.9,10.6,14,6.7,29.7,11.2,49.4,14.3l-.5,3Z"/>
        <path class="cls-22" d="M249.3,255.6c-20.5-3-36.8-7.5-51.1-14.1-9.3-4.3-18.2-9.5-26.5-14.4-2.9-1.7-5.6-3.7-8.3-5.6-2.4-1.7-4.8-3.5-7.3-5-6.9-4.3-14.2-8.1-21-11.7-3.7-1.9-7.4-3.9-11.1-5.8-14.2-7.4-28.8-15.1-43.5-21.7-6.9-3.1-14.1-5.9-21-8.5-10.4-4-20.9-8.4-31-12.6-5.8-2.5-11.9-5-17.8-7.4l1.1-2.8c6,2.4,12,5,17.9,7.4,10.1,4.2,20.5,8.6,30.9,12.6,7,2.7,14.2,5.4,21.2,8.6,14.7,6.7,29.4,14.4,43.6,21.8,3.7,1.9,7.4,3.9,11.1,5.8,6.9,3.6,14.2,7.5,21.2,11.8,2.6,1.6,5.1,3.4,7.5,5.1,2.6,1.9,5.3,3.8,8.1,5.5,8.2,4.9,17,10,26.2,14.2,14,6.5,30,10.9,50.2,13.9l-.4,3Z"/>
        <path class="cls-22" d="M250.8,251.2c-30.2-4.1-55.7-13.5-78-28.7-10.2-6.9-22.4-15-36.1-22.1-8.6-4.4-17.5-8.8-26.1-12.9l-2.7-1.3c-2.5-1.2-5-2.5-7.4-3.7-5.6-2.9-11.3-5.8-17.3-8-22.5-8.4-45.4-17.8-69.9-28.8l1.2-2.7c24.4,11,47.2,20.4,69.7,28.8,6.1,2.3,12,5.3,17.6,8.2,2.4,1.2,4.9,2.5,7.4,3.7l2.7,1.3c8.6,4.2,17.5,8.5,26.1,13,13.9,7.2,26.2,15.3,36.4,22.3,21.8,14.9,46.9,24.2,76.7,28.2l-.4,3Z"/>
        <path class="cls-22" d="M252,247.2c-30.4-4-54.9-13.1-77.1-28.9-12.9-9.1-24.3-16.2-36-22.1-2.7-1.4-5.4-2.8-8.1-4.2-14.4-7.5-29.4-15.3-44.8-20.3-21.6-7.1-44.2-16.7-69.1-29.3l1.4-2.7c24.7,12.6,47.1,22.1,68.6,29.1,15.6,5.1,30.7,13,45.2,20.5,2.7,1.4,5.4,2.8,8,4.2,11.8,6,23.3,13.1,36.3,22.3,21.8,15.4,45.9,24.4,75.8,28.3l-.4,3Z"/>
        <path class="cls-22" d="M252.7,243.5c-13.9-1.8-32-4.8-48.5-12.4-9.5-4.4-18.2-10.3-26.2-16.1-13.7-9.8-25-16.9-36.6-22.8-16.7-8.5-34-17.4-52.3-22.8-14.9-4.4-28.9-11.1-42.4-17.7-8.2-4-16.6-8-25.2-11.6l1.1-2.8c8.6,3.6,17.1,7.7,25.3,11.6,13.4,6.5,27.3,13.2,41.9,17.5,18.6,5.5,36,14.4,52.9,23,11.7,6,23.1,13.1,36.9,23,7.9,5.7,16.5,11.5,25.8,15.8,16.2,7.5,34,10.4,47.6,12.2l-.4,3Z"/>
        <path class="cls-22" d="M253.1,240c-14.9-1.9-32.3-4.9-47.9-12.7-8.3-4.2-15.9-9.7-23.3-15.1l-2.3-1.7c-12.8-9.3-24-16.4-35.4-22.2-19.2-9.8-35.7-16.4-52.1-20.8-13.9-3.8-26.9-10.3-39.4-16.7-8.7-4.4-17.7-9-26.9-12.5l1.1-2.8c9.3,3.6,18.4,8.2,27.2,12.7,12.4,6.3,25.2,12.8,38.8,16.5,16.6,4.5,33.3,11.2,52.7,21.1,11.5,5.9,22.9,13,35.8,22.4l2.3,1.7c7.2,5.3,14.7,10.8,22.9,14.8,15.3,7.6,32.3,10.5,47,12.4l-.4,3Z"/>
        <path class="cls-22" d="M253.1,236.8c-15.5-2-31.9-5-46.3-12.9-6.8-3.7-13.1-8.5-19.2-13.1-1.6-1.2-3.3-2.5-4.9-3.7-12.7-9.4-23.9-16.5-35.4-22.4-7.5-3.8-16.5-8.2-26.4-11.8-6.1-2.2-12.4-3.7-18.6-5.2-2.2-.5-4.4-1.1-6.6-1.6-7.6-2-15-5-24.1-10-16.3-8.9-29.2-15-41.7-19.6l1-2.8c12.6,4.7,25.6,10.8,42.1,19.8,8.8,4.8,16.1,7.8,23.4,9.7,2.2.6,4.4,1.1,6.6,1.6,6.2,1.5,12.7,3.1,18.9,5.3,10,3.6,19.1,8,26.7,11.9,11.7,6,23.1,13.2,35.9,22.6,1.7,1.2,3.3,2.5,5,3.7,6,4.6,12.2,9.3,18.9,12.9,14,7.7,30.1,10.6,45.3,12.5l-.4,3Z"/>
        <path class="cls-22" d="M252.8,233.8c-14-1.9-30-4.6-43.2-12.7-6.2-3.8-12.1-8.4-17.8-12.8-2.2-1.7-4.4-3.4-6.6-5.1-11.8-8.9-23.3-16.1-35.1-22.2-9.6-4.9-17.8-8.3-25.8-10.6-4.7-1.4-9.6-2.3-14.3-3.3-4.1-.8-8.4-1.7-12.5-2.8-9.7-2.6-17.9-7.2-24.6-11.4-11.2-6.9-24.1-13-39.5-18.5l1-2.8c15.6,5.6,28.7,11.7,40.1,18.8,6.6,4.1,14.5,8.6,23.8,11,4.1,1.1,8.3,1.9,12.3,2.7,4.8,1,9.8,1.9,14.6,3.3,8.2,2.4,16.6,5.8,26.3,10.8,12,6.1,23.6,13.5,35.5,22.4,2.2,1.7,4.5,3.4,6.6,5.1,5.6,4.4,11.4,8.9,17.5,12.6,12.8,7.8,28.4,10.4,42,12.3l-.4,3Z"/>
        <path class="cls-22" d="M252.3,230.9c-13.2-2-28.3-4.8-40.7-13.6-5.3-3.8-10.5-7.8-15.5-11.8-2.8-2.2-5.6-4.4-8.5-6.6-10.4-7.9-21.9-15.1-34.5-21.5-8.2-4.2-16.8-7.2-26.1-9.2-3.6-.8-7.3-1.3-10.9-1.9-5.1-.8-10.3-1.6-15.3-2.9-9.7-2.6-17.7-7.6-26.1-12.9l-.8-.5c-10.3-6.5-22.2-12-37.4-17.3l1-2.8c15.4,5.4,27.5,11,38,17.6l.8.5c8.2,5.2,15.9,10.1,25.2,12.5,4.9,1.3,10.1,2.1,15,2.9,3.6.6,7.4,1.1,11.1,1.9,9.5,2,18.5,5.2,26.9,9.5,12.7,6.5,24.4,13.9,34.9,21.8,2.9,2.2,5.7,4.4,8.5,6.6,5,3.9,10.2,7.9,15.4,11.7,11.9,8.4,26.6,11.2,39.4,13.1l-.4,3Z"/>
        <path class="cls-22" d="M251.6,228.1c-12-2-24.8-5.1-37.1-14.1-4.8-3.5-9.5-7.3-14-10.9-3.1-2.5-6.2-5-9.4-7.5-9.8-7.6-21.4-14.7-35.4-21.9-9.8-5-20.2-6.3-31.2-7.6-7-.9-14.2-1.8-21.3-3.7-8.7-2.4-16.2-7.2-23.4-11.8-1.8-1.1-3.5-2.3-5.3-3.4-11-6.8-22.3-12-35.4-16.6l1-2.8c13.4,4.7,24.8,10,36,16.9,1.8,1.1,3.6,2.3,5.4,3.4,7.4,4.7,14.3,9.1,22.6,11.4,6.8,1.9,13.9,2.8,20.8,3.6,10.8,1.3,21.9,2.7,32.2,7.9,14.2,7.2,25.9,14.5,35.9,22.2,3.2,2.5,6.4,5,9.5,7.5,4.5,3.6,9.2,7.4,13.9,10.9,11.8,8.7,24.2,11.6,35.8,13.6l-.5,3Z"/>
        <path class="cls-22" d="M250.8,225.2c-6.8-1.3-13.5-2.8-19.7-5.6-4.8-2.2-9-5.5-13.1-8.6l-1.5-1.2c-3.9-3-7.8-6.2-11.5-9.3-3.8-3.1-7.8-6.4-11.7-9.5-11.2-8.6-23.5-16-35.7-21.1-9-3.8-18.8-4.5-28.3-5.1-8.1-.5-16.6-1.1-24.6-3.6-9.2-2.9-17.4-8.4-25.2-13.7-1.1-.7-2.2-1.5-3.3-2.2-9.9-6.6-20.8-11.8-35.2-17l1-2.8c14.7,5.2,25.8,10.5,35.9,17.3,1.1.7,2.2,1.5,3.3,2.2,7.7,5.2,15.6,10.6,24.4,13.3,7.7,2.4,15.9,2.9,23.9,3.5,9.8.6,19.9,1.3,29.3,5.3,12.4,5.3,25,12.7,36.3,21.5,4,3.1,8,6.4,11.8,9.5,3.7,3.1,7.6,6.2,11.4,9.2l1.5,1.2c3.9,3.1,8,6.3,12.5,8.3,6,2.7,12.4,4.1,19.1,5.4l-.6,2.9Z"/>
        <path class="cls-22" d="M250.7,222.2h-.3c-6.1-1.5-12.5-3-18-6.4-4.5-2.8-8.7-6.2-12.7-9.5l-1.2-1c-3.1-2.6-6.3-5.2-9.3-7.8-4.5-3.8-9.1-7.7-13.8-11.3-8.6-6.6-21.9-15.5-36.2-19.8-8.2-2.5-16.8-2.7-25.2-2.8-8.9-.2-18-.3-26.8-3.2-9.8-3.2-18.3-9.2-26.5-15.1-1.4-1-2.8-2-4.1-2.9-10.6-7.5-22.7-12.3-34.2-16.4l1-2.8c11.7,4.2,24,9.2,34.9,16.8,1.4,1,2.8,2,4.1,2.9,8,5.7,16.4,11.7,25.7,14.7,8.3,2.7,17.3,2.9,25.9,3,8.6.2,17.5.3,26.1,2.9,14.8,4.5,28.4,13.5,37.2,20.3,4.8,3.7,9.4,7.6,13.9,11.4,3,2.6,6.1,5.2,9.3,7.7l1.2,1c4,3.2,8.1,6.6,12.4,9.2,5.2,3.2,11.2,4.6,17.1,6h.3c0,0-.7,3-.7,3Z"/>
        <path class="cls-22" d="M251.1,219.3c-6.8-2.2-12-4.2-17.2-8-4.6-3.3-9.1-6.8-13.4-10.4-2.5-2.1-5.1-4.4-7.5-6.5-4.9-4.3-10.1-8.7-15.3-12.8-8.8-6.8-22.5-15.6-37.4-18.7-7.4-1.6-15.1-1.3-22.6-1-9.6.4-19.6.8-29.2-2.7-8.7-3.2-16.3-8.6-23.6-13.9-2.3-1.6-4.6-3.3-6.9-4.9-10.4-7.1-22.1-12.9-34.8-17.3l1-2.8c12.9,4.5,24.9,10.5,35.4,17.7,2.4,1.6,4.7,3.3,7,5,7.1,5.1,14.5,10.5,22.9,13.5,9.1,3.3,18.3,2.9,28,2.5,7.7-.3,15.6-.6,23.3,1,15.5,3.3,29.5,12.3,38.6,19.3,5.3,4.1,10.5,8.6,15.5,12.9,2.5,2.1,5,4.3,7.5,6.5,4.2,3.5,8.6,7,13.2,10.3,4.9,3.5,9.9,5.5,16.4,7.5l-.9,2.9Z"/>
        <path class="cls-22" d="M252.2,216.5c-14.2-5.9-26.1-16.5-37.5-26.7-16.2-14.5-31.5-28.1-53.3-30.3-6.5-.6-13.2,0-19.6.6-10.2,1-20.8,2-31.3-2-8.6-3.3-16-8.8-23.2-14.1-2.4-1.7-4.8-3.5-7.2-5.2-10.6-7.3-22.2-13.4-35.6-18.6l1.1-2.8c13.6,5.2,25.4,11.4,36.2,18.9,2.5,1.7,4.9,3.5,7.3,5.3,7,5.2,14.2,10.5,22.5,13.7,9.8,3.8,19.6,2.8,29.9,1.8,6.6-.6,13.4-1.3,20.2-.6,22.8,2.2,39.2,16.9,55,31,11.2,10.1,22.9,20.5,36.7,26.1l-1.1,2.8Z"/>
        <path class="cls-22" d="M253.9,213.8c-11.8-6.1-22.4-15.9-32.6-25.3-17.2-15.9-34.9-32.2-59-31.9-5.5,0-11,.9-16.4,1.7-11.5,1.7-23.4,3.4-35.2-1.8-7.9-3.5-14.7-8.6-21.2-13.6-2.6-2-5.3-4-8.1-5.9-10.4-7.3-22.1-13.5-35.5-19.2l1.2-2.8c13.7,5.7,25.5,12.1,36.1,19.5,2.8,1.9,5.5,4,8.1,6,6.7,5.1,13.1,9.9,20.7,13.2,11,4.9,22,3.3,33.6,1.6,5.5-.8,11.1-1.6,16.8-1.7.3,0,.6,0,.9,0,24.8,0,42.8,16.6,60.1,32.7,10.1,9.3,20.5,18.9,31.9,24.9l-1.4,2.7Z"/>
        <path class="cls-22" d="M256.3,210.9c-9.7-7.2-20.1-15.2-29.9-24.4l-2.6-2.4c-6.3-5.9-12.7-12-19.7-17.2-13.8-10.3-27.1-14.5-40.7-13-4.4.5-8.8,1.3-13,2.1-12.6,2.4-25.7,4.8-38.7-1.4-7.3-3.5-13.6-8.3-19.7-13.1-2.8-2.1-5.6-4.3-8.5-6.4-10.3-7.3-22-13.8-35.7-19.9l1.2-2.7c13.9,6.2,25.7,12.8,36.2,20.2,3,2.1,5.8,4.3,8.6,6.5,6.3,4.8,12.2,9.4,19.1,12.7,12.1,5.8,24.1,3.5,36.8,1.2,4.3-.8,8.8-1.6,13.3-2.1,14.4-1.6,28.5,2.8,42.9,13.6,7.1,5.3,13.6,11.4,19.9,17.4l2.6,2.4c9.7,9.1,20,17,29.7,24.2l-1.8,2.4Z"/>
        <path class="cls-22" d="M258.9,207.4c-10.7-7.6-20.8-16.1-30.7-25.8-7.1-7-14.1-13.7-21.8-19.4-6.8-5.1-13.4-8.6-19.6-10.6-7.4-2.4-15.5-1.4-22.5,0-3,.6-6,1.2-8.9,1.8-14.7,3.2-28.7,6.2-43.3-1-6.3-3.1-11.9-7.6-17.4-12-2.7-2.2-5.5-4.4-8.2-6.4-10.6-7.6-22.6-14.5-36.8-21.1l1.3-2.7c14.3,6.7,26.5,13.7,37.2,21.4,2.9,2.1,5.7,4.3,8.4,6.5,5.3,4.3,10.8,8.7,16.8,11.7,13.7,6.7,27.1,3.8,41.3.8,2.9-.6,5.9-1.3,8.9-1.8,7.4-1.4,16-2.4,24,.1,6.5,2.1,13.4,5.8,20.5,11.1,7.8,5.8,14.9,12.6,22.1,19.7,9.8,9.7,19.7,18,30.3,25.5l-1.7,2.4Z"/>
        <path class="cls-22" d="M261.3,204c-11.2-8.1-21.6-17.2-31.8-27.8-7.6-7.8-14.1-14.1-21.6-19.5-5.3-3.8-12.3-8.3-19.4-9.5-7.9-1.4-15.7.3-23.1,2.2-1.1.3-2.2.6-3.3.8-15.9,4-32.3,8.2-47.9,0-6.1-3.2-11.6-7.7-17-12.1-3-2.4-6-4.9-9.1-7.1-10.2-7.3-21.6-13.9-35.7-20.8l1.3-2.7c14.3,7,25.7,13.7,36.1,21.1,3.2,2.2,6.3,4.8,9.3,7.2,5.2,4.3,10.6,8.7,16.5,11.7,14.6,7.6,30.5,3.6,45.8-.3,1.1-.3,2.2-.6,3.3-.8,7.7-1.9,15.9-3.7,24.3-2.2,7.8,1.3,15.1,6.1,20.7,10,7.7,5.5,14.4,11.9,22.1,19.8,10.1,10.5,20.4,19.5,31.4,27.4l-1.8,2.4Z"/>
        <path class="cls-22" d="M263.3,200.5c-11.8-8.7-22.4-18.2-32.5-29.1-7.3-7.9-13.5-14.3-21.3-19.7-5.6-3.8-12.3-7.9-19.9-8.4-7.5-.5-15,1.7-22.2,3.9l-1.2.4c-17.2,5.1-35.2,9.2-51-.4-5.4-3.3-10.5-7.3-15.4-11.2-3-2.4-6.2-4.9-9.4-7.1-10.1-7.2-21.3-13.9-35.4-21.1l1.4-2.7c14.2,7.3,25.6,14,35.8,21.3,3.2,2.3,6.4,4.8,9.5,7.2,4.8,3.8,9.8,7.8,15.1,11,14.7,9,32.1,5,48.6.1l1.2-.4c7.5-2.2,15.2-4.5,23.2-4,8.4.6,15.8,5,21.4,8.9,8,5.6,14.6,12.4,21.8,20.1,10,10.8,20.5,20.2,32.1,28.8l-1.8,2.4Z"/>
        <path class="cls-22" d="M265.1,196.9c-12.3-9.3-23.2-19.2-33.3-30.4l-1.9-2.1c-5.8-6.4-11.2-12.5-18.3-17.3-5.6-3.8-12.4-7.6-20.6-7.3-6.6.2-13.1,2.5-19.4,4.6-1.5.5-3,1-4.4,1.5-13.9,4.5-32.1,8.4-49.8-2.2-5.6-3.4-10.8-7.4-15.9-11.2-2.6-2-5.3-4.1-8-6-10-7.2-21.2-14-35.3-21.4l1.4-2.7c14.3,7.5,25.6,14.4,35.7,21.6,2.7,2,5.5,4.1,8.1,6.1,5,3.8,10.2,7.8,15.6,11.1,16.6,10,34,6.2,47.3,1.9,1.5-.5,2.9-1,4.4-1.5,6.5-2.2,13.3-4.6,20.3-4.8,9-.3,16.4,3.8,22.4,7.8,7.3,5,13.2,11.5,18.8,17.8l1.9,2.1c10,11.1,20.7,20.9,32.8,30l-1.8,2.4Z"/>
        <path class="cls-22" d="M266.5,193.2c-12.7-9.6-23.7-19.8-33.6-31-1.2-1.4-2.4-2.8-3.6-4.2-4.8-5.7-9.8-11.5-16-15.6-7.5-4.9-14-6.6-21.1-5.6-5.9.8-11.6,3-17.2,5.2-2.2.8-4.5,1.7-6.8,2.5-6.8,2.3-15.9,4.9-25.1,4.2-9.3-.7-17.2-5-23.9-8.9-5.8-3.4-11.2-7.4-16.5-11.3-2.1-1.6-4.3-3.2-6.5-4.8-9.7-7-20.8-13.7-34.7-21.3l1.4-2.6c14.1,7.6,25.2,14.4,35.1,21.5,2.2,1.6,4.4,3.2,6.6,4.8,5.2,3.9,10.6,7.8,16.2,11.2,6.4,3.8,13.9,7.8,22.6,8.5,8.6.7,16.9-1.7,23.9-4.1,2.2-.8,4.5-1.6,6.7-2.5,5.7-2.2,11.7-4.4,17.9-5.3,7.9-1.1,15,.7,23.1,6.1,6.6,4.3,11.7,10.3,16.6,16.1,1.2,1.4,2.4,2.8,3.6,4.1,9.8,11.1,20.6,21.1,33.1,30.6l-1.8,2.4Z"/>
        <path class="cls-22" d="M267.5,189.4c-13.1-9.9-24.2-20.2-34-31.5-1.4-1.6-2.7-3.3-4.1-4.9-4.3-5.2-8.7-10.6-14.1-14.4-12.1-8.6-24.3-3.7-37.2,1.4-2.9,1.1-5.9,2.3-8.8,3.3-9.9,3.4-18,4.3-25.4,3-8.5-1.5-15.7-6-22.7-10.4l-.5-.3c-5.9-3.7-11.5-7.7-17-11.7-1.4-1-2.9-2.1-4.3-3.1-9.6-6.9-20.5-13.6-34.3-21.2l1.5-2.6c13.9,7.7,24.9,14.5,34.6,21.4,1.4,1,2.9,2.1,4.3,3.1,5.4,3.9,11.1,8,16.9,11.6l.5.3c6.7,4.2,13.7,8.6,21.6,10,6.9,1.2,14.5.3,23.9-2.9,2.9-1,5.8-2.1,8.7-3.3,13.1-5.2,26.7-10.6,40.1-1.1,5.7,4.1,10.3,9.6,14.7,15,1.3,1.6,2.7,3.2,4,4.8,9.7,11.2,20.6,21.3,33.5,31.1l-1.8,2.4Z"/>
        <path class="cls-22" d="M268.1,185.5c-13.1-9.8-24-19.9-33.4-30.8-1.7-1.9-3.3-4-4.9-6-4.3-5.4-8.7-11-14.1-14.6-10.5-6.9-22.6-1.6-34.3,3.6-3.9,1.7-7.5,3.3-11,4.4-9.2,3-17.3,3.5-24.7,1.5-7.8-2-14.6-6.5-21.1-10.8l-1.9-1.2c-5.6-3.6-11.2-7.4-16.6-11.1-12-8.1-24.4-16.5-37.3-23.8l1.5-2.6c13.1,7.3,25.5,15.8,37.6,23.9,5.4,3.6,11,7.4,16.5,11.1l1.9,1.2c6.4,4.2,12.9,8.5,20.2,10.4,6.9,1.8,14.4,1.3,23-1.5,3.4-1.1,7-2.7,10.8-4.3,11.9-5.2,25.3-11.1,37.2-3.3,5.9,3.9,10.4,9.6,14.8,15.2,1.6,2.1,3.2,4,4.8,5.9,9.3,10.7,20,20.6,33,30.3l-1.8,2.4Z"/>
        <path class="cls-22" d="M268.4,181.4c-13-9.6-23.6-19.2-32.5-29.4-1.8-2-3.4-4.2-5.2-6.6-4.1-5.5-8.4-11.1-13.8-14.1-10.3-5.8-21.5-.6-32.4,4.4-4.6,2.1-8.9,4.1-13.1,5.3-19,5.5-33.5-4.3-46.3-13-3-2.1-6.1-4.1-9.1-6.2-14-9.5-28.4-19.4-43.5-28l1.5-2.6c15.2,8.6,29.7,18.5,43.7,28.1,3,2.1,6.1,4.1,9.1,6.2,15.3,10.4,27.4,17.3,43.8,12.6,4-1.2,8.3-3.1,12.7-5.2,11-5.1,23.5-10.9,35.1-4.3,5.9,3.4,10.4,9.2,14.7,14.9,1.7,2.3,3.4,4.5,5.1,6.4,8.7,10,19.2,19.4,32,28.9l-1.8,2.4Z"/>
        <path class="cls-22" d="M268.3,177.2c-13.3-9.6-24-19.1-32.8-29.2-1.6-1.8-3-3.7-4.6-5.8-4-5.2-8-10.6-13.5-13.2-9.6-4.6-19.9.3-29.9,5-5,2.3-10.1,4.8-15,5.9-17.2,4.1-30.8-5.5-43.9-14.7l-1.7-1.2c-16.1-11.2-32.7-22.9-50.7-33.2l1.5-2.6c18.2,10.4,34.8,22.1,51,33.3l1.7,1.2c12.6,8.8,25.5,18,41.4,14.2,4.6-1.1,9.4-3.3,14.4-5.7,10.6-5,21.6-10.2,32.5-5,6.1,2.9,10.4,8.6,14.5,14.1,1.5,2,3,3.9,4.5,5.6,8.6,9.9,19.2,19.3,32.3,28.8l-1.8,2.4Z"/>
        <path class="cls-22" d="M268,172.9c-13.6-9.5-24-18.5-32.6-28.5-1.4-1.6-2.8-3.4-4.1-5-3.9-5.1-8-10.3-13.9-12.6-6.4-2.5-12.9-.1-19.5,2.8-1.6.7-3.2,1.4-4.9,2.2-6.1,2.8-12.4,5.7-19.3,6.8-15.9,2.7-29.5-7.4-41.5-16.2-1.3-1-2.7-2-4-2.9-14-10.1-30.5-21.8-48.2-31.7l1.5-2.6c17.9,10,34.4,21.7,48.5,31.9,1.3.9,2.6,1.9,4,2.9,11.5,8.5,24.6,18.1,39.3,15.7,6.5-1.1,12.6-3.9,18.5-6.6,1.6-.7,3.3-1.5,4.9-2.2,6.9-3,14.3-5.7,21.7-2.8,6.7,2.6,11,8.2,15.2,13.5,1.4,1.7,2.6,3.4,4,4.9,8.5,9.7,18.7,18.6,32.1,28l-1.7,2.5Z"/>
        <path class="cls-22" d="M267.5,168.4c-13.2-8.8-23.2-17.2-31.6-26.4-1.4-1.5-2.7-3.2-4-4.7-3.9-4.7-7.8-9.6-13.5-11.8-6.5-2.5-13.1.6-19.5,3.6l-1.3.6c-7.2,3.3-14.5,6.8-22.7,7.4-14.8,1.2-28.1-9-39.9-18-1.8-1.4-3.5-2.7-5.2-3.9-13-9.6-28.7-20.7-46.3-30.5l1.5-2.6c17.7,9.9,33.5,21.1,46.6,30.7,1.7,1.2,3.4,2.6,5.2,4,11.3,8.7,24.2,18.5,37.8,17.4,7.6-.6,14.7-3.9,21.6-7.2l1.3-.6c6.7-3.1,14.2-6.6,21.9-3.7,6.4,2.5,10.7,7.7,14.8,12.7,1.3,1.6,2.6,3.2,3.9,4.6,8.2,9,18,17.3,31,26l-1.7,2.5Z"/>
        <path class="cls-22" d="M266.8,163.7c-13.4-8.5-23.4-16.6-31.5-25.4-1-1.1-2-2.3-3-3.4-4-4.6-8.1-9.4-13.8-11.1-5.8-1.7-11.6,1.1-17.3,3.8l-1.4.7c-7.4,3.5-15.1,7.1-23.8,6.9-9-.2-16-4.7-22.8-9-8.2-5.3-16.1-11.1-22.1-15.5-1.9-1.4-3.8-2.8-5.7-4.3-4-3-8.1-6.2-12.3-9.1-5.2-3.7-10.8-6.9-16.2-10.1-3.3-1.9-6.7-3.9-10-6l1.6-2.5c3.3,2,6.6,4,9.9,5.9,5.5,3.2,11.1,6.5,16.4,10.2,4.2,3,8.4,6.1,12.4,9.2,1.9,1.4,3.8,2.8,5.6,4.3,5.9,4.4,13.8,10.2,21.9,15.4,6.4,4.1,13.1,8.4,21.2,8.6,8,.2,15-3.1,22.5-6.6l1.4-.7c5.9-2.8,12.5-6,19.4-3.9,6.6,2,11,7.1,15.3,12,1,1.2,2,2.3,3,3.4,7.9,8.6,17.7,16.5,30.9,24.9l-1.6,2.5Z"/>
        <path class="cls-22" d="M266.2,158.9c-12.9-7.7-22.6-14.9-30.3-22.8-1-1-1.9-2-3-3.2-4.2-4.6-8.6-9.4-14.4-10.6-5.3-1.1-10.5,1.4-15.6,3.9-.6.3-1.2.6-1.8.9-7.1,3.3-15.2,7.1-24,5.8-8-1.2-14.7-5.7-21.2-10l-1.8-1.2c-8.2-5.5-16-11.2-21.8-15.6-1.5-1.1-3-2.3-4.5-3.4-4.5-3.4-9.2-7-13.9-10.2-3.6-2.5-7.4-4.8-11.2-7-4.1-2.4-8.4-4.9-12.3-7.8l1.7-2.4c3.9,2.8,8.1,5.2,12.1,7.6,3.8,2.2,7.7,4.5,11.3,7.1,4.8,3.3,9.5,6.9,14,10.3,1.5,1.1,3,2.3,4.5,3.4,5.8,4.4,13.6,10.1,21.7,15.5l1.8,1.2c6.2,4.2,12.7,8.5,20,9.6,8,1.2,15.3-2.3,22.3-5.6.6-.3,1.2-.6,1.8-.9,5.3-2.5,11.3-5.4,17.5-4.1,6.7,1.4,11.6,6.8,16,11.5,1,1.1,1.9,2.1,2.9,3.1,7.6,7.7,17,14.8,29.7,22.4l-1.5,2.6Z"/>
        <path class="cls-22" d="M266.2,154.1c-9.9-5.3-21.2-12-30.4-21.2-.5-.5-1-1.1-1.6-1.6-4.6-4.7-9.7-10-15.9-10.6-4.8-.5-9.6,1.8-14.2,3.9-1.1.5-2.1,1-3.2,1.4-6.8,2.9-14.7,5.9-22.7,4-6.7-1.6-13-6-18.6-9.9-1.1-.8-2.2-1.5-3.2-2.2-8-5.4-15.6-11.1-22.7-16.4-1.3-1-2.7-2-4-3-4.8-3.6-9.7-7.4-14.7-10.7-2.6-1.8-5.3-3.4-8-5-4.5-2.7-9.2-5.6-13.4-9.1l1.9-2.3c4.1,3.4,8.7,6.1,13.1,8.8,2.7,1.6,5.4,3.3,8.1,5.1,5.1,3.4,10,7.2,14.8,10.8,1.3,1,2.6,2,4,3,7,5.3,14.6,10.9,22.5,16.3,1.1.7,2.2,1.5,3.3,2.2,5.6,3.9,11.4,7.9,17.6,9.4,7.1,1.7,14.2-.9,20.8-3.8,1-.4,2-.9,3.1-1.4,4.8-2.2,10.1-4.7,15.8-4.2,7.3.7,13.1,6.7,17.8,11.5.5.5,1.1,1.1,1.6,1.6,8.8,8.9,19.9,15.4,29.6,20.7l-1.4,2.6Z"/>
        <path class="cls-22" d="M267.7,149.9c-11-5.6-21.7-11.3-31.3-19.9-.5-.4-1-.9-1.5-1.4-4.8-4.3-10.1-9.2-16.3-9.5-5.5-.2-10.6,1.9-16,4.1-7.2,3-14.7,6.1-23.3,3.2-6.3-2.1-12.1-6.2-17.8-10.3-1.3-1-2.7-1.9-3.9-2.8-8.1-5.5-15.8-11.3-23.1-16.8-1-.8-2-1.5-3-2.3-5-3.8-10.3-7.8-15.6-11.3-1.7-1.1-3.5-2.2-5.2-3.2-4.8-2.9-9.7-5.9-13.9-10.2l2.2-2.1c3.9,4,8.5,6.8,13.3,9.7,1.7,1,3.5,2.1,5.2,3.3,5.4,3.6,10.7,7.5,15.8,11.4,1,.8,2,1.5,3,2.3,7.2,5.5,15,11.2,23,16.7,1.3.9,2.6,1.8,4,2.8,5.5,3.9,11.1,7.9,17,9.9,7.6,2.5,14.2-.2,21.2-3.1,5.5-2.3,11.1-4.6,17.3-4.4,7.3.3,13.4,5.8,18.2,10.2.5.5,1,.9,1.5,1.4,9.3,8.3,19.8,14,30.7,19.5l-1.4,2.7Z"/>
        <path class="cls-22" d="M270.6,146.2c-12.1-5.9-23-11.4-33.3-19-1.1-.8-2.2-1.7-3.3-2.5-4.7-3.7-9.2-7.2-15-7.2-5,0-9.9,1.6-14.7,3.2-7.5,2.5-15.3,5.1-24,1.4-13-5.5-24.9-14.7-36.3-23.6-3.1-2.4-6-4.7-8.9-6.9l-2.3-1.8c-5.3-4-10.7-8.1-16.4-11.6-.7-.4-1.4-.9-2.1-1.3-5.4-3.3-10.5-6.5-14.6-11.7l2.3-1.9c3.8,4.8,8.7,7.8,13.9,11,.7.4,1.4.9,2.1,1.3,5.8,3.6,11.3,7.7,16.6,11.7l2.3,1.8c3,2.2,6,4.6,9,6.9,11.3,8.8,23,17.9,35.7,23.2,7.7,3.2,14.6.9,21.9-1.5,4.9-1.6,10-3.3,15.5-3.3h.2c6.8,0,11.9,4,16.8,7.9,1.1.8,2.1,1.7,3.2,2.5,10.1,7.4,20.9,12.9,32.9,18.7l-1.3,2.7Z"/>
        <path class="cls-22" d="M274.7,142.9c-2.7-1.3-5.4-2.5-8.1-3.8-9.5-4.4-19.4-8.9-28.1-14.8-1-.7-2-1.4-3-2.1-4.9-3.5-9.5-6.8-15.6-6.9-3.7,0-7.3.9-11.2,1.9-1.9.5-3.8,1-5.8,1.4-8.5,1.7-15.3,1.2-21.5-1.5-13.4-5.9-25.5-15.1-37.2-24.1-3.1-2.4-6.3-4.9-9.5-7.2-5.7-4.2-11.9-8.7-18.4-12.8-6-3.8-10.6-6.9-14.2-12.5l2.5-1.6c3.3,5.2,7.6,8.1,13.3,11.6,6.6,4.1,12.9,8.6,18.6,12.9,3.2,2.3,6.4,4.8,9.5,7.2,11.6,8.9,23.5,18,36.6,23.8,5.6,2.4,11.8,2.9,19.7,1.3,1.8-.4,3.7-.9,5.6-1.4,3.9-1,7.8-2.1,12-2,7,.1,12.2,3.9,17.3,7.5,1,.7,1.9,1.4,2.9,2,8.5,5.8,18.2,10.2,27.6,14.5,2.8,1.3,5.5,2.5,8.2,3.8l-1.3,2.7Z"/>
        <path class="cls-22" d="M279.9,140.2c-3.7-1.7-7.6-3.4-11.3-5-10.2-4.5-20.8-9.1-30.1-15.1-5.4-3.4-11.2-6.8-17.9-6.9-3.3,0-6.5.4-10,1-2.6.4-5.3.8-8,1-8.3.4-14.1-.5-20.1-3.1-13.6-5.9-25.8-15.1-37.6-24-3.2-2.4-6.6-5-9.9-7.4-6.9-5-12.7-8.9-18.2-12.4-5.3-3.3-9.3-6.6-12.3-12.4l2.7-1.4c2.7,5.2,6.2,8.1,11.2,11.2,5.6,3.5,11.4,7.4,18.4,12.5,3.3,2.4,6.7,4.9,9.9,7.4,11.6,8.8,23.7,17.9,37,23.7,5.6,2.4,11,3.3,18.8,2.9,2.5-.1,5.2-.6,7.7-1,3.4-.5,6.9-1.1,10.5-1,7.5.2,13.7,3.7,19.4,7.4,9.1,5.8,19.6,10.4,29.7,14.8,3.8,1.6,7.6,3.4,11.4,5.1l-1.3,2.7Z"/>
        <path class="cls-22" d="M286.1,137.8c-3.9-1.8-7.8-3.5-11.7-5.3-11.2-5.1-22.8-10.3-34-15.8-6.7-3.3-12.4-5.8-19-6.2-3.6-.2-7.2-.2-10.6-.2-9.4,0-18.3.1-27.6-3.9-13.7-5.9-26-15-37.8-23.8-3.3-2.4-6.7-5-10.1-7.3-2.5-1.8-5.2-3.4-8-5.1-8.3-5-16.8-10.1-20.5-19.2l2.8-1.1c3.3,8.1,11.4,13,19.2,17.7,2.8,1.7,5.6,3.4,8.2,5.2,3.4,2.4,6.8,4.9,10.1,7.4,11.7,8.7,23.8,17.6,37.2,23.4,8.8,3.8,17.3,3.7,26.4,3.7,3.5,0,7.1,0,10.8.2,7.2.4,13.1,3,20.2,6.5,11.2,5.4,22.7,10.7,33.9,15.7,3.9,1.8,7.8,3.5,11.7,5.3l-1.2,2.7Z"/>
        <path class="cls-22" d="M293.3,135.8c-5.2-2.3-10.5-4.8-15.6-7.2-11.6-5.4-23.6-11-35.7-15.7-8-3.1-14.3-4.7-20.5-5.4-1.9-.2-3.8-.4-5.6-.5-11.2-1-21.8-1.9-32.3-6.5-13.8-6-26.2-14.9-38.2-23.5-3.2-2.3-6.5-4.7-9.8-7-2.3-1.6-4.7-3-7.3-4.5-8.1-4.8-16.5-9.7-19.4-19.2l2.9-.9c2.6,8.4,10.5,13.1,18.1,17.5,2.5,1.5,5.1,3,7.5,4.6,3.3,2.3,6.6,4.7,9.8,7,11.9,8.5,24.1,17.3,37.6,23.2,10.1,4.4,20.4,5.3,31.4,6.3,1.9.2,3.8.3,5.7.5,6.4.6,13,2.3,21.3,5.5,12.2,4.7,24.2,10.3,35.9,15.8,5.1,2.4,10.4,4.8,15.5,7.2l-1.2,2.7Z"/>
        <path class="cls-22" d="M301.1,134.2c-4.8-2.1-9.7-4.4-14.4-6.6-20.3-9.4-41.4-19.2-63.7-23.2l-2.8-.5c-12.2-2.2-24.9-4.4-36.5-9.5-13.8-6-26.3-14.6-38.3-23-2.9-2-5.9-4.1-8.8-6-2.2-1.5-4.5-2.8-6.8-4.2-8.1-4.7-16.5-9.6-19-19.6l2.9-.7c2.2,8.8,9.6,13.1,17.6,17.7,2.3,1.4,4.7,2.8,7,4.3,3,2,5.9,4,8.8,6.1,11.9,8.3,24.3,16.8,37.8,22.7,11.3,4.9,23.8,7.1,35.9,9.3l2.8.5c22.7,4,43.9,13.9,64.4,23.4,4.7,2.2,9.6,4.4,14.4,6.6l-1.2,2.7Z"/>
        <path class="cls-22" d="M309.5,132.6c-26.8-13.3-54.7-23.7-85.2-31.8l-4.3-1.1c-12.2-3.2-24.7-6.5-36.4-11.6-13.8-6.1-26.5-14.5-38.7-22.6-2.5-1.7-5.1-3.3-7.6-5-2-1.3-4.1-2.5-6.1-3.7-8.1-4.6-16.4-9.4-18.6-19.7l2.9-.6c1.9,9,9.3,13.3,17.1,17.8,2.1,1.2,4.2,2.4,6.3,3.8,2.5,1.7,5.1,3.3,7.6,5,12.1,8,24.7,16.3,38.3,22.3,11.4,5,23.9,8.3,35.9,11.5l4.3,1.1c30.7,8.2,58.8,18.6,85.8,32l-1.3,2.7Z"/>
        <path class="cls-22" d="M316.9,130.2c-18.7-8.3-40.8-17.7-63.7-24.9-3.5-1.1-7.1-2.1-10.6-3.1-5.8-1.7-11.8-3.4-17.6-5.5-4.4-1.6-8.9-3.1-13.3-4.6-9.5-3.2-19.3-6.5-28.6-10.7-14.1-6.3-27.2-14.6-39.9-22.6-1.8-1.2-3.7-2.3-5.5-3.5-1.7-1-3.4-2-5.1-3-8-4.6-16.3-9.4-18.6-19.9l2.9-.6c2,9.2,9.4,13.5,17.1,18,1.7,1,3.4,2,5.1,3.1,1.9,1.2,3.7,2.3,5.5,3.5,12.6,8,25.7,16.2,39.6,22.4,9.2,4.1,18.9,7.4,28.3,10.6,4.4,1.5,8.9,3,13.3,4.6,5.7,2.1,11.6,3.8,17.4,5.4,3.5,1,7.1,2,10.7,3.1,23,7.2,45.3,16.7,64,25l-1.2,2.7Z"/>
        <path class="cls-22" d="M323.1,127.8c-3.1-1.2-6.2-2.5-9.3-3.7-18-7.2-36.6-14.7-55.5-20.5-2.6-.8-5.3-1.6-7.9-2.4-7.7-2.2-15.6-4.5-23-8-7.6-3.6-15.6-6.6-23.4-9.6-7-2.7-14.3-5.4-21.3-8.6-14.5-6.6-29.2-14.7-43.8-24.1-1.7-1.1-3.5-2.2-5.2-3.2-7.9-4.7-15.4-9.2-18.1-19.5l2.9-.8c2.4,9.1,9,13.1,16.8,17.7,1.7,1,3.5,2.1,5.3,3.2,14.4,9.3,29,17.3,43.4,23.9,6.9,3.1,14.2,5.9,21.2,8.6,7.8,3,15.9,6,23.6,9.7,7.2,3.4,15,5.7,22.6,7.9,2.6.8,5.3,1.5,8,2.4,19,5.9,37.7,13.4,55.8,20.6,3.1,1.2,6.2,2.5,9.3,3.7l-1.1,2.8Z"/>
        <path class="cls-22" d="M328.6,125.3c-21.8-9-44.7-17.2-68-24.4-1.8-.6-3.7-1.1-5.5-1.7-9.2-2.8-18.7-5.6-27.3-10.4-9-5.1-18.9-9.1-28.5-13-5.8-2.4-11.8-4.8-17.5-7.5-14.8-6.8-28.8-14.3-41.8-22.3-1.5-.9-3-1.8-4.4-2.6-8.3-4.9-15.4-9.1-18.9-19.4l2.8-1c3.1,9.3,9.5,13,17.6,17.8,1.5.9,3,1.7,4.5,2.7,12.8,7.9,26.8,15.4,41.5,22.2,5.7,2.6,11.6,5,17.4,7.4,9.6,3.9,19.6,8,28.8,13.2,8.2,4.6,17.6,7.5,26.7,10.2,1.8.6,3.7,1.1,5.5,1.7,23.4,7.3,46.4,15.5,68.3,24.5l-1.1,2.8Z"/>
        <path class="cls-22" d="M333,122.5c-19.8-7.7-40.9-15-68.4-23.7-14.5-4.6-25.6-9-36-14.4-11.1-5.7-22.5-11-33.6-16.1-4.6-2.1-9.3-4.3-13.9-6.5-8.4-4-16.7-8.4-24.8-12.7-5.1-2.7-10.4-5.5-15.7-8.2-10.3-5.2-18-10.8-22.6-21l2.7-1.2c4.2,9.5,11.6,14.7,21.3,19.6,5.3,2.7,10.6,5.5,15.8,8.2,8,4.3,16.3,8.7,24.7,12.6,4.6,2.2,9.3,4.3,13.9,6.5,11.1,5.1,22.6,10.5,33.7,16.2,10.3,5.3,21.2,9.6,35.5,14.2,27.6,8.7,48.8,16.1,68.6,23.8l-1.1,2.8Z"/>
        <path class="cls-22" d="M336.3,119.4c-12.2-4.5-24.9-8.6-37.2-12.5-22.9-7.3-46.5-14.9-68.4-25.8-7.8-3.8-15.6-7.9-23.2-11.9-9-4.7-18.2-9.5-27.5-14-6.4-3.1-12.9-6.4-19.2-9.5-6.5-3.3-13.1-6.6-19.7-9.8-9.7-4.7-17-11.2-22.2-20.1l2.6-1.5c4.9,8.3,11.8,14.5,21,18.9,6.6,3.2,13.3,6.6,19.8,9.8,6.3,3.2,12.7,6.4,19.1,9.5,9.3,4.5,18.6,9.3,27.5,14,7.6,3.9,15.4,8,23.1,11.8,21.7,10.7,45.2,18.3,68,25.6,12.3,4,25,8,37.3,12.6l-1,2.8Z"/>
        <path class="cls-22" d="M338.5,116.2c-13.1-4.6-26.5-9-39.5-13.2-10-3.3-20.4-6.6-30.5-10.1-14.5-5-25.9-9.9-35.8-15.4-14.5-8.1-33.7-18.7-53.4-28.5-4.3-2.1-8.8-4.2-13.1-6.1-16.9-7.7-34.4-15.6-46.2-30.9l2.4-1.8c11.3,14.7,28.5,22.5,45,30,4.4,2,8.9,4,13.2,6.2,19.8,9.8,39,20.4,53.6,28.6,9.7,5.5,20.9,10.3,35.3,15.2,10.1,3.5,20.5,6.8,30.5,10.1,13,4.2,26.4,8.6,39.6,13.2l-1,2.8Z"/>
        <path class="cls-22" d="M339.4,112.7c-8.8-3-17.9-5.8-26.7-8.6-26.7-8.4-54.4-17-79.1-31.1-17.4-9.9-36.2-20.5-55.3-30.2-6.7-3.4-13.7-6.7-20.4-9.8-4.6-2.1-9.3-4.4-13.9-6.6-8.9-4.4-16.4-11.4-23.1-18.3l2.2-2.1c6.5,6.7,13.8,13.5,22.3,17.7,4.6,2.2,9.3,4.5,13.9,6.6,6.7,3.2,13.7,6.4,20.5,9.9,19.1,9.8,37.9,20.3,55.4,30.2,24.4,13.9,51.9,22.5,78.5,30.8,8.8,2.8,17.9,5.6,26.7,8.6l-1,2.8Z"/>
        <path class="cls-22" d="M339.1,108.9c-6.7-2.2-13.5-4.4-20.1-6.5-15.4-4.9-31.3-9.9-46.6-15.7-12.4-4.7-23.9-10.5-37.3-17.8-8.4-4.6-16.8-9.3-24.9-14-10.6-6-21.5-12.3-32.5-18-5.9-3.1-12-6-17.9-8.7-4.5-2.1-9.1-4.3-13.7-6.5-8.5-4.2-15.9-10.5-23.1-16.6l-1.1-.9,1.9-2.3,1.1.9c7.1,6,14.4,12.1,22.6,16.2,4.5,2.2,9.1,4.4,13.6,6.5,6,2.8,12.1,5.7,18.1,8.8,11,5.8,22,12,32.6,18.1,8.1,4.6,16.5,9.4,24.9,13.9,13.3,7.2,24.6,13,36.9,17.6,15.3,5.7,31.1,10.8,46.5,15.6,6.6,2.1,13.5,4.3,20.2,6.5l-.9,2.9Z"/>
        <path class="cls-22" d="M337.7,104.7c-4.4-1.4-8.9-2.8-13.3-4.2-17.3-5.4-35.3-11-52.4-17.9-12.6-5.1-24.1-11.4-35.8-18-6.2-3.5-12.5-7.1-18.7-10.6-13.1-7.5-26.7-15.2-40.2-22.6-5.3-2.9-10.7-5.5-16-8-4.1-2-8.3-4-12.4-6.1-7.7-4-15.1-9.2-22.1-14.2-1.3-.9-2.5-1.8-3.8-2.7l1.7-2.5c1.3.9,2.5,1.8,3.8,2.7,7,5,14.2,10.1,21.8,14,4.1,2.1,8.3,4.1,12.3,6.1,5.3,2.6,10.9,5.2,16.2,8.1,13.5,7.4,27.1,15.1,40.2,22.6,6.2,3.5,12.4,7.1,18.7,10.6,11.6,6.5,23,12.8,35.4,17.8,17,6.8,34.9,12.4,52.2,17.9,4.5,1.4,8.9,2.8,13.3,4.2l-.9,2.9Z"/>
        <path class="cls-22" d="M335.1,100.2l-5.7-1.8c-18.8-5.8-38.3-11.9-56.8-19.6-12.1-5-23-11.4-33.5-17.6-13.5-7.9-27.4-15.7-40.9-23.2-7-3.9-14-7.8-21-11.7-6.7-3.8-13.5-7.5-20.1-11.1-10.9-5.9-22.1-12-33.1-18.6l1.5-2.6c10.9,6.5,22.1,12.6,33,18.5,6.6,3.6,13.5,7.3,20.2,11.1,7,3.9,14,7.8,21,11.7,13.5,7.5,27.4,15.3,41,23.2,10.5,6.1,21.3,12.5,33.1,17.4,18.4,7.7,37.7,13.7,56.5,19.5l5.7,1.8-.9,2.9Z"/>
      </g>
    </g>
    <g class="cls-27">
      <g class="cls-25">
        <rect class="cls-18" x="89.7" y="111.4" width="167.4" height="109.4"/>
        <ellipse class="cls-18" cx="173.4" cy="166" rx="90.9" ry="34.4" transform="translate(-58.1 102.5) rotate(-28.4)"/>
        <ellipse class="cls-18" cx="173.4" cy="166" rx="49.4" ry="18.7" transform="translate(-58.1 102.5) rotate(-28.4)"/>
      </g>
    </g>
    <path class="cls-19" d="M236.8,111.3c-.1,0-.2,0-.3,0-.3-.2-.5-.6-.3-.9l8.9-16.9c.2-.3.6-.5.9-.3.3.2.5.6.3.9l-8.9,16.9c-.1.2-.4.4-.6.4Z"/>
    <path class="cls-19" d="M246.6,121.9c-.3,0-.5-.2-.6-.4-.2-.4,0-.8.3-.9l17.4-7.9c.4-.2.8,0,.9.3s0,.8-.3.9l-17.4,7.9c0,0-.2,0-.3,0Z"/>
    <path class="cls-19" d="M250.1,136.6c-.4,0-.7-.3-.7-.7,0-.4.3-.7.7-.7l19.1-1.3c.4,0,.7.3.7.7s-.3.7-.7.7l-19.1,1.3s0,0,0,0Z"/>
    <path class="cls-19" d="M218.7,107.3c-.4,0-.7-.3-.7-.7l-.8-19.1c0-.4.3-.7.7-.7.3,0,.7.3.7.7l.8,19.1c0,.4-.3.7-.7.7,0,0,0,0,0,0Z"/>
    <g>
      <path class="cls-6" d="M196.6,117.2c1.9,1.5,2.9,3.8,2.9,6.1v-20.5h-22.5c1.2,0,2.3.4,3.3,1.2l16.3,13.2Z"/>
      <path class="cls-6" d="M79.1,145.9c17.2-5.1,21.8-8.9,21.8-8.9h0c0,0,73.6-33.7,73.6-33.7.7-.3,1.4-.5,2.1-.5H43v51.5c13.6-2.8,27.8-5.9,36.1-8.4Z"/>
      <path class="cls-6" d="M199.5,123.5c0,.3,0,.6,0,1v.6c0,0-.3,0-.3,0l-100.9,47.3c0,0-3.9,3-12.9,5.3-4.8,1.2-23.4,5.5-42.3,9.8v24.1h156.5v-88.2Z"/>
      <path class="cls-22" d="M134.4,150.8l1.5,3.2,4.3-2-1.5-3.3c-1.5.7-2.9,1.4-4.3,2Z"/>
      <path class="cls-22" d="M139,148.6l1.5,3.3,4.3-2-1.5-3.3c-1.5.7-2.9,1.4-4.3,2Z"/>
      <path class="cls-22" d="M190,124.6l1.5,3.3,4.3-2-1.5-3.3c-1.2.6-2.7,1.3-4.3,2Z"/>
      <path class="cls-22" d="M129.7,153l1.5,3.2,4.3-2-1.5-3.2c-1.5.7-3,1.4-4.3,2.1Z"/>
      <path class="cls-22" d="M143.6,146.4l1.5,3.3,4.3-2-1.5-3.3c-1.5.7-2.9,1.4-4.3,2Z"/>
      <path class="cls-22" d="M171.4,133.3l1.5,3.3,4.3-2-1.5-3.3c-1.4.7-2.9,1.3-4.3,2Z"/>
      <path class="cls-22" d="M125.1,155.2l1.5,3.2,4.3-2-1.5-3.2c-1.6.8-3,1.4-4.3,2.1Z"/>
      <path class="cls-22" d="M97.8,171.8l14.4-6.7c0-.4.2-1.4.8-2.5.8-1.6,2.3-2.9,5.6-4.9,4-2.3,73.2-34.7,79.3-37.5-.4-.9-1.1-1.7-1.9-2.4l-11.7-9.4c-5.5,2.5-54.8,24.9-55.3,25.1-.2,0-15.4,6.7-20.2,11-4.9,4.4-6.1,8.2-6.4,9.6h-.3c.3-1.5,1.6-5.5,6.5-9.9,4.8-4.3,20.1-11,20.3-11.1.5-.2,48.9-22.2,55.2-25.1l-4.3-3.5c-1.4-1.1-3.2-1.3-4.9-.6l-73.5,33.6c-.5.4-5.3,4-22,9-8.4,2.5-22.7,5.6-36.4,8.4v31.8c18.8-4.3,37.3-8.5,42.1-9.8,8.9-2.3,12.7-5.2,12.8-5.3Z"/>
      <path class="cls-22" d="M176.1,131.1l1.5,3.3,4.3-2-1.5-3.3c-1.4.7-2.8,1.3-4.3,2Z"/>
      <path class="cls-22" d="M162.2,137.7l1.5,3.3,4.3-2-1.5-3.3c-1.4.7-2.9,1.3-4.3,2Z"/>
      <path class="cls-22" d="M120.5,157.4l1.4,3.1,4.3-2-1.5-3.2c-1.8.9-3.3,1.6-4.3,2.1Z"/>
      <path class="cls-22" d="M166.8,135.5l1.5,3.3,4.3-2-1.5-3.3c-1.4.7-2.9,1.3-4.3,2Z"/>
      <path class="cls-22" d="M157.5,139.8l1.5,3.3,4.3-2-1.5-3.3c-1.4.7-2.9,1.4-4.3,2Z"/>
      <path class="cls-22" d="M180.7,129l1.5,3.3,4.3-2-1.5-3.3c-1.4.6-2.8,1.3-4.3,2Z"/>
      <path class="cls-22" d="M148.3,144.2l1.5,3.3,4.3-2-1.5-3.3c-1.5.7-2.9,1.4-4.3,2Z"/>
      <path class="cls-22" d="M185.4,126.8l1.5,3.3,4.3-2-1.5-3.3c-1.3.6-2.8,1.3-4.3,2Z"/>
      <path class="cls-22" d="M152.9,142l1.5,3.3,4.3-2-1.5-3.3c-1.4.7-2.9,1.4-4.3,2Z"/>
      <path class="cls-22" d="M196.1,125.7l2.5-1.2v-.2c.2-1.2,0-2.5-.3-3.6-.6.3-1.8.9-3.7,1.7l1.5,3.3Z"/>
      <path class="cls-22" d="M119,158.2c-1.2.7-2.2,1.4-2.9,1.9l1.2,2.6,4.3-2-1.4-3.1c-.6.3-1,.5-1.2.6Z"/>
      <path class="cls-22" d="M113.7,162.8c-.4.8-.5,1.4-.6,1.9l4-1.9-1.2-2.5c-1.2,1-1.8,1.7-2.2,2.5Z"/>
      <path class="cls-21" d="M101,137h0c0,0-4.6,3.8-21.8,8.9-8.3,2.5-22.5,5.5-36.1,8.4v.4c13.9-2.9,27.9-5.9,36.3-8.4,17.5-5.2,21.9-9,21.9-9l73.6-33.6c1.7-.8,3.8-.5,5.2.7l4.5,3.6s0,0,0,0v.2c0,0,11.8,9.4,11.8,9.4.9.7,1.5,1.6,2,2.5,0,0,0,0,0,0l.3.6s0,0,0,0c.5,1.2.6,2.5.4,3.8v.4c0,0-2.7,1.3-2.7,1.3h0c0,.1-.3.3-.3.3h0c0-.1-4.3,1.9-4.3,1.9h0c0,0-.3.2-.3.2h0c0,0-4.3,1.9-4.3,1.9h0c0,0-.3.2-.3.2h0c0,0-4.3,2-4.3,2h0c0,0-.3.2-.3.2h0s-4.3,2-4.3,2h0s-.3.2-.3.2h0s-4.3,2-4.3,2h0s-.3.2-.3.2h0s-41.4,19.4-41.4,19.4h0c0,0-.3.2-.3.2h0c0,0-4.3,1.9-4.3,1.9h0c0,0-.3.2-.3.2h0c0,0-4.3,2-4.3,2h0s-.3.2-.3.2h0s-4.3,2-4.3,2h0s-.3.2-.3.2h0s-4.2,1.9-4.2,1.9c0,.1,0,.2,0,.2h-.3s-14.5,6.8-14.5,6.8c0,0-3.8,2.9-12.9,5.3-4.7,1.2-23.3,5.5-42.2,9.8v.4c18.9-4.3,37.5-8.5,42.3-9.8,9-2.4,12.8-5.3,12.9-5.3l100.9-47.3h.2c0,0,0-.7,0-.7,0-.3,0-.6,0-1v-.2c0-2.4-1-4.6-2.9-6.1l-16.3-13.2c-.9-.8-2.1-1.2-3.3-1.2h-.3c-.7,0-1.4.2-2.1.5l-73.6,33.6Z"/>
      <path class="cls-21" d="M79.4,146.6c16.8-5,21.5-8.6,22-9l73.5-33.6c1.6-.7,3.5-.5,4.9.6l4.3,3.5c.1,0,.3-.1.4-.2l-4.5-3.6c-1.5-1.2-3.5-1.4-5.2-.7l-73.6,33.6s-4.4,3.7-21.9,9c-8.4,2.5-22.4,5.5-36.3,8.4v.4c13.7-2.9,28-5.9,36.4-8.4Z"/>
      <polygon class="cls-21" points="122 160.5 122.1 160.8 126.4 158.8 126.3 158.5 122 160.5"/>
      <polygon class="cls-21" points="117.3 162.7 117.5 163 121.8 161 121.6 160.7 117.3 162.7"/>
      <path class="cls-21" d="M198.7,124.3v.2s-2.5,1.2-2.5,1.2v.3c.1,0,2.8-1.3,2.8-1.3v-.4c.3-1.3.1-2.6-.3-3.8,0,0-.1,0-.3.2.4,1.1.6,2.4.4,3.6Z"/>
      <path class="cls-21" d="M112.3,165.1l-14.4,6.7s-3.9,2.9-12.8,5.3c-4.7,1.2-23.2,5.5-42.1,9.8v.4c18.8-4.3,37.4-8.5,42.2-9.8,9-2.4,12.9-5.3,12.9-5.3l14.5-6.8h-.4s0-.1,0-.2Z"/>
      <path class="cls-21" d="M113,164.7c0,.2,0,.3,0,.4l4.2-2v-.3c-.1,0-4.1,1.9-4.1,1.9Z"/>
      <polygon class="cls-21" points="186.9 130.1 187 130.4 191.3 128.4 191.2 128.1 186.9 130.1"/>
      <path class="cls-21" d="M184.4,108.3l11.7,9.4c.8.7,1.4,1.5,1.9,2.4.1,0,.2-.1.3-.1-.5-1-1.1-1.8-2-2.5l-11.7-9.4v.2s-.1,0-.2.1Z"/>
      <polygon class="cls-21" points="191.5 127.9 191.7 128.2 196 126.2 195.8 125.9 191.5 127.9"/>
      <polygon class="cls-21" points="173 136.6 173.1 136.9 177.4 134.9 177.3 134.6 173 136.6"/>
      <polygon class="cls-21" points="177.6 134.4 177.7 134.8 182.1 132.7 181.9 132.4 177.6 134.4"/>
      <polygon class="cls-21" points="126.6 158.3 126.7 158.7 131.1 156.6 130.9 156.3 126.6 158.3"/>
      <polygon class="cls-21" points="168.3 138.8 168.5 139.1 168.1 139.2 168 138.9 163.7 141 163.8 141.2 163.5 141.4 163.4 141.1 159 143.1 159.2 143.4 158.8 143.5 158.7 143.3 154.4 145.3 154.5 145.5 154.2 145.7 154.1 145.5 149.8 147.5 149.9 147.7 149.5 147.8 149.5 147.6 145.1 149.6 145.2 149.8 144.9 150 144.8 149.8 140.5 151.8 140.6 152 140.3 152.1 140.2 152 135.9 154 135.9 154.1 135.6 154.3 135.5 154.1 131.2 156.2 131.4 156.5 172.8 137.1 172.6 136.8 168.3 138.8"/>
      <polygon class="cls-21" points="182.2 132.3 182.4 132.6 186.7 130.6 186.6 130.2 182.2 132.3"/>
      <path class="cls-21" d="M113,162.5c-.6,1.2-.7,2.1-.8,2.5l.8-.4c0-.4.3-1.1.6-1.9.4-.8.9-1.5,2.2-2.5l-.2-.4h.3c0-.1.1.1.1.1.7-.5,1.7-1.2,2.9-1.9.2-.1.6-.3,1.2-.6l-.2-.3h.3c0-.1.1.2.1.2,1-.5,2.5-1.2,4.3-2.1v-.2c-.1,0,.2-.1.2-.1v.2c1.4-.6,2.8-1.3,4.4-2.1v-.2c0,0,.2-.1.2-.1h0c1.3-.5,2.8-1.2,4.3-1.9l-.2-.4h.3c0-.1.2.2.2.2,1.4-.7,2.8-1.3,4.3-2l-.2-.3h.3c0-.1.2.2.2.2,1.4-.7,2.8-1.3,4.3-2v-.3c-.1,0,.2-.1.2-.1v.3c1.6-.7,3-1.3,4.5-2v-.3c-.1,0,.2-.1.2-.1v.3c1.5-.7,3-1.3,4.4-2v-.2c-.1,0,.2-.1.2-.1v.2c1.5-.7,3-1.4,4.4-2v-.2c0,0,.2-.1.2-.1v.2c1.5-.7,3-1.4,4.4-2v-.2c0,0,.2-.1.2-.1v.2c1.5-.7,3-1.4,4.4-2v-.2c0,0,.2-.1.2-.1v.2c1.5-.7,3-1.4,4.4-2l-.2-.4h.3c0-.1.2.3.2.3,1.5-.7,2.9-1.4,4.3-2h0c0-.1.3-.3.3-.3h0c1.5-.6,2.9-1.3,4.3-1.9l-.2-.4h.3c0-.1.2.2.2.2,1.5-.7,3-1.4,4.3-2l-.2-.4h.3c0-.1.2.2.2.2,1.5-.7,3-1.4,4.3-2l-.2-.4h.3c0-.1.2.2.2.2,1.6-.8,3.1-1.4,4.3-2v-.3c-.1,0,.2-.1.2-.1v.3c2-.9,3.2-1.4,3.8-1.7,0-.2-.2-.4-.3-.6-6.1,2.8-75.4,35.1-79.3,37.5-3.4,2-4.9,3.3-5.6,4.9Z"/>
      <path class="cls-21" d="M198.6,120.6l-.3-.6s0,0,0,0c.1.2.2.4.3.6,0,0,0,0,0,0Z"/>
      <path class="cls-21" d="M112.9,165.3s0,0,0-.2l-.4.2h.3Z"/>
      <path class="cls-21" d="M198.3,120.8c.2,0,.3-.1.3-.2,0-.2-.2-.4-.3-.6,0,0-.2,0-.3.1.1.2.2.4.3.6Z"/>
      <path class="cls-21" d="M112.3,165.1c0,.1,0,.2,0,.2h.4s.4-.1.4-.1c0-.1,0-.2,0-.4l-.8.4Z"/>
      <path class="cls-21" d="M108.7,144.2c-4.9,4.4-6.2,8.3-6.5,9.8h.3c.3-1.4,1.5-5.2,6.4-9.6,4.7-4.3,20-10.9,20.2-11,.5-.2,49.8-22.7,55.3-25.1l-.3-.2c-6.3,2.8-54.7,24.8-55.2,25.1-.2,0-15.5,6.8-20.3,11.1Z"/>
      <path class="cls-21" d="M184.5,107.8s0,0,0,0h.2c0,.1,0,0,0,0Z"/>
      <path class="cls-21" d="M184.4,108.3c.1,0,.2,0,.3-.1v-.2c0,0-.2-.1-.2-.1,0,0-.2,0-.4.2l.3.2Z"/>
      <path class="cls-21" d="M115.8,160.3l1.2,2.5h.3c0-.1-1.2-2.7-1.2-2.7,0,0-.2.1-.3.2Z"/>
      <rect class="cls-21" x="117.1" y="163.1" width=".4" height="0" transform="translate(-57.3 63.8) rotate(-24.6)"/>
      <polygon class="cls-21" points="117 162.8 117.1 163.1 117.5 163 117.3 162.7 117 162.8"/>
      <path class="cls-21" d="M116,159.8h-.3c0,.1.2.5.2.5,0,0,.2-.1.3-.2v-.3Z"/>
      <path class="cls-21" d="M120.2,157.6l1.4,3.1h.3c0-.1-1.4-3.2-1.4-3.2-.1,0-.2.1-.3.2Z"/>
      <rect class="cls-21" x="121.8" y="160.9" width=".4" height="0" transform="translate(-56 65.5) rotate(-24.6)"/>
      <polygon class="cls-21" points="121.6 160.7 121.8 161 122.1 160.8 122 160.5 121.6 160.7"/>
      <path class="cls-21" d="M120.4,157.1h-.3c0,.1.2.5.2.5.1,0,.2-.1.3-.2v-.3Z"/>
      <path class="cls-21" d="M124.8,155.3l1.5,3.2h.3c0-.1-1.5-3.3-1.5-3.3-.1,0-.2.1-.3.2Z"/>
      <polygon class="cls-21" points="126.4 158.9 126.8 158.7 126.7 158.7 126.4 158.8 126.4 158.9"/>
      <polygon class="cls-21" points="126.3 158.5 126.4 158.8 126.7 158.7 126.6 158.3 126.3 158.5"/>
      <path class="cls-21" d="M125,155h-.3c0,.1.1.4.1.4.1,0,.2-.1.3-.2v-.2Z"/>
      <path class="cls-21" d="M129.4,153.1l1.5,3.2h.3c0-.1-1.5-3.4-1.5-3.4-.1,0-.2.1-.3.2Z"/>
      <polygon class="cls-21" points="131.1 156.7 131.4 156.6 131.4 156.5 131.1 156.6 131.1 156.7"/>
      <polygon class="cls-21" points="130.9 156.3 131.1 156.6 131.4 156.5 131.2 156.2 130.9 156.3"/>
      <path class="cls-21" d="M129.7,152.8h-.3c0,.1,0,.3,0,.3.1,0,.2-.1.3-.2h0Z"/>
      <path class="cls-21" d="M134.1,150.9l1.5,3.2h.3c0-.1-1.5-3.4-1.5-3.4-.1,0-.2.1-.3.2Z"/>
      <polygon class="cls-21" points="135.6 154.3 135.9 154.1 135.9 154 135.5 154.1 135.6 154.3"/>
      <path class="cls-21" d="M134.2,150.4h-.3c0,.1.2.5.2.5.1,0,.2,0,.3-.2l-.2-.4Z"/>
      <path class="cls-21" d="M138.7,148.7l1.5,3.3h.3c0-.1-1.5-3.4-1.5-3.4-.1,0-.2,0-.3.2Z"/>
      <polygon class="cls-21" points="140.3 152.1 140.6 152 140.5 151.8 140.2 152 140.3 152.1"/>
      <path class="cls-21" d="M138.8,148.2h-.3c0,.1.2.5.2.5.1,0,.2,0,.3-.2l-.2-.3Z"/>
      <path class="cls-21" d="M143.3,146.5l1.5,3.3h.3c0-.1-1.5-3.4-1.5-3.4-.1,0-.2,0-.3.2Z"/>
      <polygon class="cls-21" points="144.9 150 145.2 149.8 145.1 149.6 144.8 149.8 144.9 150"/>
      <path class="cls-21" d="M143.5,146.1h-.3c0,.1.1.5.1.5.1,0,.2,0,.3-.2v-.3Z"/>
      <path class="cls-21" d="M147.9,144.3l1.5,3.3h.3c0-.1-1.5-3.4-1.5-3.4-.1,0-.2,0-.3.1Z"/>
      <polygon class="cls-21" points="149.5 147.8 149.9 147.7 149.8 147.5 149.5 147.6 149.5 147.8"/>
      <path class="cls-21" d="M148.1,143.9h-.3c0,.1.1.4.1.4.1,0,.2,0,.3-.1v-.3Z"/>
      <path class="cls-21" d="M152.6,142.2l1.5,3.3h.3c0-.1-1.5-3.4-1.5-3.4-.1,0-.2,0-.3.1Z"/>
      <polygon class="cls-21" points="154.2 145.7 154.5 145.5 154.4 145.3 154.1 145.5 154.2 145.7"/>
      <path class="cls-21" d="M152.8,141.8h-.3c0,.1.1.4.1.4.1,0,.2,0,.3-.1v-.2Z"/>
      <path class="cls-21" d="M157.2,140l1.5,3.3h.3c0-.1-1.5-3.5-1.5-3.5-.1,0-.2,0-.3.1Z"/>
      <polygon class="cls-21" points="158.8 143.5 159.2 143.4 159 143.1 158.7 143.3 158.8 143.5"/>
      <path class="cls-21" d="M157.4,139.6h-.3c0,.1,0,.4,0,.4.1,0,.2,0,.3-.1v-.2Z"/>
      <path class="cls-21" d="M161.8,137.8l1.5,3.3h.3c0-.1-1.5-3.5-1.5-3.5-.1,0-.2,0-.3.1Z"/>
      <polygon class="cls-21" points="163.5 141.4 163.8 141.2 163.7 141 163.4 141.1 163.5 141.4"/>
      <path class="cls-21" d="M162.1,137.5h-.3c0,.1,0,.3,0,.3.1,0,.2,0,.3-.1v-.2Z"/>
      <path class="cls-21" d="M166.5,135.6l1.5,3.3h.3c0-.1-1.5-3.5-1.5-3.5-.1,0-.2,0-.3.1Z"/>
      <rect class="cls-21" x="168.1" y="138.8" width=".4" height=".3" transform="translate(-42.6 82.8) rotate(-24.6)"/>
      <path class="cls-21" d="M166.7,135.3h-.3c0,.1,0,.3,0,.3.1,0,.2,0,.3-.1v-.2Z"/>
      <path class="cls-21" d="M171.1,133.5l1.5,3.3h.3c0-.1-1.5-3.5-1.5-3.5-.1,0-.2,0-.3.1Z"/>
      <rect class="cls-21" x="172.8" y="137" width=".4" height="0" transform="translate(-41.4 84.6) rotate(-24.6)"/>
      <polygon class="cls-21" points="172.6 136.8 172.8 137.1 173.1 136.9 173 136.6 172.6 136.8"/>
      <path class="cls-21" d="M171.2,132.9h-.3c0,.1.2.6.2.6.1,0,.2,0,.3-.1l-.2-.4Z"/>
      <path class="cls-21" d="M175.8,131.3l1.5,3.3h.3c0-.1-1.5-3.5-1.5-3.5-.1,0-.2,0-.3.1Z"/>
      <polygon class="cls-21" points="177.4 134.9 177.8 134.8 177.7 134.8 177.4 134.9 177.4 134.9"/>
      <polygon class="cls-21" points="177.3 134.6 177.4 134.9 177.7 134.8 177.6 134.4 177.3 134.6"/>
      <path class="cls-21" d="M176,131h-.3c0,.1,0,.3,0,.3.1,0,.2,0,.3-.1h0Z"/>
      <path class="cls-21" d="M180.4,129.1l1.5,3.3h.3c0-.1-1.5-3.5-1.5-3.5-.1,0-.2,0-.3.1Z"/>
      <rect class="cls-21" x="182.1" y="132.7" width=".4" height="0" transform="translate(-38.8 88.3) rotate(-24.7)"/>
      <polygon class="cls-21" points="181.9 132.4 182.1 132.7 182.4 132.6 182.2 132.3 181.9 132.4"/>
      <path class="cls-21" d="M180.5,128.6h-.3c0,.1.2.5.2.5.1,0,.2,0,.3-.1l-.2-.4Z"/>
      <path class="cls-21" d="M185,126.9l1.5,3.3h.3c0-.1-1.5-3.4-1.5-3.4-.1,0-.2,0-.3.1Z"/>
      <rect class="cls-21" x="186.7" y="130.5" width=".4" height="0" transform="translate(-37.4 90.1) rotate(-24.7)"/>
      <polygon class="cls-21" points="186.6 130.2 186.7 130.6 187 130.4 186.9 130.1 186.6 130.2"/>
      <path class="cls-21" d="M185.2,126.4h-.3c0,.1.2.5.2.5.1,0,.2,0,.3-.1l-.2-.4Z"/>
      <path class="cls-21" d="M189.7,124.8l1.5,3.3h.3c0-.1-1.5-3.4-1.5-3.4-.1,0-.2,0-.3.1Z"/>
      <rect class="cls-21" x="191.3" y="128.3" width=".4" height=".1" transform="translate(-36.1 91.8) rotate(-24.7)"/>
      <polygon class="cls-21" points="191.2 128.1 191.3 128.4 191.7 128.2 191.5 127.9 191.2 128.1"/>
      <path class="cls-21" d="M189.8,124.3h-.3c0,.1.2.5.2.5.1,0,.2,0,.3-.1l-.2-.4Z"/>
      <path class="cls-21" d="M194.3,122.6l1.5,3.3h.3c0-.1-1.5-3.4-1.5-3.4-.1,0-.2,0-.3.1Z"/>
      <rect class="cls-21" x="196" y="126.1" width=".4" height=".1" transform="translate(-34.8 93.5) rotate(-24.7)"/>
      <polygon class="cls-21" points="195.8 125.9 196 126.2 196.3 126.1 196.1 125.7 195.8 125.9"/>
      <path class="cls-21" d="M194.5,122.1h-.3c0,.1.1.5.1.5.1,0,.2,0,.3-.1v-.3Z"/>
    </g>
  </g>
</svg>