<?xml version="1.0" encoding="UTF-8"?>
<svg id="Layer_1" data-name="Layer 1" xmlns="http://www.w3.org/2000/svg" version="1.1" viewBox="0 0 57.6 51.5">
  <defs>
    <style>
      .cls-1 {
        fill: #000;
        stroke-width: 0px;
      }

      .cls-2 {
        fill: none;
        stroke: #000;
        stroke-miterlimit: 10;
        stroke-width: 1.3px;
      }
    </style>
  </defs>
  <path class="cls-2" d="M40.6,22.1c1.1,2,1.1,4.4,0,6.4l-1.6,2.9-1.6,2.9c-1.1,2-3.2,3.2-5.4,3.2h-3.2s-3.2,0-3.2,0c-2.2,0-4.3-1.2-5.4-3.2l-1.6-2.9-1.6-2.9c-1.1-2-1.1-4.4,0-6.4l1.6-2.9,1.6-2.9c1.1-2,3.2-3.2,5.4-3.2h3.2s3.2,0,3.2,0c2.2,0,4.3,1.2,5.4,3.2l1.6,2.9,1.6,2.9Z"/>
  <ellipse class="cls-1" cx="25.2" cy="18.6" rx="1" ry=".9"/>
  <ellipse class="cls-1" cx="28.8" cy="18.6" rx="1" ry=".9"/>
  <ellipse class="cls-1" cx="32.5" cy="18.6" rx="1" ry=".9"/>
  <ellipse class="cls-1" cx="23.3" cy="21.9" rx="1" ry=".9"/>
  <ellipse class="cls-1" cx="27" cy="21.9" rx="1" ry=".9"/>
  <ellipse class="cls-1" cx="30.7" cy="21.9" rx="1" ry=".9"/>
  <ellipse class="cls-1" cx="34.4" cy="21.9" rx="1" ry=".9"/>
  <ellipse class="cls-1" cx="21.5" cy="25.1" rx="1" ry=".9"/>
  <ellipse class="cls-1" cx="25.2" cy="25.1" rx="1" ry=".9"/>
  <ellipse class="cls-1" cx="28.8" cy="25.1" rx="1" ry=".9"/>
  <ellipse class="cls-1" cx="32.5" cy="25.1" rx="1" ry=".9"/>
  <ellipse class="cls-1" cx="36.2" cy="25.1" rx="1" ry=".9"/>
  <ellipse class="cls-1" cx="23.3" cy="28.4" rx="1" ry=".9"/>
  <ellipse class="cls-1" cx="27" cy="28.4" rx="1" ry=".9"/>
  <ellipse class="cls-1" cx="30.7" cy="28.4" rx="1" ry=".9"/>
  <ellipse class="cls-1" cx="34.4" cy="28.4" rx="1" ry=".9"/>
  <ellipse class="cls-1" cx="25.2" cy="31.7" rx="1" ry=".9"/>
  <ellipse class="cls-1" cx="28.8" cy="31.7" rx="1" ry=".9"/>
  <ellipse class="cls-1" cx="32.5" cy="31.7" rx="1" ry=".9"/>
  <path class="cls-1" d="M44.4,9.3l-.5.5.5-.5ZM13.2,9.3l-.5-.5.5.5ZM6.3,25.4c.3.3.7.3.9,0l4.3-4.3c.3-.3.3-.7,0-.9-.3-.3-.7-.3-.9,0l-3.8,3.8-3.8-3.8c-.3-.3-.7-.3-.9,0-.3.3-.3.7,0,.9l4.3,4.3ZM51.5,24.9c0-6-2.4-11.8-6.7-16.1l-.9.9c4,4,6.3,9.5,6.3,15.1h1.3ZM44.9,8.8c-4.3-4.3-10-6.7-16.1-6.7v1.3c5.7,0,11.1,2.3,15.1,6.3l.9-.9ZM28.8,2.2c-6,0-11.8,2.4-16.1,6.7l.9.9c4-4,9.4-6.3,15.1-6.3v-1.3ZM12.7,8.8c-4.3,4.3-6.7,10-6.7,16.1h1.3c0-5.7,2.3-11.1,6.3-15.1l-.9-.9Z"/>
  <path class="cls-1" d="M44.4,42.2l-.5-.5.5.5ZM51.3,26.1c-.3-.3-.7-.3-.9,0l-4.3,4.3c-.3.3-.3.7,0,.9.3.3.7.3.9,0l3.8-3.8,3.8,3.8c.3.3.7.3.9,0,.3-.3.3-.7,0-.9l-4.3-4.3ZM6.1,26.6c0,6,2.4,11.8,6.7,16.1l.9-.9c-4-4-6.3-9.5-6.3-15.1h-1.3ZM12.7,42.7c4.3,4.3,10,6.7,16.1,6.7v-1.3c-5.7,0-11.1-2.3-15.1-6.3l-.9.9ZM28.8,49.3c6,0,11.8-2.4,16.1-6.7l-.9-.9c-4,4-9.4,6.3-15.1,6.3v1.3ZM44.9,42.7c4.3-4.3,6.7-10,6.7-16.1h-1.3c0,5.7-2.3,11.1-6.3,15.1l.9.9Z"/>
</svg>