<?xml version="1.0" encoding="UTF-8"?>
<svg id="Layer_1" data-name="Layer 1" xmlns="http://www.w3.org/2000/svg" version="1.1" viewBox="0 0 360 360">
  <defs>
    <style>
      .cls-1 {
        fill: #fff;
        stroke-width: 0px;
      }
    </style>
  </defs>
  <path class="cls-1" d="M180,303.1c-7.1,0-14.2-1.8-20.6-5.5l-70.7-40.8c-12.7-7.3-20.6-20.9-20.6-35.6v-84.1c0-13.1,7-25.3,18.4-31.8,2.6-1.5,5.9-.6,7.3,2,1.5,2.6.6,5.8-2,7.3-8,4.6-13,13.3-13,22.5v84.1c0,10.8,5.8,20.9,15.2,26.3l70.7,40.8c9.3,5.4,21,5.4,30.4,0l72.9-42.1c6.6-3.8,11.1-10.2,12.6-17.7.3-1.6.5-3.2.5-4.9v-84.1c0-10.8-5.8-20.9-15.2-26.3l-72.9-42.1c-8-4.6-18-4.6-26,0l-32.4,18.4c-8.9,6.1-13.9,13.1-14.9,21-1.4,11,5.3,19.9,8.2,23.2,5.4,6.1,13.3,13.7,18.7,16.9,5.5,3.3,13.3,6.9,20.2,8.5-.2-8.3,0-28.8.9-35.2,1.4-9.5,4.7-16.4,10.2-21.3,9.7-8.6,25.9-8.4,36.1.4,8.7,7.5,12.6,20.2,9.9,32.1-2.2,9.7-8.3,18.6-17.4,25.2-6.1,4.4-15.3,7.8-21.3,8.9-2.4.4-5.1.7-7.6.9.1,12.1.2,32.6.1,43.7.6.3,1.1.7,1.7,1,8.5,5.1,19,11.5,30.5,16.1,5.5,2.2,10.7,3.8,15.7,4.9,2.9.6,4.7,3.4,4.2,6.3-.6,2.9-3.5,4.7-6.3,4.2-5.6-1.1-11.5-3-17.5-5.4-11.1-4.5-21.1-10.3-29.3-15.3-3.3,12.1-13.8,22.2-26.6,24.8-6,1.2-11.8.7-16.7-1.4-7.3-3.2-12.6-10.5-13.5-18.4-1.2-10.2,5.1-20.7,14.9-24.9,8-3.5,17.6-3.3,28.6.4,1.2.4,2.5,1,3.9,1.6,0-10.2,0-25-.1-37.8-11.1-1.9-22.4-8.1-25.8-10.2-6.9-4.1-15.8-12.8-21.3-19.1-8.2-9.3-12.2-20.8-10.8-31.6,1-7.6,5.2-18.8,19.7-28.6l.4-.2,32.5-18.5c11.3-6.5,25.4-6.5,36.7,0l72.9,42.1c12.7,7.3,20.6,20.9,20.6,35.6v84.1c0,2.3-.2,4.6-.6,6.9-2,10.5-8.5,19.6-17.7,24.9l-72.9,42.1c-6.4,3.7-13.5,5.5-20.6,5.5h0ZM147.2,214c-3.1,0-5.9.5-8.3,1.6-5.4,2.4-9.1,8.5-8.5,13.9.5,4.2,3.4,8.1,7.2,9.8,2.8,1.2,6.5,1.5,10.2.7,9.8-2,18-10.7,19.1-20.2-2.9-1.6-5.3-2.9-7.1-3.5-4.6-1.6-8.8-2.4-12.6-2.4ZM195.3,107c-3.9,0-7.6,1.2-10.4,3.7-3.5,3.1-5.7,8-6.7,14.8-.8,5.5-1,26.1-.8,34,2-.1,4-.4,5.8-.7,4.7-.9,12.3-3.7,16.9-7,6.9-5,11.6-11.7,13.2-18.9,1.9-8.2-.7-16.7-6.5-21.7-3.2-2.8-7.5-4.2-11.6-4.2h0Z"/>
  <path class="cls-1" d="M180,326.5c-80.8,0-146.5-65.7-146.5-146.5S99.2,33.5,180,33.5s146.5,65.7,146.5,146.5-65.7,146.5-146.5,146.5ZM180,42.7c-75.7,0-137.3,61.6-137.3,137.3s61.6,137.3,137.3,137.3,137.3-61.6,137.3-137.3S255.7,42.7,180,42.7Z"/>
</svg>