<?xml version="1.0" encoding="UTF-8"?>
<svg id="Layer_1" data-name="Layer 1" xmlns="http://www.w3.org/2000/svg" xmlns:xlink="http://www.w3.org/1999/xlink" version="1.1" viewBox="0 0 612 612">
  <defs>
    <style>
      .cls-1 {
        clip-path: url(#clippath);
      }

      .cls-2 {
        fill: none;
      }

      .cls-2, .cls-3 {
        stroke-width: 0px;
      }

      .cls-4 {
        opacity: .7;
      }

      .cls-3 {
        fill: #fff;
      }
    </style>
    <clipPath id="clippath">
      <rect class="cls-2" y="0" width="612" height="612"/>
    </clipPath>
  </defs>
  <g class="cls-1">
    <g class="cls-4">
      <path class="cls-3" d="M306,528.7c-13.4,0-26.8-3.4-38.7-10.4l-133.3-76.9c-23.9-13.8-38.7-39.5-38.7-67.1v-158.6c0-24.7,13.2-47.7,34.6-60,4.8-2.8,11-1.1,13.8,3.7,2.8,4.8,1.1,11-3.7,13.8-15.1,8.7-24.5,25-24.5,42.5v158.6c0,20.4,11,39.4,28.6,49.6l133.3,76.9c17.6,10.2,39.6,10.2,57.2,0l137.3-79.3c12.4-7.1,21-19.3,23.7-33.4.6-3,.9-6.1.9-9.2v-158.6c0-20.4-11-39.4-28.7-49.6l-137.4-79.3c-15.1-8.7-34-8.7-49.1,0l-61.1,34.8c-16.8,11.4-26.2,24.7-28.1,39.5-2.6,20.7,10,37.5,15.5,43.7,10.2,11.6,25.1,25.9,35.3,31.9,10.4,6.2,25,13,38,15.9-.3-15.7,0-54.3,1.7-66.4,2.6-17.8,8.9-30.9,19.2-40.1,18.2-16.2,48.8-15.9,68.1.8,16.4,14.2,23.7,38,18.6,60.6-4.1,18.2-15.7,35.1-32.8,47.4-11.5,8.3-28.9,14.7-40.1,16.7-4.4.8-9.5,1.3-14.3,1.7.2,22.7.5,61.5.2,82.4,1.1.6,2.1,1.3,3.2,1.9,15.9,9.7,35.8,21.7,57.4,30.4,10.3,4.1,20.2,7.2,29.6,9.1,5.4,1.1,8.9,6.5,7.9,11.9-1.1,5.4-6.5,8.9-11.9,7.9-10.6-2.2-21.7-5.6-33-10.2-20.8-8.4-39.7-19.4-55.3-28.8-6.2,22.8-26.1,41.8-50.2,46.8-11.4,2.4-22.3,1.4-31.5-2.7-13.8-6.1-23.7-19.7-25.5-34.7-2.2-19.2,9.6-38.9,28-47,15-6.5,33.2-6.3,53.9.8,2.3.7,4.7,1.8,7.3,3.1,0-19.2,0-47.1-.3-71.2-20.8-3.5-42.2-15.3-48.6-19.2-12.9-7.7-29.7-24.1-40.1-36-15.5-17.6-22.9-39.3-20.4-59.7,1.8-14.4,9.8-35.4,37.2-53.9l.7-.4,61.3-34.9c21.3-12.3,47.9-12.3,69.2,0l137.4,79.3c23.9,13.8,38.7,39.5,38.7,67.1v158.6c0,4.4-.4,8.7-1.2,13-3.8,19.8-15.9,36.9-33.4,47l-137.3,79.3c-12,6.9-25.4,10.4-38.7,10.4h0ZM244.1,360.9c-5.8,0-11.1,1-15.7,3-10.2,4.4-17.2,15.9-16,26.2.9,7.9,6.4,15.3,13.6,18.6,5.3,2.4,12.2,2.9,19.2,1.4,18.5-3.8,33.9-20.2,35.9-38.1-5.4-3.1-10-5.5-13.3-6.7-8.7-3-16.6-4.4-23.7-4.4ZM334.9,159.2c-7.3,0-14.4,2.3-19.6,6.9-6.6,5.9-10.8,15-12.6,27.8-1.5,10.4-1.8,49.2-1.5,64.2,3.7-.3,7.6-.7,11-1.3,8.9-1.6,23.2-7,31.8-13.2,13-9.5,21.9-22.1,25-35.6,3.5-15.5-1.3-31.5-12.2-40.9-6.1-5.2-14.1-7.9-21.9-7.9h0Z"/>
      <path class="cls-3" d="M306,612C137.3,612,0,474.7,0,306S137.3,0,306,0s306,137.3,306,306-137.3,306-306,306ZM306,20.2C148.4,20.2,20.2,148.4,20.2,306s128.3,285.8,285.8,285.8,285.8-128.3,285.8-285.8S463.6,20.2,306,20.2Z"/>
    </g>
  </g>
</svg>