<?xml version="1.0" encoding="UTF-8"?>
<svg id="Layer_1" data-name="Layer 1" xmlns="http://www.w3.org/2000/svg" xmlns:xlink="http://www.w3.org/1999/xlink" version="1.1" viewBox="0 0 744.5 810.4">
  <defs>
    <style>
      .cls-1 {
        stroke-width: .5px;
      }

      .cls-1, .cls-2, .cls-3, .cls-4, .cls-5, .cls-6, .cls-7, .cls-8, .cls-9, .cls-10, .cls-11, .cls-12, .cls-13, .cls-14, .cls-15, .cls-16, .cls-17, .cls-18 {
        fill: none;
      }

      .cls-1, .cls-2, .cls-6, .cls-19, .cls-9, .cls-10, .cls-14 {
        stroke-miterlimit: 10;
      }

      .cls-1, .cls-8, .cls-19, .cls-9, .cls-10, .cls-17 {
        stroke: #4352a4;
      }

      .cls-2 {
        stroke: #000;
        stroke-width: .9px;
      }

      .cls-3 {
        stroke-opacity: .8;
      }

      .cls-3, .cls-5, .cls-6, .cls-7, .cls-11, .cls-12, .cls-13, .cls-15, .cls-16, .cls-18 {
        stroke: #fff;
      }

      .cls-3, .cls-12 {
        stroke-width: 2px;
      }

      .cls-20 {
        clip-path: url(#clippath);
      }

      .cls-4, .cls-21, .cls-22, .cls-23, .cls-24, .cls-25, .cls-26 {
        stroke-width: 0px;
      }

      .cls-5 {
        stroke-opacity: .5;
      }

      .cls-5, .cls-7, .cls-13, .cls-15 {
        stroke-width: 1.7px;
      }

      .cls-27 {
        mask: url(#mask);
      }

      .cls-6 {
        stroke-width: 2px;
      }

      .cls-7 {
        stroke-opacity: .2;
      }

      .cls-21 {
        fill: url(#linear-gradient);
      }

      .cls-22 {
        fill: url(#radial-gradient);
      }

      .cls-23 {
        fill: #4352a4;
      }

      .cls-8, .cls-19, .cls-10, .cls-17 {
        stroke-width: 1.5px;
      }

      .cls-8, .cls-14 {
        stroke-linecap: round;
      }

      .cls-19, .cls-26 {
        fill: #fff;
      }

      .cls-28 {
        clip-path: url(#clippath-1);
      }

      .cls-29 {
        clip-path: url(#clippath-2);
      }

      .cls-11 {
        stroke-width: 2.7px;
      }

      .cls-13 {
        stroke-opacity: .6;
      }

      .cls-24 {
        fill: #dad9d9;
      }

      .cls-25 {
        fill: url(#radial-gradient-2);
      }

      .cls-14 {
        stroke: #ee2625;
        stroke-width: 1.8px;
      }

      .cls-15 {
        stroke-opacity: .7;
      }

      .cls-16 {
        stroke-width: 2.3px;
      }

      .cls-30 {
        mask: url(#mask-3);
      }

      .cls-31 {
        mask: url(#mask-2);
      }

      .cls-32 {
        mask: url(#mask-1);
      }

      .cls-18 {
        stroke-width: 3px;
      }
    </style>
    <linearGradient id="linear-gradient" x1="370" y1="709.3" x2="370" y2="-114.7" gradientTransform="translate(0 703) scale(1 -1)" gradientUnits="userSpaceOnUse">
      <stop offset="0" stop-color="#feefeb"/>
      <stop offset="1" stop-color="#efe0ee"/>
    </linearGradient>
    <clipPath id="clippath">
      <rect class="cls-4" x="172.5" y="131.3" width="357.2" height="133.7"/>
    </clipPath>
    <mask id="mask" x="240.4" y="-23.3" width="211.3" height="262.1" maskUnits="userSpaceOnUse">
      <g id="mask0_615_1539" data-name="mask0 615 1539">
        <ellipse class="cls-24" cx="346" cy="159.2" rx="105.7" ry="79.6"/>
      </g>
    </mask>
    <clipPath id="clippath-1">
      <rect class="cls-4" x="248.7" y="-22.9" width="139.6" height="231.3"/>
    </clipPath>
    <radialGradient id="radial-gradient" cx="65.5" cy="702" fx="65.5" fy="702" r="1" gradientTransform="translate(-108079.9 -9659) rotate(90.2) scale(151.1 -154.5)" gradientUnits="userSpaceOnUse">
      <stop offset="0" stop-color="#dad9d9"/>
      <stop offset="1" stop-color="#737474" stop-opacity="0"/>
    </radialGradient>
    <mask id="mask-1" x="139.3" y="347.8" width="439.6" height="391.7" maskUnits="userSpaceOnUse">
      <g id="mask1_615_1539" data-name="mask1 615 1539">
        <ellipse class="cls-22" cx="349.2" cy="546.4" rx="132.7" ry="129.8"/>
      </g>
    </mask>
    <mask id="mask-2" x="139.4" y="348.3" width="439.3" height="390.8" maskUnits="userSpaceOnUse">
      <g id="mask2_615_1539" data-name="mask2 615 1539">
        <path class="cls-2" d="M433.2,738.6c-25.2-10.6-48.1-26.4-72.7-38.3-6.5-3.2-13.5-5.7-19.9-9.2-9.8-5.4-19.4-11.7-29.3-17.2-26.9-15.1-53.2-31-77.1-50.6-11-9.1-20.6-18.2-33.7-24.6-18.9-9.3-39.7-14-60.1-18.5"/>
        <path class="cls-2" d="M436.8,732.5c-27.2-9.4-51.5-26.2-77.3-38.8-16.7-8.2-32.5-17.6-48.8-26.6-26.3-14.6-52.5-29.3-76-48.3-10.9-8.9-20.6-17.6-33.5-23.8-19.4-9.3-40.7-14.1-61.5-19.1"/>
        <path class="cls-2" d="M440.6,725.9c-29.4-8.5-54.9-25.6-82.2-39.1-16.5-8.2-32.2-17.9-48.4-26.7-26-14.2-52.4-28-75.7-46.6-10.9-8.7-20.8-16.9-33.8-22.7-19.4-8.7-40.5-13.6-61-19.1"/>
        <path class="cls-2" d="M444.5,719.1c-31.4-7.8-58.1-24.5-86.7-38.9-16.5-8.3-32.1-18.3-48.4-27.1-25-13.6-52.4-25.8-74.4-44.1-10.6-8.8-21.1-16.3-33.9-21.7-19.7-8.4-40.7-13.6-61.2-19.6"/>
        <path class="cls-2" d="M448.3,712.3c-50.9-11.1-94-41.8-139.2-66.1-24.7-13.3-51.9-24.8-73.7-42.7-26.8-22-62.2-29.3-94.4-39.7"/>
        <path class="cls-2" d="M451.9,705.4c-21.1-4.1-41.4-10.2-60.5-20.2-11.3-5.9-22.5-12.1-33.8-18-16.5-8.6-32-19.1-48.5-27.9-24.6-13.1-50.2-24.8-72.9-41-27.8-19.8-62-27.5-93.7-38.7"/>
        <path class="cls-2" d="M455.2,698.8c-21.9-3.8-43.1-9.6-63.1-19.5-11.6-5.7-22.9-12.3-34.4-18.4-16.4-8.7-31.7-19.4-48.2-28.1-24.4-12.8-49.2-24.6-72.4-39.3-28.2-17.9-62-26-92.8-38"/>
        <path class="cls-2" d="M458.1,692.4c-22.4-3.5-44.3-9.1-64.9-18.8-11.8-5.6-23.2-12.4-34.7-18.7-6.9-3.8-13.1-8.8-19.8-12.9-9.1-5.6-18.6-10.6-28.1-15.6-24-12.6-48.3-24.5-71.9-37.7-9.3-5.2-19-9.2-28.9-13-21.2-8-42.4-15.9-63.3-24.7"/>
        <path class="cls-2" d="M460.6,686.4c-22.8-3.3-45.1-8.5-66.1-18.2-11.7-5.5-23.2-12-34.3-18.7-7-4.2-13.4-9.5-20.4-13.8-8.9-5.5-18.3-10.4-27.6-15.3-23.5-12.2-47.2-25-71.3-36-9-4.1-18.3-7.6-27.5-11.2-21.5-8.2-42.4-17.5-63.7-26.2"/>
        <path class="cls-2" d="M462.6,680.7c-36.4-5-70.4-16.3-100.9-37.2-15.4-10.6-30.6-20.3-47.3-28.9-12.4-6.4-25-12.5-37.6-18.6-10.8-5.2-21.1-11.3-32.4-15.5-30.9-11.5-61-24-91-37.6"/>
        <path class="cls-2" d="M464.1,675.4c-36.7-4.8-69.5-15.9-99.7-37.3-15.2-10.8-30.5-20.5-47.1-29-22.4-11.5-45.2-24.2-69.2-32.1-31-10.1-60.7-23.3-89.8-38.1"/>
        <path class="cls-2" d="M465.1,670.5c-21.5-2.7-42.9-6.9-62.7-16-12.1-5.6-23.1-13-33.9-20.8-15.5-11.1-30.9-21.2-47.9-29.9-22.2-11.4-44.6-22.8-68.6-29.8-31-9.1-58.2-25.8-87.9-38.1"/>
        <path class="cls-2" d="M465.6,666c-21.2-2.7-42.6-6.7-61.9-16.3-11.9-5.9-22.4-13.9-33.1-21.7-14.9-10.9-29.9-20.7-46.4-29.1-22.2-11.3-44.3-20.8-68.3-27.3-30.5-8.3-56.9-26.7-86.3-38.1"/>
        <path class="cls-2" d="M465.6,661.9c-20.5-2.7-41.4-6.5-59.8-16.6-11.1-6.1-21.1-14.3-31.3-21.8-14.9-11-30-20.9-46.5-29.4-11.3-5.8-22.7-11.2-34.6-15.5-10.8-3.9-22-6.1-33-9-11.1-2.8-21-7.4-31-12.9-17.7-9.7-35.7-18.7-54.6-25.7"/>
        <path class="cls-2" d="M465.3,658c-19-2.6-39-6.2-55.6-16.3-11.1-6.8-21.2-15.4-31.6-23.2-14.6-11-29.8-20.8-46-29.1-11-5.6-22.1-10.5-34-13.9-11.5-3.3-23.5-4.8-35.1-7.9-11.4-3-21.6-8.4-31.6-14.6-16.2-10.1-33.9-17.9-51.9-24.3"/>
        <path class="cls-2" d="M464.6,654.2c-18.4-2.7-36.9-6.5-52.3-17.4-10.7-7.6-20.9-15.9-31.3-23.9-14.2-10.8-29.4-20.1-45.2-28.3-11-5.6-22.5-9.6-34.6-12.2-11.3-2.4-23-3.3-34.2-6.3-12.8-3.4-23.4-10.3-34.5-17.3-15.4-9.7-32-16.8-49.2-22.8"/>
        <path class="cls-2" d="M463.7,650.5c-17.7-3-33-7.4-47.6-18.1-10.4-7.6-20.3-16.1-30.5-24-14.5-11.1-30.3-20.4-46.5-28.7-21.7-11-46-8.6-68.9-14.9-13.8-3.8-24.9-12.2-37-19.6-14.9-9.2-30-16.1-46.6-21.9"/>
        <path class="cls-2" d="M462.7,646.8c-8.6-1.7-17.3-3.6-25.3-7.2-6.8-3.1-12.8-8-18.7-12.6-10.3-8-20-16.5-30.3-24.5-14.2-10.9-30.5-20.8-47-27.8-22.1-9.4-46.7-4.4-69.2-11.4-13.4-4.2-25.1-12.8-36.7-20.5-14.7-9.8-29.8-16.5-46.4-22.3"/>
        <path class="cls-2" d="M462.6,642.9c-8-1.9-16.2-3.7-23.3-8.1-6.3-3.9-12.3-8.8-18-13.5-10.1-8.2-19.8-17-30.2-24.9-13.9-10.7-31-21.1-47.9-26.2-22.1-6.8-45.8-.7-67.8-7.8-14.6-4.7-27-14.6-39.4-23.3-13.9-9.7-29.2-16-45-21.7"/>
        <path class="cls-2" d="M463.3,639.1c-8-2.5-15-5.2-21.9-10.1-6-4.3-11.7-8.8-17.3-13.5-10-8.4-19.6-17.3-29.9-25.2-14.3-11-31.8-21-49.6-24.8-22.3-4.7-45.4,3.2-67.3-4.7-14.7-5.3-26.7-15.6-39.4-24.3-14.2-9.7-29.6-17.2-45.8-22.8"/>
        <path class="cls-2" d="M464.9,635.6c-43.5-17.9-68.8-69.5-119-74.4-22.2-2.2-44.2,6.7-65.9-1.6-14.7-5.6-26.5-16.1-39.3-24.9-14.6-10.1-30.3-18-46.8-24.4"/>
        <path class="cls-2" d="M467.3,632c-40.9-21.2-69.2-75.7-120.3-74.8-22.6.4-44.6,9.8-66.5,0-14.1-6.3-25.4-16.5-37.9-25.2-14.6-10.2-30.3-18.3-46.7-25.2"/>
        <path class="cls-2" d="M470.7,628.4c-13.5-10-26.6-20.1-38.8-31.6-9.5-8.9-18.8-17.9-29.2-25.7-16.2-12.1-34.1-19.6-54.5-17.4-22.6,2.5-44.5,11.6-66.4,1.1-13.5-6.5-24.3-16.6-36.5-25.2-14.7-10.4-30.5-18.8-46.9-26.1"/>
        <path class="cls-2" d="M474.1,623.8c-14.3-10.1-27.3-21.2-39.8-33.5-9.1-8.9-18.4-17.9-28.6-25.5-7.9-5.8-16.8-11.1-26.2-14.2-9.7-3.1-20.5-2-30.3-.1-22.9,4.3-44.5,12.2-66.8,1.3-12.1-6-22.2-16-33.1-23.9-15.2-10.9-31.4-19.8-48.3-27.8"/>
        <path class="cls-2" d="M477.1,619.4c-14.9-10.8-28.5-22.8-41.2-36-8.9-9.2-18.1-18.2-28.5-25.7-7.6-5.4-16.8-11.1-26.1-12.7-10.5-1.8-20.8.3-30.9,2.9-21.7,5.4-44.3,12.4-65.4,1.3-12.2-6.4-22.6-16.9-33.8-24.9-14.8-10.5-30.5-19.4-46.8-27.3"/>
        <path class="cls-2" d="M479.8,614.9c-15.3-11.3-29.2-23.8-42.1-37.8-8.8-9.5-17.5-18.6-28.1-26-8.1-5.6-17-10.6-26.9-11.3-10.7-.7-21,2.6-31.2,5.6-21,6.2-44.8,12-64.9-.4-11.3-7-21.4-16.1-32.2-23.8-14.7-10.5-30.3-19.4-46.4-27.7"/>
        <path class="cls-2" d="M482.1,610.2c-15.7-11.8-30-24.8-43.1-39.4-8.3-9.3-16.2-18.6-26.7-25.6-8.6-5.8-17.4-10.2-28-9.9-10.9.4-21.4,4.7-31.6,8.1-21.7,7.1-42.9,9.6-63.3-2.7-11-6.6-20.7-15-31.1-22.5-14.7-10.6-30.3-19.6-46.3-28"/>
        <path class="cls-2" d="M483.9,605.4c-15.9-12-30.4-25.2-43.5-40.2-8.1-9.2-15.6-19.3-26-26.1-9-5.9-18-9.2-28.8-7.6-11,1.6-21.3,6.5-31.7,10.1-10.3,3.5-21,6.2-31.9,5.4-11.3-.9-20.8-5.7-30.4-11.4-10.5-6.2-20-13.9-29.9-21-14.5-10.4-29.8-19.4-45.5-27.9"/>
        <path class="cls-2" d="M485.3,600.5c-16.1-12.2-30.8-25.6-44.1-40.9-7.5-8.7-14.6-18.8-24.1-25.5-20.4-14.5-41.4-1-61.8,5.9-10.3,3.5-21.2,5.8-32.1,3.8-11-1.9-20.3-7.9-29.6-13.7-9.6-6-18.5-12.6-27.7-19.2-14.4-10.2-29.5-19.2-44.9-27.8"/>
        <path class="cls-2" d="M486.1,595.3c-15.8-11.9-30.4-24.9-43.3-39.9-7.8-9.1-15-20.5-25.2-27.2-19.2-12.7-42.3,4.3-60.8,10.2-10.2,3.3-20.7,4.7-31.1,2-10.8-2.8-20.2-9.4-29.4-15.4-23.5-15.3-45.9-31.8-70.4-45.6"/>
        <path class="cls-2" d="M486.4,590c-15.3-11.3-29.5-23.7-42-38-7.7-8.8-14.9-21.5-25.2-27.4-19.9-11.4-41.9,7-60.9,12.5-23,6.6-40.3-4.2-58.8-16.7-22.7-15.4-44.8-31.1-68.7-44.7"/>
        <path class="cls-2" d="M486.3,584.5c-15.5-11.2-29.9-23.4-42.4-37.8-7.3-8.4-13.9-20.3-24.2-25.3-19.9-9.6-41,9.6-59.9,14.1-22.6,5.3-40.3-8.1-57.9-20.4-21.8-15.3-43.2-30.2-66.3-43.4"/>
        <path class="cls-2" d="M485.9,578.8c-15.4-10.8-29.8-22.6-42.2-36.8-7.4-8.4-13.4-19.3-24.3-23.5-9.2-3.6-18.3,0-26.9,3.6-10.1,4.4-20,9.8-31.1,11.6-22.2,3.7-41-12.4-57.9-24.6-20.6-14.9-40.9-29-63.1-41.5"/>
        <path class="cls-2" d="M485.2,573c-14.8-10-28.8-20.9-40.8-34.2-7.2-7.9-13.1-18.1-23.6-22.1-9.5-3.6-19.1,1-27.6,5-9.5,4.4-19.3,9.2-30,10-21.5,1.7-41.3-16.3-57.5-28.2-19.7-14.5-39.1-28-60.6-40"/>
        <path class="cls-2" d="M484.3,566.9c-14.8-9.4-28.8-19.8-40.7-32.8-6.7-7.3-12.9-16.5-22.9-19.5-9-2.7-17.8,2.1-25.7,5.9-9.6,4.5-19.3,9.1-30.2,8.9-11-.3-19.7-5.7-28.7-11.5-9.9-6.3-19.4-13.2-28.7-20.2-7.8-5.8-15.5-11.9-23.5-17.5-11-7.8-22.9-13.8-34.2-21"/>
        <path class="cls-2" d="M483.4,560.5c-14.1-8.4-27.6-17.7-39.1-29.5-6.7-6.9-13.6-16.4-23.6-18.5-8.4-1.8-16.6,2.9-24,6.3-9.6,4.5-19.4,9.1-30.2,7.4-10.9-1.6-20.2-8.3-29.2-14.3-9.7-6.4-19.1-13.3-28.4-20.3-8-6-15.8-12.2-24-17.8-9.9-6.9-20.8-12.2-30.6-19.2"/>
        <path class="cls-2" d="M483.3,554.2c-13.9-7.5-27.9-16-39.1-27.3-6.5-6.5-14.2-15.5-24-16.5-8.3-.8-16.3,4-23.6,7.2-8.9,3.9-18.6,7.4-28.3,5.1-10.1-2.4-19.4-9.8-27.8-15.5-10.1-6.8-19.8-14-29.5-21.3-8.1-6.1-16-12.3-24.4-18-9.2-6.2-19.1-11.1-27.8-18.2"/>
        <path class="cls-2" d="M485.3,548.7c-14.5-7.4-28.3-14.8-40.4-25.7-6.8-6.1-14.8-14.2-24.5-14.6-17.7-.7-32.1,15.9-50.7,9.7-9.9-3.3-19.3-10.9-27.8-16.8-10.2-7-20.2-14.4-30.1-21.9-8-6.1-16-12.3-24.5-17.8-8.5-5.5-17.4-9.8-24.5-17.2"/>
        <path class="cls-2" d="M489,543.8c-15.2-7.4-29.6-14.7-43.2-24.6-7.6-5.6-14.9-13.1-25-13.1-17.3-.1-32,13.6-49.7,6.2-21.3-8.9-40.3-25.8-58.6-39.5-8-6-16-12.2-24.5-17.5-7.9-5-15.5-9.1-21.4-16.5"/>
        <path class="cls-2" d="M494.3,539.6c-15.6-7.4-32.6-14.3-47-24-7.9-5.4-15.1-11.9-25.2-12.1-7.7-.1-15,2.9-22.5,4.4-9.2,1.8-18.2,1.9-26.9-1.8-22-9.6-41.4-26.5-60.6-40.7-7.9-5.8-15.8-11.6-24.2-16.8-7.2-4.5-13.2-8.5-17.9-15.8"/>
        <path class="cls-2" d="M501.1,536c-17.8-8.3-37.3-15.6-53.8-26.1-7.5-4.8-15.2-9.1-24.3-9.3-7.9-.2-15.7,2.2-23.6,2.6-9.1.5-16.9-.2-25.4-3.9-22.5-9.7-41.9-26.5-61.5-40.8-7.8-5.7-15.7-11.1-23.8-16.2-6.8-4.2-11.6-8.1-15.3-15.4"/>
        <path class="cls-2" d="M509.2,532.9c-19.9-9.1-39.9-17.9-59.5-27.5-8.2-4-16.3-7.7-25.6-8.2-17.2-.9-32.9,1.9-49.2-5.2-22.7-9.8-42.1-26.2-62.1-40.4-12.6-9-30.4-15.6-36.5-30.7"/>
        <path class="cls-2" d="M518.5,530.3c-22.2-10-44.2-21.1-67-29.9-8.8-3.4-17.7-6.2-27.2-7.1-16.8-1.7-33.2-2.2-48.9-9-22.7-9.9-42.1-25.5-62.3-39.5-12.4-8.6-29.3-14.5-34-30"/>
        <path class="cls-2" d="M528.8,528.1c-33.2-14.9-66.1-32.6-102.3-39-17.2-3.1-34.7-5.8-50.9-12.9-22.1-9.6-41.3-24.3-61.2-37.7-12.5-8.5-28.9-13.9-32.8-29.8"/>
        <path class="cls-2" d="M539.7,526.2c-35.9-17.8-72.9-31.4-111.5-41.6-17.7-4.7-36-9.1-52.8-16.6-21.5-9.5-40.5-23-60.1-35.8-12.6-8.2-28-13.4-31.4-29.3"/>
        <path class="cls-2" d="M549.3,523c-27.2-12.1-54.9-23.6-83.3-32.5-12.2-3.8-24.6-6.8-36.6-11.2-18.1-6.5-36.8-12-54.4-19.8-20.9-9.3-39.8-21.8-59.1-33.9-12.6-7.9-26.5-13.1-29.9-28.6"/>
        <path class="cls-2" d="M557.4,519.8c-28.1-11.2-55.9-22.7-84.8-31.7-13.5-4.2-27.4-7.4-40.2-13.4-19-8.9-39.2-15.1-58.3-23.8-19.6-8.9-38.8-19.6-56.9-31.3-12.6-8.2-25.6-12.9-29.6-28.4"/>
        <path class="cls-2" d="M564.6,516.6c-29.2-12-58.8-22.6-88.9-31.9-14.3-4.4-29.2-8.2-42.4-15.6-19-10.7-40.3-17.6-60.1-26.7-18.6-8.6-36.9-18.2-54.3-29-12.9-8-24.6-12.6-29.6-27.7"/>
        <path class="cls-2" d="M570.2,512.8c-29.4-11.4-59.3-21.5-89.4-31-16.3-5.2-31.5-10.8-46.7-18.6-20.4-10.5-41.3-19.7-62.1-29.5-17.9-8.5-35.1-18.3-52.8-27.2-12.6-6.4-22.8-13.4-28.6-26.5"/>
        <path class="cls-2" d="M574.5,508.9c-45.7-16.9-93.7-28.3-137.5-49.9-22.2-10.9-43.8-22.9-66.1-33.7-17-8.2-33.8-17.1-50.8-25.2-12.1-5.8-21.4-14-28.2-25.5"/>
        <path class="cls-2" d="M577.3,504.7c-30.3-10.7-61-20-91.4-30.4-15.9-5.4-31.7-11.7-46.4-20-23-12.9-46.1-25.5-69.8-37.3-27-13.4-57.6-23.1-76.6-47.7"/>
        <path class="cls-2" d="M578.5,500.1c-46.2-15.7-94.9-27.3-137.6-51.6-23.8-13.5-47.8-27-72.2-39.4-14.8-7.5-30-14.2-44.8-21.5-11.4-5.6-20.9-14.5-29.6-23.5"/>
        <path class="cls-2" d="M578.2,495.1c-29-9.5-58.4-18.1-87-28.8-17-6.4-32.6-14.4-48.4-23.1-25.1-13.7-49.6-28.4-74.9-41.8-13.6-7.1-27.6-13.1-41.2-19.9-11.4-5.7-21.5-14.4-31.2-22.6"/>
        <path class="cls-2" d="M576.2,489.6c-28.6-9.1-57.7-17.6-85.6-28.8-16.3-6.6-31.2-14.7-46.4-23.3-25.6-14.4-51-29.2-76.8-43.3-12.2-6.6-24.9-12.1-37.2-18.5-11.8-6.1-22.8-14.3-33.6-21.9"/>
        <path class="cls-2" d="M572.9,483.7c-27.3-8.5-54.9-16.8-81.4-27.9-15.3-6.4-29.2-14.5-43.5-22.9-26.7-15.6-53.8-30.4-80.8-45.6-23.2-13.1-46.5-25-69.4-38.7"/>
      </g>
    </mask>
    <radialGradient id="radial-gradient-2" cx="65" cy="703.4" fx="65" fy="703.4" r="1" gradientTransform="translate(-6686 32304.9) rotate(-1.2) scale(118.5 -44.9)" gradientUnits="userSpaceOnUse">
      <stop offset="0" stop-color="#ed2324"/>
      <stop offset="1" stop-color="#ed2324" stop-opacity="0"/>
    </radialGradient>
    <mask id="mask-3" x="60" y="402.1" width="436.5" height="297.4" maskUnits="userSpaceOnUse">
      <g id="mask3_615_1539" data-name="mask3 615 1539">
        <ellipse class="cls-24" cx="350.2" cy="550.8" rx="146.3" ry="148.7"/>
      </g>
    </mask>
    <clipPath id="clippath-2">
      <rect class="cls-4" x="60" y="476.7" width="349.5" height="154.3"/>
    </clipPath>
  </defs>
  <rect class="cls-21" x="-4.5" y="-6.3" width="749" height="824"/>
  <g class="cls-20">
    <g>
      <path class="cls-7" d="M529.6,202.3c0,42-97.8,68.9-202.3,61.3-90.2-6.6-154.7-37.4-154.7-69.5s64.5-59.9,154.7-62.4c104.5-2.8,202.3,28.6,202.3,70.6h0Z"/>
      <path class="cls-5" d="M512.7,201.9c0,38-88.4,62.3-182.8,55.4-81.5-6-139.8-33.8-139.8-62.9s58.3-54.2,139.8-56.4c94.5-2.6,182.8,25.9,182.8,63.9h0Z"/>
      <path class="cls-13" d="M495.7,201.5c0,34-79,55.7-163.4,49.5-72.8-5.3-124.9-30.2-124.9-56.2s52.1-48.4,124.9-50.4c84.4-2.3,163.4,23.1,163.4,57.1Z"/>
      <path class="cls-15" d="M478.8,201.1c0,29.9-69.6,49.1-144,43.6-64.2-4.7-110.1-26.6-110.1-49.5s45.9-42.7,110.1-44.4c74.4-2,144,20.4,144,50.3Z"/>
      <path class="cls-3" d="M461.8,200.7c0,25.9-60.2,42.4-124.5,37.7-55.5-4.1-95.2-23-95.2-42.8s39.7-36.9,95.2-38.4c64.3-1.7,124.5,17.6,124.5,43.5Z"/>
      <path class="cls-12" d="M444.9,200.3c0,21.8-50.8,35.8-105.1,31.8-46.9-3.4-80.4-19.4-80.4-36.1s33.5-31.1,80.4-32.4c54.3-1.5,105.1,14.9,105.1,36.7h0Z"/>
      <path class="cls-16" d="M427.9,199.9c0,17.8-41.4,29.2-85.7,26-38.2-2.8-65.5-15.8-65.5-29.5s27.3-25.4,65.5-26.4c44.3-1.2,85.7,12.1,85.7,29.9Z"/>
      <path class="cls-11" d="M411,199.5c0,13.8-32,22.6-66.2,20.1-29.5-2.2-50.6-12.2-50.6-22.8s21.1-19.6,50.6-20.4c34.2-.9,66.2,9.4,66.2,23.1h0Z"/>
      <path class="cls-18" d="M394,199.1c0,9.7-22.6,16-46.8,14.2-20.9-1.5-35.8-8.7-35.8-16.1s14.9-13.9,35.8-14.4c24.2-.7,46.8,6.6,46.8,16.3h0Z"/>
    </g>
  </g>
  <g class="cls-27">
    <g class="cls-28">
      <g>
        <path class="cls-19" d="M387.3,188.8c0-.3-.2-.6-.3-.9l-26.9-42.4s-4.1.2-16.3,4.8c-12.1,4.6-29.9,14.1-29.9,14.1l8.6,27.5v2.6c0,2.9,0,4.6,1.1,5.6,1.9,1.8,5.4,4.4,6.9,5.1,2.2,1,8.8,2.8,18.8,2.8s13.2.5,20.5-.8c7.3-1.3,16.9-5.3,17.8-8.7.7-2.8,0-8.1-.3-9.7ZM350.3,190.1c-.4.9-1.1,1.9-2,2.8h0c-1.4,0-6.7.3-9.2-.6-2.1-.7-3-1.1-3.5-1.3,3-2,8.4-3.8,15-4.8.4,1.4.3,2.6-.2,3.8ZM371.3,189.4c-.3-.4-1.1-1.6-1.9-3.1,1.4.2,2.7.5,3.8.9,0,.4,0,.6,0,.8,0,.2,0,.7.3,1.4-.5.4-1.4.5-1.7.5-.1-.1-.2-.3-.4-.4Z"/>
        <path class="cls-10" d="M378.6,199.1s.2-2.5-.3-3.6c-.6-1.3-2.2-2.2-4-3.5-.9-.6-1.8-1.4-2.7-2.2-.1-.1-.2-.3-.4-.4-.3-.4-1.1-1.6-1.9-3.1-2.2-3.9-5.4-9.9-5.4-9.9l-9.8-16.9s-1.3-2.2-1.1-3.8c.2-1.6,1.3-2.5,1.3-2.5"/>
        <path class="cls-10" d="M326.8,192.4c.2-.4.8-.4.8-.4,0,0,2.3-.3,4.4-.6,1.5-.2,2.8-.4,3-.4.2,0,.3,0,.6,0,.6.2,1.5.6,3.5,1.3,2.6.9,7.9.7,9.2.6h0c.2,0,.3,0,.3,0"/>
        <path class="cls-10" d="M374.3,192.1s0,0,0,0c0-.2-.7-1.6-1-2.8-.2-.7-.3-1.2-.3-1.4,0-.1,0-.4,0-.8,0-1.2-.3-3.3-.9-4.7-.9-1.8-11.5-23.9-13.1-26.4-1.6-2.5-3-2-3-2"/>
        <path class="cls-10" d="M371.7,189.8c.3,0,1.1,0,1.7-.5"/>
        <path class="cls-10" d="M373.1,187.2c-1.1-.4-2.4-.6-3.8-.9"/>
        <path class="cls-10" d="M350.6,186.3s0,0-.1,0c-6.5,1-12,2.7-15,4.8,0,0,0,0,0,0"/>
        <path class="cls-10" d="M366.2,180.8c2.1.2,4.1.5,5.7,1"/>
        <path class="cls-10" d="M329.3,189.4c3.3-3.1,10.5-6,19.2-7.5"/>
        <path class="cls-19" d="M253.9-21.8c-10.7,4.9-1.8,27,8,57,9.4,28.7,23.2,62.7,34.3,89,8.7,20.6,15.7,36.2,17.7,40.8.3.7.8,2.2.9,2.2,0,0,.8-.6,1.3-1,2.9-2.2,10.4-7.6,19.5-12.2,11.8-6,24.4-8.4,24.4-8.4,0,0-14.2-28.6-29.3-57.4-11.5-21.9-22.3-41.4-35.4-62.9-16.8-27.5-29.4-52.5-41.4-47Z"/>
        <path class="cls-10" d="M345.1,195c1.3-.4,2.3-1.1,3.2-2,.9-.9,1.6-1.9,2-2.8.5-1.2.6-2.4.2-3.8-.2-.6-.4-1.2-.8-1.8l-9.1-20.3c-1-2.1-4.3-3.1-6.7-1.9-2.5,1.3-8.1,4.1-11.6,5.6-.8.3-1.2,1.3-.8,2.1.5,1,6.9,18.1,6.9,18.1l.6,1.2"/>
        <path class="cls-10" d="M323,195.1l.5.5c.1,0,.3,0,.3-.2v-4.8c-.1-.2.2-.3.4-.2l1.7.9c.7.4.8.8.8,1.5v5.1c0,.2.1.3.2.4.6.4,2.4,1.2,3.3,1.6,2.2,1,9.1,2.5,19.1,2.5s13.2.5,20.5-.8c2.7-.5,5.6-1.2,8.4-2,.3,0,.5-.4.5-.7v-5.6c-.2-.6.2-1.1.7-1.3l3.5-1.4c.2,0,.5,0,.5.3v5.7c.1.3.5.5.8.4,1.9-1,3.3-1.9,3.6-3"/>
        <path class="cls-10" d="M323.7,190.4l5.1-1.1c.1,0,.3,0,.4,0l2.1,1.1c.7.4.7.5.7,1.2"/>
        <path class="cls-10" d="M377,193.9v-1.2c0-.6.3-1.1.8-1.3l2.8-1.1c.4-.2.9-.2,1.4,0l1.3.4"/>
      </g>
    </g>
  </g>
  <path class="cls-8" d="M430.3,124.5l-14.6,14.6-6.3-6.3"/>
  <circle class="cls-17" cx="419.7" cy="131.8" r="25.1"/>
  <g class="cls-32">
    <g>
      <path class="cls-6" d="M433.2,738.6c-25.2-10.6-48.1-26.4-72.7-38.3-6.5-3.2-13.5-5.7-19.9-9.2-9.8-5.4-19.4-11.7-29.3-17.2-26.9-15.1-53.2-31-77.1-50.6-11-9.1-20.6-18.2-33.7-24.6-18.9-9.3-39.7-14-60.1-18.5"/>
      <path class="cls-6" d="M436.8,732.5c-27.2-9.4-51.5-26.2-77.3-38.8-16.7-8.2-32.5-17.6-48.8-26.6-26.3-14.6-52.5-29.3-76-48.3-10.9-8.9-20.6-17.6-33.5-23.8-19.4-9.3-40.7-14.1-61.5-19.1"/>
      <path class="cls-6" d="M440.6,725.9c-29.4-8.5-54.9-25.6-82.2-39.1-16.5-8.2-32.2-17.9-48.4-26.7-26-14.2-52.4-28-75.7-46.6-10.9-8.7-20.8-16.9-33.8-22.7-19.4-8.7-40.5-13.6-61-19.1"/>
      <path class="cls-6" d="M444.5,719.1c-31.4-7.8-58.1-24.5-86.7-38.9-16.5-8.3-32.1-18.3-48.4-27.1-25-13.6-52.4-25.8-74.4-44.1-10.6-8.8-21.1-16.3-33.9-21.7-19.7-8.4-40.7-13.6-61.2-19.6"/>
      <path class="cls-6" d="M448.3,712.3c-50.9-11.1-94-41.8-139.2-66.1-24.7-13.3-51.9-24.8-73.7-42.7-26.8-22-62.2-29.3-94.4-39.7"/>
      <path class="cls-6" d="M451.9,705.4c-21.1-4.1-41.4-10.2-60.5-20.2-11.3-5.9-22.5-12.1-33.8-18-16.5-8.6-32-19.1-48.5-27.9-24.6-13.1-50.2-24.8-72.9-41-27.8-19.8-62-27.5-93.7-38.7"/>
      <path class="cls-6" d="M455.2,698.8c-21.9-3.8-43.1-9.6-63.1-19.5-11.6-5.7-22.9-12.3-34.4-18.4-16.4-8.7-31.7-19.4-48.2-28.1-24.4-12.8-49.2-24.6-72.4-39.3-28.2-17.9-62-26-92.8-38"/>
      <path class="cls-6" d="M458.1,692.4c-22.4-3.5-44.3-9.1-64.9-18.8-11.8-5.6-23.2-12.4-34.7-18.7-6.9-3.8-13.1-8.8-19.8-12.9-9.1-5.6-18.6-10.6-28.1-15.6-24-12.6-48.3-24.5-71.9-37.7-9.3-5.2-19-9.2-28.9-13-21.2-8-42.4-15.9-63.3-24.7"/>
      <path class="cls-6" d="M460.6,686.4c-22.8-3.3-45.1-8.5-66.1-18.2-11.7-5.5-23.2-12-34.3-18.7-7-4.2-13.4-9.5-20.4-13.8-8.9-5.5-18.3-10.4-27.6-15.3-23.5-12.2-47.2-25-71.3-36-9-4.1-18.3-7.6-27.5-11.2-21.5-8.2-42.4-17.5-63.7-26.2"/>
      <path class="cls-6" d="M462.6,680.7c-36.4-5-70.4-16.3-100.9-37.2-15.4-10.6-30.6-20.3-47.3-28.9-12.4-6.4-25-12.5-37.6-18.6-10.8-5.2-21.1-11.3-32.4-15.5-30.9-11.5-61-24-91-37.6"/>
      <path class="cls-6" d="M464.1,675.4c-36.7-4.8-69.5-15.9-99.7-37.3-15.2-10.8-30.5-20.5-47.1-29-22.4-11.5-45.2-24.2-69.2-32.1-31-10.1-60.7-23.3-89.8-38.1"/>
      <path class="cls-6" d="M465.1,670.5c-21.5-2.7-42.9-6.9-62.7-16-12.1-5.6-23.1-13-33.9-20.8-15.5-11.1-30.9-21.2-47.9-29.9-22.2-11.4-44.6-22.8-68.6-29.8-31-9.1-58.2-25.8-87.9-38.1"/>
      <path class="cls-6" d="M465.6,666c-21.2-2.7-42.6-6.7-61.9-16.3-11.9-5.9-22.4-13.9-33.1-21.7-14.9-10.9-29.9-20.7-46.4-29.1-22.2-11.3-44.3-20.8-68.3-27.3-30.5-8.3-56.9-26.7-86.3-38.1"/>
      <path class="cls-6" d="M465.6,661.9c-20.5-2.7-41.4-6.5-59.8-16.6-11.1-6.1-21.1-14.3-31.3-21.9-14.9-11-30-20.9-46.5-29.4-11.3-5.8-22.7-11.2-34.6-15.5-10.8-3.9-22-6.1-33-9-11.1-2.8-21-7.4-31-12.9-17.7-9.7-35.7-18.7-54.6-25.7"/>
      <path class="cls-6" d="M465.3,658c-19-2.6-39-6.2-55.6-16.3-11.1-6.8-21.2-15.4-31.6-23.2-14.6-11-29.8-20.8-46-29.1-11-5.6-22.1-10.5-34-13.9-11.5-3.3-23.5-4.8-35.1-7.9-11.4-3-21.6-8.4-31.6-14.6-16.2-10.1-33.9-17.9-51.9-24.3"/>
      <path class="cls-6" d="M464.6,654.2c-18.4-2.7-36.9-6.5-52.3-17.4-10.7-7.6-20.9-15.9-31.3-23.9-14.2-10.8-29.4-20.1-45.2-28.3-11-5.6-22.5-9.6-34.6-12.2-11.3-2.4-23-3.3-34.2-6.3-12.8-3.4-23.4-10.3-34.5-17.3-15.4-9.7-32-16.8-49.2-22.8"/>
      <path class="cls-6" d="M463.7,650.5c-17.7-3-33-7.4-47.6-18.1-10.4-7.6-20.3-16.1-30.5-24-14.5-11.1-30.3-20.4-46.5-28.7-21.7-11-46-8.6-68.9-14.9-13.8-3.8-24.9-12.2-37-19.6-14.9-9.2-30-16.1-46.6-21.9"/>
      <path class="cls-6" d="M462.7,646.8c-8.6-1.7-17.3-3.6-25.3-7.2-6.8-3.1-12.8-8-18.7-12.6-10.3-8-20-16.5-30.3-24.5-14.2-10.9-30.5-20.8-47-27.8-22.1-9.4-46.7-4.4-69.2-11.4-13.4-4.2-25.1-12.8-36.7-20.5-14.7-9.8-29.8-16.5-46.4-22.3"/>
      <path class="cls-6" d="M462.6,642.9c-8-1.9-16.2-3.7-23.3-8.1-6.3-3.9-12.3-8.8-18-13.5-10.1-8.2-19.8-17-30.2-24.9-13.9-10.7-31-21.1-47.9-26.2-22.1-6.8-45.8-.7-67.8-7.8-14.6-4.7-27-14.6-39.4-23.3-13.9-9.7-29.2-16-45-21.7"/>
      <path class="cls-6" d="M463.3,639.1c-8-2.5-15-5.2-21.9-10.1-6-4.3-11.7-8.8-17.3-13.5-10-8.4-19.6-17.3-29.9-25.2-14.3-11-31.8-21-49.6-24.8-22.3-4.7-45.4,3.2-67.3-4.7-14.7-5.3-26.7-15.6-39.4-24.3-14.2-9.7-29.6-17.1-45.8-22.8"/>
      <path class="cls-6" d="M464.9,635.6c-43.5-17.9-68.8-69.5-119-74.4-22.2-2.2-44.2,6.7-65.9-1.6-14.7-5.6-26.5-16.1-39.3-24.9-14.6-10.1-30.3-18-46.8-24.4"/>
      <path class="cls-6" d="M467.3,632c-40.9-21.2-69.2-75.7-120.4-74.8-22.6.4-44.6,9.8-66.5,0-14.1-6.3-25.4-16.5-37.9-25.2-14.6-10.2-30.3-18.3-46.7-25.2"/>
      <path class="cls-6" d="M470.7,628.4c-13.5-10-26.6-20.1-38.8-31.6-9.5-8.9-18.8-17.9-29.2-25.7-16.2-12.1-34.1-19.6-54.5-17.4-22.6,2.5-44.5,11.6-66.4,1.1-13.5-6.5-24.3-16.6-36.5-25.2-14.7-10.4-30.5-18.8-46.9-26.1"/>
      <path class="cls-6" d="M474.1,623.8c-14.3-10.1-27.3-21.2-39.8-33.5-9.1-8.9-18.4-17.9-28.6-25.5-7.9-5.8-16.8-11.1-26.2-14.2-9.7-3.1-20.5-2-30.3-.1-22.9,4.3-44.5,12.2-66.8,1.3-12.1-6-22.2-16-33.1-23.9-15.2-10.9-31.4-19.8-48.3-27.8"/>
      <path class="cls-6" d="M477.1,619.4c-14.9-10.8-28.5-22.8-41.2-36-8.9-9.2-18.1-18.2-28.5-25.7-7.6-5.4-16.8-11.1-26.1-12.7-10.5-1.8-20.8.3-30.9,2.9-21.7,5.4-44.3,12.4-65.4,1.3-12.2-6.4-22.6-16.9-33.8-24.9-14.8-10.5-30.5-19.4-46.8-27.3"/>
      <path class="cls-6" d="M479.8,614.9c-15.3-11.3-29.2-23.8-42.1-37.8-8.8-9.5-17.5-18.6-28.1-26-8.1-5.6-17-10.6-26.9-11.3-10.7-.7-21,2.6-31.2,5.6-21,6.2-44.8,12-64.9-.4-11.3-7-21.4-16.1-32.2-23.8-14.7-10.5-30.3-19.4-46.4-27.7"/>
      <path class="cls-6" d="M482.1,610.2c-15.7-11.8-30-24.8-43.1-39.4-8.3-9.3-16.2-18.6-26.7-25.6-8.6-5.8-17.4-10.2-28-9.9-10.9.4-21.4,4.7-31.6,8.1-21.7,7.1-42.9,9.6-63.3-2.7-11-6.6-20.7-15-31.1-22.5-14.7-10.6-30.3-19.6-46.3-28"/>
      <path class="cls-6" d="M483.9,605.4c-15.9-12-30.4-25.2-43.5-40.2-8.1-9.2-15.6-19.3-26-26.1-9-5.9-18-9.2-28.8-7.6-11,1.6-21.3,6.5-31.7,10.1-10.3,3.5-21,6.2-31.9,5.4-11.3-.9-20.8-5.7-30.4-11.4-10.5-6.2-20-13.9-29.9-21-14.5-10.4-29.8-19.4-45.5-27.9"/>
      <path class="cls-6" d="M485.3,600.5c-16.1-12.2-30.8-25.6-44.1-40.9-7.5-8.7-14.6-18.8-24.1-25.5-20.4-14.5-41.4-1-61.8,5.9-10.3,3.5-21.2,5.8-32.1,3.8-11-1.9-20.3-7.9-29.6-13.7-9.6-6-18.5-12.6-27.7-19.2-14.4-10.2-29.5-19.2-44.9-27.8"/>
      <path class="cls-6" d="M486.1,595.3c-15.8-11.9-30.4-24.9-43.3-39.9-7.8-9.1-15-20.5-25.2-27.2-19.2-12.7-42.3,4.3-60.8,10.2-10.2,3.3-20.7,4.7-31.1,2-10.8-2.8-20.2-9.4-29.4-15.4-23.5-15.3-45.9-31.8-70.4-45.6"/>
      <path class="cls-6" d="M486.4,590c-15.3-11.3-29.5-23.7-42-38-7.7-8.8-14.9-21.5-25.2-27.4-19.9-11.4-41.9,7-60.9,12.5-23,6.6-40.3-4.2-58.8-16.7-22.7-15.4-44.8-31.1-68.7-44.7"/>
      <path class="cls-6" d="M486.3,584.5c-15.5-11.2-29.9-23.4-42.4-37.8-7.3-8.4-13.9-20.3-24.2-25.3-19.9-9.6-41,9.6-59.9,14.1-22.6,5.3-40.3-8.1-57.9-20.4-21.8-15.3-43.2-30.2-66.3-43.4"/>
      <path class="cls-6" d="M485.9,578.8c-15.4-10.8-29.8-22.6-42.2-36.8-7.4-8.4-13.4-19.3-24.3-23.5-9.2-3.6-18.3,0-26.9,3.6-10.1,4.4-20,9.8-31.1,11.6-22.2,3.7-41-12.4-57.9-24.6-20.6-14.9-40.9-29-63.1-41.5"/>
      <path class="cls-6" d="M485.2,573c-14.8-10-28.8-20.9-40.8-34.2-7.2-7.9-13.1-18.1-23.6-22.1-9.5-3.6-19.1,1-27.6,5-9.5,4.4-19.3,9.2-30,10-21.5,1.7-41.3-16.3-57.5-28.2-19.7-14.5-39.1-28-60.6-40"/>
      <path class="cls-6" d="M484.3,566.9c-14.8-9.4-28.8-19.8-40.7-32.8-6.7-7.3-12.9-16.5-22.9-19.5-9-2.7-17.8,2.1-25.7,5.9-9.6,4.6-19.3,9.1-30.2,8.9-11-.3-19.7-5.7-28.7-11.5-9.9-6.3-19.4-13.2-28.7-20.2-7.8-5.8-15.5-11.9-23.5-17.5-11-7.8-22.9-13.8-34.2-21"/>
      <path class="cls-6" d="M483.4,560.5c-14.1-8.4-27.6-17.7-39.1-29.5-6.7-6.9-13.6-16.4-23.6-18.5-8.4-1.8-16.6,2.9-24,6.3-9.6,4.5-19.4,9.1-30.2,7.4-10.9-1.6-20.2-8.3-29.2-14.3-9.7-6.4-19.1-13.3-28.4-20.3-8-6-15.8-12.2-24-17.8-9.9-6.9-20.8-12.2-30.6-19.2"/>
      <path class="cls-6" d="M483.3,554.2c-13.9-7.5-27.9-16-39.1-27.3-6.5-6.5-14.2-15.5-24-16.5-8.3-.8-16.3,4-23.6,7.2-8.9,3.9-18.6,7.4-28.3,5.1-10.1-2.4-19.4-9.8-27.8-15.5-10.1-6.8-19.8-14-29.5-21.3-8.1-6.1-16-12.3-24.4-18-9.2-6.2-19.1-11.1-27.8-18.2"/>
      <path class="cls-6" d="M485.3,548.7c-14.5-7.4-28.3-14.8-40.4-25.7-6.8-6.1-14.8-14.2-24.5-14.6-17.7-.7-32.1,15.9-50.7,9.7-9.9-3.3-19.3-10.9-27.8-16.8-10.2-7-20.2-14.4-30.1-21.9-8-6.1-16-12.3-24.5-17.8-8.5-5.5-17.4-9.8-24.5-17.2"/>
      <path class="cls-6" d="M489,543.8c-15.2-7.4-29.6-14.7-43.2-24.6-7.6-5.6-14.9-13.1-25-13.1-17.3-.1-32,13.6-49.7,6.2-21.3-8.9-40.3-25.8-58.6-39.5-8-6-16-12.2-24.5-17.5-7.9-5-15.5-9.1-21.4-16.5"/>
      <path class="cls-6" d="M494.3,539.6c-15.6-7.4-32.6-14.3-47-24-7.9-5.4-15.1-11.9-25.2-12.1-7.7-.1-15,2.9-22.5,4.4-9.2,1.8-18.2,1.9-26.9-1.8-22-9.6-41.4-26.5-60.6-40.7-7.9-5.8-15.8-11.6-24.2-16.8-7.2-4.5-13.2-8.5-17.9-15.8"/>
      <path class="cls-6" d="M501.1,536c-17.8-8.2-37.3-15.6-53.8-26.1-7.5-4.8-15.2-9.1-24.3-9.3-7.9-.2-15.7,2.2-23.6,2.6-9.1.5-16.9-.2-25.4-3.9-22.5-9.7-41.9-26.5-61.5-40.8-7.8-5.7-15.7-11.1-23.8-16.2-6.8-4.2-11.6-8.1-15.3-15.4"/>
      <path class="cls-6" d="M509.2,532.9c-19.9-9.1-39.9-17.9-59.5-27.5-8.2-4-16.3-7.7-25.6-8.2-17.2-.9-32.9,1.9-49.2-5.2-22.7-9.8-42.1-26.2-62.1-40.4-12.6-9-30.4-15.6-36.5-30.7"/>
      <path class="cls-6" d="M518.5,530.3c-22.2-10-44.2-21.1-67-29.9-8.8-3.4-17.7-6.2-27.2-7.1-16.8-1.7-33.2-2.2-48.9-9-22.7-9.9-42.1-25.5-62.3-39.5-12.4-8.6-29.3-14.5-34-30"/>
      <path class="cls-6" d="M528.8,528.1c-33.2-14.9-66.1-32.6-102.3-39-17.2-3.1-34.7-5.8-50.9-12.9-22.1-9.6-41.3-24.3-61.2-37.7-12.5-8.5-28.9-13.9-32.8-29.8"/>
      <path class="cls-6" d="M539.7,526.2c-35.9-17.8-72.9-31.4-111.5-41.6-17.7-4.7-36-9.1-52.8-16.6-21.5-9.5-40.5-23-60.1-35.8-12.6-8.2-28-13.4-31.4-29.3"/>
      <path class="cls-6" d="M549.3,523c-27.2-12.1-54.9-23.6-83.3-32.5-12.2-3.8-24.6-6.8-36.6-11.2-18.1-6.5-36.8-12-54.4-19.8-20.9-9.3-39.8-21.8-59.1-33.9-12.6-7.9-26.5-13.1-29.9-28.6"/>
      <path class="cls-6" d="M557.4,519.8c-28.1-11.2-55.9-22.7-84.8-31.7-13.5-4.2-27.4-7.4-40.2-13.4-19-8.9-39.2-15.1-58.3-23.8-19.6-8.9-38.8-19.6-56.9-31.3-12.6-8.2-25.6-12.9-29.6-28.4"/>
      <path class="cls-6" d="M564.6,516.6c-29.2-12-58.8-22.6-88.9-31.9-14.3-4.4-29.2-8.2-42.4-15.6-19-10.7-40.3-17.6-60.1-26.7-18.6-8.6-36.9-18.2-54.3-29-12.9-8-24.6-12.6-29.6-27.7"/>
      <path class="cls-6" d="M570.2,512.8c-29.4-11.4-59.3-21.5-89.4-31-16.3-5.2-31.5-10.8-46.7-18.6-20.4-10.5-41.3-19.7-62.1-29.5-17.9-8.5-35.1-18.3-52.8-27.2-12.6-6.4-22.8-13.4-28.6-26.5"/>
      <path class="cls-6" d="M574.5,508.9c-45.7-16.9-93.7-28.3-137.5-49.9-22.2-10.9-43.8-22.9-66.1-33.7-17-8.2-33.8-17.1-50.8-25.2-12.1-5.8-21.4-14-28.2-25.5"/>
      <path class="cls-6" d="M577.3,504.7c-30.3-10.7-61-20-91.4-30.4-15.9-5.4-31.7-11.7-46.4-20-23-12.9-46.1-25.5-69.8-37.3-27-13.4-57.6-23.1-76.6-47.7"/>
      <path class="cls-6" d="M578.5,500.1c-46.2-15.7-94.9-27.3-137.6-51.6-23.8-13.5-47.8-27-72.2-39.4-14.8-7.5-30-14.2-44.8-21.5-11.4-5.6-20.9-14.5-29.6-23.5"/>
      <path class="cls-6" d="M578.2,495.1c-29-9.5-58.4-18.1-87-28.8-17-6.4-32.6-14.4-48.4-23.1-25.1-13.7-49.6-28.4-74.9-41.8-13.6-7.1-27.6-13.1-41.2-19.9-11.4-5.7-21.5-14.4-31.2-22.6"/>
      <path class="cls-6" d="M576.2,489.6c-28.6-9.1-57.7-17.6-85.6-28.8-16.3-6.6-31.2-14.7-46.4-23.3-25.6-14.4-51-29.2-76.8-43.3-12.2-6.6-24.9-12.1-37.2-18.5-11.8-6.1-22.8-14.3-33.6-21.9"/>
      <path class="cls-6" d="M572.9,483.7c-27.3-8.5-54.9-16.8-81.4-27.9-15.3-6.4-29.2-14.5-43.5-22.9-26.7-15.6-53.8-30.4-80.8-45.6-23.2-13.1-46.5-25-69.4-38.7"/>
    </g>
  </g>
  <g class="cls-31">
    <ellipse class="cls-25" cx="361.3" cy="571.5" rx="110.8" ry="42" transform="translate(-221.4 228.6) rotate(-27.2)"/>
  </g>
  <g class="cls-30">
    <g class="cls-29">
      <g>
        <path class="cls-26" d="M60.2,590.3s64.2-17.7,82.4-22.9c18.2-5.2,73.1-14.9,96-21.7,22.9-6.8,28.6-11.7,28.6-11.7l96-43.9c2.3-1,4.9-.7,6.8.9l21.3,17.2c2.7,2.2,4,5.6,3.5,9v.6c0,0-131.7,61.7-131.7,61.7,0,0-5,3.8-16.8,6.9-11.8,3.1-89.4,20.5-109.4,25-20.1,4.5-66,19.8-66.2,19.1"/>
        <path class="cls-10" d="M60.2,590.3s64.2-17.7,82.4-22.9c18.2-5.2,73.1-14.9,96-21.7,22.9-6.8,28.6-11.7,28.6-11.7l96-43.9c2.3-1,4.9-.7,6.8.9l21.3,17.2c2.7,2.2,4,5.6,3.5,9v.6c0,0-131.7,61.7-131.7,61.7,0,0-5,3.8-16.8,6.9-11.8,3.1-89.4,20.5-109.4,25-20.1,4.5-66,19.8-66.2,19.1"/>
        <path class="cls-9" d="M394.1,511.8s-98.5,45.9-103.9,49.1c-4.6,2.7-6.3,4.3-7.2,6.2-.9,1.9-1,3.4-1,3.4"/>
        <path class="cls-9" d="M376,495.8c-5.1,2.3-72.6,32.9-72.6,32.9,0,0-20.1,8.8-26.4,14.4-6.3,5.6-8,10.6-8.4,12.7"/>
        <path class="cls-1" d="M286.3,563.5l1.9,4.2"/>
        <path class="cls-1" d="M292,560l2.3,4.9"/>
        <path class="cls-1" d="M298.1,557.1l2.3,4.9"/>
        <path class="cls-1" d="M304.1,554.3l2.3,4.9"/>
        <path class="cls-1" d="M310,551.2l2.3,4.9"/>
        <path class="cls-1" d="M316.1,548.4l2.3,4.9"/>
        <path class="cls-1" d="M322.1,545.6l2.3,4.9"/>
        <path class="cls-1" d="M328.2,542.7l2.3,4.9"/>
        <path class="cls-1" d="M334.3,539.9l2.3,4.9"/>
        <path class="cls-1" d="M340.3,537.1l2.3,4.9"/>
        <path class="cls-1" d="M346.4,534.3l2.3,4.9"/>
        <path class="cls-1" d="M352.5,531.5l2.3,4.9"/>
        <path class="cls-1" d="M358.3,528.3l2.4,5.3"/>
        <path class="cls-1" d="M364.6,525.9l2.3,4.9"/>
        <path class="cls-1" d="M370.5,522.7l2.4,5.3"/>
        <path class="cls-1" d="M376.5,520l2.4,5.3"/>
        <path class="cls-1" d="M382.6,517.1l2.4,5.3"/>
        <path class="cls-1" d="M388.7,514.3l2.4,5.3"/>
      </g>
    </g>
  </g>
  <path class="cls-14" d="M444,499.1l11.6-22.1"/>
  <path class="cls-14" d="M456.9,513l22.7-10.4"/>
  <path class="cls-14" d="M461.4,532.2l24.9-1.7"/>
  <path class="cls-14" d="M420.5,494l-1-25"/>
  <path class="cls-23" d="M180.6,320.8c-1.9,0-3.5-.8-4.6-2.1-1-1.2-1.6-2.9-1.6-4.9v-.9c0-2.1.6-3.7,1.6-4.9,1.1-1.3,2.7-2.1,4.6-2.1s3.5.8,4.6,2.1c1,1.2,1.6,2.9,1.6,4.9v.9c0,2.1-.6,3.7-1.6,4.9-1.1,1.3-2.7,2.1-4.6,2.1ZM175.8,313.8c0,1.8.5,3.2,1.3,4.2.8,1,2.1,1.6,3.5,1.6s2.6-.6,3.5-1.6c.8-1,1.3-2.4,1.3-4.2v-.7c0-1.8-.5-3.2-1.3-4.2-.8-1-2-1.6-3.5-1.6s-2.6.6-3.5,1.6c-.8,1-1.3,2.4-1.3,4.2v.7ZM193.9,320.8c-1.6,0-3-.8-3.6-1.9-.4-.6-.6-1.4-.6-2.8v-5.8h1.3v5.5c0,1.1.1,1.8.4,2.3.4.9,1.3,1.4,2.5,1.4s2.1-.5,2.5-1.4c.2-.5.4-1.2.4-2.3v-5.5h1.3v5.8c0,1.4-.2,2.2-.5,2.8-.7,1.2-2,1.9-3.6,1.9ZM201.6,320.7v-10.4h1.3v2.1c.4-.8,1.3-2.3,4-2.1v1.4c-2.7-.1-3.9,1.2-3.9,3.3v5.7h-1.3ZM217.6,319.5c.9,0,1.8-.3,2.4-1,.6-.7.9-1.7.9-2.7v-.7c0-1-.3-2-.9-2.7-.6-.7-1.4-1-2.4-1s-1.8.3-2.4,1c-.6.7-.9,1.7-.9,2.7v.7c0,1,.3,2,.9,2.7.6.7,1.4,1,2.4,1ZM213,324.9v-14.6h1.3v2c.4-.9,1.5-2.1,3.6-2.1s2.3.5,3.1,1.4c.8.9,1.2,2.2,1.2,3.5v.8c0,1.3-.4,2.6-1.2,3.5-.8.9-2,1.4-3.3,1.4-2.1,0-3-1.3-3.4-2v6.1h-1.3ZM227.8,320.8c-1.9,0-3.3-1.1-3.3-3.1s.6-2.3,1.9-2.8c.6-.2,1.4-.4,2.9-.4h1.9v-.6c0-1.7-.9-2.6-2.6-2.6s-2.4.8-2.6,1.9h-1.3c.1-1.9,1.7-3.1,3.9-3.1s3.8,1.3,3.8,3.6v6.9h-1.3v-1.7c-.5.7-1.4,1.8-3.4,1.8ZM225.8,317.6c0,1.2,1,1.9,2.2,1.9s3.2-1.1,3.2-2.9v-1h-1.8c-1,0-1.9,0-2.5.3-.7.3-1.1.8-1.1,1.6ZM240.3,320.7c-2,0-3.1-1.1-3.5-2.3-.2-.7-.3-1.6-.3-2.1v-4.6h-1.9v-1.2h1.9v-3.6h1.3v3.6h3v1.2h-3v4.4c0,.8,0,1.3.2,1.8.3,1,1,1.6,2.6,1.6h.7v1.2c-.3,0-.8,0-1,0ZM247.6,320.8c-1.4,0-2.6-.5-3.4-1.5-.8-.9-1.2-2.1-1.2-3.5v-.9c0-1.4.4-2.6,1.2-3.5.8-.9,2-1.5,3.3-1.5s2.4.5,3.2,1.4c.8.9,1.2,2.2,1.2,3.7v.7h-7.7c0,1.1.3,2,.8,2.6.6.7,1.5,1.1,2.5,1.1s2.4-.6,2.8-1.6h1.3c-.5,1.8-2.3,2.8-4.2,2.8ZM244.2,314.7h6.4c-.1-2.1-1.4-3.3-3.2-3.3s-1.7.4-2.3,1c-.5.6-.9,1.4-.9,2.3ZM254.8,320.7v-10.4h1.3v1.7c.4-.8,1.4-1.8,3.3-1.8s2.9.8,3.5,2.2c.2.5.3,1.2.3,2.1v6.2h-1.3v-5.9c0-.8,0-1.4-.3-1.9-.4-.9-1.3-1.5-2.6-1.5s-2.2.6-2.6,1.5c-.2.5-.3,1.1-.3,1.9v5.8h-1.3ZM271,320.7c-2,0-3.1-1.1-3.5-2.3-.2-.7-.3-1.6-.3-2.1v-4.6h-1.9v-1.2h1.9v-3.6h1.3v3.6h3v1.2h-3v4.4c0,.8,0,1.3.2,1.8.3,1,1,1.6,2.6,1.6h.7v1.2c-.3,0-.8,0-1,0ZM278.3,320.8c-1.4,0-2.6-.5-3.4-1.5-.8-.9-1.2-2.1-1.2-3.5v-.9c0-1.4.4-2.6,1.2-3.5.8-.9,2-1.5,3.3-1.5s2.4.5,3.2,1.4c.8.9,1.2,2.2,1.2,3.7v.7h-7.7c0,1.1.3,2,.8,2.6.6.7,1.5,1.1,2.5,1.1s2.4-.6,2.8-1.6h1.3c-.5,1.8-2.3,2.8-4.2,2.8ZM274.9,314.7h6.4c-.1-2.1-1.4-3.3-3.2-3.3s-1.7.4-2.3,1c-.5.6-.9,1.4-.9,2.3ZM289.4,320.8c-1.3,0-2.3-.5-3.1-1.4-.9-1-1.2-2.2-1.2-3.5v-.8c0-1.3.4-2.5,1.2-3.4.8-.9,2-1.4,3.3-1.4,2.1,0,3.1,1.4,3.4,2.1v-6.6h1.3v15h-1.3s0-2,0-2c-.4.8-1.5,2.1-3.5,2.1ZM286.4,315.8c0,1,.3,2,.9,2.7.6.7,1.4,1,2.4,1s1.8-.3,2.4-1c.6-.7.9-1.7.9-2.7v-.7c0-1-.3-2-.9-2.7-.6-.7-1.4-1-2.4-1s-1.8.4-2.4,1c-.7.7-.9,1.7-.9,2.7v.7ZM301.9,320.7v-10.4h1.3v1.7c.4-.8,1.4-1.8,3.3-1.8s2.9.8,3.5,2.2c.2.5.3,1.2.3,2.1v6.2h-1.3v-5.9c0-.8,0-1.4-.3-1.9-.4-.9-1.3-1.5-2.6-1.5s-2.2.6-2.6,1.5c-.2.5-.3,1.1-.3,1.9v5.8h-1.3ZM316.4,320.8c-1.9,0-3.3-1.1-3.3-3.1s.6-2.3,1.9-2.8c.6-.2,1.4-.4,2.9-.4h1.9v-.6c0-1.7-.9-2.6-2.6-2.6s-2.4.8-2.6,1.9h-1.3c.1-1.9,1.7-3.1,3.9-3.1s3.8,1.3,3.8,3.6v6.9h-1.3v-1.7c-.5.7-1.4,1.8-3.4,1.8ZM314.4,317.6c0,1.2,1,1.9,2.2,1.9s3.2-1.1,3.2-2.9v-1h-1.8c-1,0-1.9,0-2.5.3-.7.3-1.1.8-1.1,1.6ZM324.6,320.7v-10.4h1.3v1.7c.4-.8,1.4-1.8,3.3-1.8s2.9.8,3.5,2.2c.2.5.3,1.2.3,2.1v6.2h-1.3v-5.9c0-.8,0-1.4-.3-1.9-.4-.9-1.3-1.5-2.6-1.5s-2.2.6-2.6,1.5c-.2.5-.3,1.1-.3,1.9v5.8h-1.3ZM340.4,320.8c-1.4,0-2.6-.6-3.4-1.5-.8-.9-1.2-2.2-1.2-3.5v-.9c0-1.4.4-2.6,1.2-3.5.8-.9,2-1.5,3.4-1.5s2.6.6,3.4,1.5c.8.9,1.2,2.2,1.2,3.5v.9c0,1.3-.4,2.6-1.2,3.5-.8.9-2,1.5-3.4,1.5ZM337.1,315.9c0,1,.3,2,.9,2.7.6.7,1.4,1,2.4,1s1.8-.3,2.4-1c.7-.7.9-1.7.9-2.7v-.8c0-1-.3-2-.9-2.7-.6-.7-1.4-1-2.4-1s-1.8.4-2.4,1c-.7.7-.9,1.7-.9,2.7v.8ZM347.9,315.5v-1.3h6.3v1.3h-6.3ZM361.5,320.8c-1.3,0-2.3-.5-3.1-1.4-.9-1-1.2-2.2-1.2-3.5v-.8c0-1.3.4-2.5,1.2-3.4s2-1.4,3.3-1.4c2.1,0,3.1,1.4,3.4,2.1v-6.6h1.3v15h-1.3s0-2,0-2c-.4.8-1.5,2.1-3.5,2.1ZM358.5,315.8c0,1,.3,2,.9,2.7.6.7,1.4,1,2.4,1s1.8-.3,2.4-1c.6-.7.9-1.7.9-2.7v-.7c0-1-.3-2-.9-2.7-.6-.7-1.4-1-2.4-1s-1.8.4-2.4,1c-.7.7-.9,1.7-.9,2.7v.7ZM370,320.7v-10.4h1.3v10.4h-1.3ZM369.6,306.9c0-.6.4-1,1-1s1,.4,1,1-.4,1-1,1-1-.4-1-1ZM377.5,320.8c-1.9,0-3.3-1.1-3.3-3.1s.6-2.3,1.9-2.8c.6-.2,1.4-.4,2.9-.4h1.9v-.6c0-1.7-.9-2.6-2.6-2.6s-2.4.8-2.6,1.9h-1.3c.1-1.9,1.7-3.1,3.9-3.1s3.8,1.3,3.8,3.6v6.9h-1.3v-1.7c-.5.7-1.4,1.8-3.4,1.8ZM375.5,317.6c0,1.2,1,1.9,2.2,1.9s3.2-1.1,3.2-2.9v-1h-1.8c-1,0-1.9,0-2.5.3-.7.3-1.1.8-1.1,1.6ZM385.7,320.7v-10.4h1.3v1.7c.4-.8,1.4-1.8,3.1-1.8s2.7.8,3.3,2.2c.4-.9,1.5-2.2,3.4-2.2s2.8.9,3.3,2.2c.2.5.3,1.2.3,2.1v6.2h-1.3v-5.9c0-.8,0-1.4-.3-1.9-.4-.9-1.3-1.5-2.4-1.5s-2,.6-2.4,1.5c-.2.5-.3,1.1-.3,1.9v5.8h-1.3v-5.9c0-.8,0-1.4-.3-1.9-.4-.9-1.3-1.5-2.4-1.5s-2,.6-2.4,1.5c-.2.5-.3,1.1-.3,1.9v5.8h-1.3ZM407.9,320.8c-1.4,0-2.6-.6-3.4-1.5-.8-.9-1.2-2.2-1.2-3.5v-.9c0-1.4.4-2.6,1.2-3.5.8-.9,2-1.5,3.4-1.5s2.6.6,3.4,1.5c.8.9,1.2,2.2,1.2,3.5v.9c0,1.3-.4,2.6-1.2,3.5-.8.9-2,1.5-3.4,1.5ZM404.6,315.9c0,1,.3,2,.9,2.7.6.7,1.4,1,2.4,1s1.8-.3,2.4-1c.7-.7.9-1.7.9-2.7v-.8c0-1-.3-2-.9-2.7-.6-.7-1.4-1-2.4-1s-1.8.4-2.4,1c-.7.7-.9,1.7-.9,2.7v.8ZM415.5,320.7v-10.4h1.3v1.7c.4-.8,1.4-1.8,3.3-1.8s2.9.8,3.5,2.2c.2.5.3,1.2.3,2.1v6.2h-1.3v-5.9c0-.8,0-1.4-.3-1.9-.4-.9-1.3-1.5-2.6-1.5s-2.2.6-2.6,1.5c-.2.5-.3,1.1-.3,1.9v5.8h-1.3ZM431.1,320.8c-1.3,0-2.3-.5-3.1-1.4-.9-1-1.2-2.2-1.2-3.5v-.8c0-1.3.4-2.5,1.2-3.4.8-.9,2-1.4,3.3-1.4,2.1,0,3.1,1.4,3.4,2.1v-6.6h1.3v15h-1.3s0-2,0-2c-.4.8-1.5,2.1-3.5,2.1ZM428.1,315.8c0,1,.3,2,.9,2.7.6.7,1.4,1,2.4,1s1.8-.3,2.4-1c.6-.7.9-1.7.9-2.7v-.7c0-1-.3-2-.9-2.7-.6-.7-1.4-1-2.4-1s-1.8.4-2.4,1c-.7.7-.9,1.7-.9,2.7v.7ZM447.7,320.8c-1.4,0-2.6-.5-3.4-1.5-.8-.9-1.2-2.1-1.2-3.5v-.9c0-1.4.4-2.6,1.2-3.5.8-.9,2-1.5,3.3-1.5s2.4.5,3.2,1.4c.8.9,1.2,2.2,1.2,3.7v.7h-7.7c0,1.1.3,2,.8,2.6.6.7,1.5,1.1,2.5,1.1s2.4-.6,2.8-1.6h1.3c-.5,1.8-2.3,2.8-4.2,2.8ZM444.3,314.7h6.4c-.1-2.1-1.4-3.3-3.2-3.3s-1.7.4-2.3,1c-.5.6-.9,1.4-.9,2.3ZM453.4,320.7l3.7-5.3-3.5-5.1h1.5l2.8,4.1,2.8-4.1h1.5l-3.5,5,3.7,5.4h-1.6l-3-4.4-3,4.4h-1.5ZM463.4,311.7v-1.2h1.9c0-.7,0-1.2.2-1.8.4-1.8,1.7-3.1,4-3.1s.5,0,.6,0v1.2h-.5c-1.6,0-2.5.9-2.8,2.1-.1.4-.1.9-.1,1.5h3v1.2h-3v9h-1.3v-9h-1.9ZM475.6,320.8c-1.4,0-2.6-.6-3.4-1.5-.8-.9-1.2-2.2-1.2-3.5v-.9c0-1.4.4-2.6,1.2-3.5.8-.9,2-1.5,3.4-1.5s2.6.6,3.4,1.5c.8.9,1.2,2.2,1.2,3.5v.9c0,1.3-.4,2.6-1.2,3.5-.8.9-2,1.5-3.4,1.5ZM472.3,315.9c0,1,.3,2,.9,2.7.6.7,1.4,1,2.4,1s1.8-.3,2.4-1c.7-.7.9-1.7.9-2.7v-.8c0-1-.3-2-.9-2.7-.6-.7-1.4-1-2.4-1s-1.8.4-2.4,1c-.7.7-.9,1.7-.9,2.7v.8ZM483.2,320.7v-15h1.3v15h-1.3ZM488.1,320.7v-10.4h1.3v10.4h-1.3ZM487.8,306.9c0-.6.4-1,1-1s1,.4,1,1-.4,1-1,1-1-.4-1-1ZM495.6,320.8c-1.9,0-3.3-1.1-3.3-3.1s.6-2.3,1.9-2.8c.6-.2,1.4-.4,2.9-.4h1.9v-.6c0-1.7-.9-2.6-2.6-2.6s-2.4.8-2.6,1.9h-1.3c.1-1.9,1.7-3.1,3.9-3.1s3.8,1.3,3.8,3.6v6.9h-1.3v-1.7c-.5.7-1.4,1.8-3.4,1.8ZM493.7,317.6c0,1.2,1,1.9,2.2,1.9s3.2-1.1,3.2-2.9v-1h-1.8c-1,0-1.9,0-2.5.3-.7.3-1.1.8-1.1,1.6ZM508.1,320.7c-2,0-3.1-1.1-3.5-2.3-.2-.7-.3-1.6-.3-2.1v-4.6h-1.9v-1.2h1.9v-3.6h1.3v3.6h3v1.2h-3v4.4c0,.8,0,1.3.2,1.8.3,1,1,1.6,2.6,1.6h.7v1.2c-.3,0-.8,0-1,0ZM511.4,320.7v-10.4h1.3v10.4h-1.3ZM511.1,306.9c0-.6.4-1,1-1s1,.4,1,1-.4,1-1,1-1-.4-1-1ZM520.3,320.8c-1.4,0-2.6-.6-3.4-1.5-.8-.9-1.2-2.2-1.2-3.5v-.9c0-1.4.4-2.6,1.2-3.5.8-.9,2-1.5,3.4-1.5s2.6.6,3.4,1.5c.8.9,1.2,2.2,1.2,3.5v.9c0,1.3-.4,2.6-1.2,3.5-.8.9-2,1.5-3.4,1.5ZM517,315.9c0,1,.3,2,.9,2.7.6.7,1.4,1,2.4,1s1.8-.3,2.4-1c.7-.7.9-1.7.9-2.7v-.8c0-1-.3-2-.9-2.7-.6-.7-1.4-1-2.4-1s-1.8.4-2.4,1c-.7.7-.9,1.7-.9,2.7v.8ZM528,320.7v-10.4h1.3v1.7c.4-.8,1.4-1.8,3.3-1.8s2.9.8,3.5,2.2c.2.5.3,1.2.3,2.1v6.2h-1.3v-5.9c0-.8,0-1.4-.3-1.9-.4-.9-1.3-1.5-2.6-1.5s-2.2.6-2.6,1.5c-.2.5-.3,1.1-.3,1.9v5.8h-1.3ZM182.4,346.1c.2.9,1,1.6,2.6,1.6s2.5-.7,2.5-1.8-1.3-1.5-2.8-1.8c-1.5-.3-3.4-.8-3.4-3s1.8-3,3.7-3,3.5,1.2,3.6,2.7h-1.3c-.2-.8-1-1.6-2.4-1.6s-2.4.6-2.4,1.7,1.1,1.5,2.6,1.8c2,.4,3.7.9,3.7,2.9s-1.8,3.1-3.9,3.1-3.6-1.2-3.8-2.8h1.3ZM195.8,348.8c-1.6,0-3-.8-3.6-1.9-.4-.6-.6-1.4-.6-2.8v-5.8h1.3v5.5c0,1.1.1,1.8.4,2.3.4.9,1.3,1.4,2.5,1.4s2.1-.5,2.5-1.4c.2-.5.4-1.2.4-2.3v-5.5h1.3v5.8c0,1.4-.2,2.2-.5,2.8-.7,1.2-2,1.9-3.6,1.9ZM203.5,348.7v-10.4h1.3v2.1c.4-.8,1.3-2.3,4-2.1v1.4c-2.7-.1-3.9,1.2-3.9,3.3v5.7h-1.3ZM209.7,339.7v-1.2h1.9c0-.7,0-1.2.2-1.8.4-1.8,1.7-3.1,4-3.1s.5,0,.6,0v1.2h-.5c-1.6,0-2.5.9-2.8,2.1,0,.4-.1.9-.1,1.5h3v1.2h-3v9h-1.3v-9h-1.9ZM220.5,348.8c-1.9,0-3.3-1.1-3.3-3.1s.6-2.3,1.9-2.8c.6-.2,1.4-.4,2.9-.4h1.9v-.6c0-1.7-.9-2.6-2.6-2.6s-2.4.8-2.6,1.9h-1.3c.1-1.9,1.7-3.1,3.9-3.1s3.8,1.3,3.8,3.6v6.9h-1.3v-1.7c-.5.7-1.4,1.8-3.4,1.8ZM218.5,345.6c0,1.2,1,1.9,2.2,1.9s3.2-1.1,3.2-2.9v-1h-1.8c-1,0-1.9,0-2.5.3-.7.3-1.1.8-1.1,1.6ZM232.6,348.8c-1.4,0-2.5-.6-3.3-1.5-.8-.9-1.2-2.2-1.2-3.5v-.9c0-1.4.4-2.6,1.2-3.5.8-.9,2-1.5,3.4-1.5,2,0,3.8,1.3,4.1,3.3h-1.3c-.3-1.2-1.3-2.1-2.8-2.1s-1.7.4-2.3,1c-.6.7-.9,1.6-.9,2.7v.8c0,1.1.3,2,.9,2.7.6.7,1.4,1,2.3,1,1.4,0,2.5-.9,2.8-2.1h1.3c-.3,2-2.1,3.3-4.1,3.3ZM243.3,348.8c-1.4,0-2.6-.5-3.4-1.5-.8-.9-1.2-2.1-1.2-3.5v-.9c0-1.4.4-2.6,1.2-3.5.8-.9,2-1.5,3.3-1.5s2.4.5,3.2,1.4c.8.9,1.2,2.2,1.2,3.7v.7h-7.7c0,1.1.3,2,.8,2.6.6.7,1.5,1.1,2.5,1.1s2.4-.6,2.8-1.6h1.3c-.5,1.8-2.3,2.8-4.2,2.8ZM240,342.7h6.4c-.1-2.1-1.4-3.3-3.2-3.3s-1.7.4-2.3,1c-.5.6-.9,1.4-.9,2.3ZM254.7,348.7v-15h1.3v15h-1.3ZM262.2,348.8c-1.9,0-3.3-1.1-3.3-3.1s.6-2.3,1.9-2.8c.6-.2,1.4-.4,2.9-.4h1.9v-.6c0-1.7-.9-2.6-2.6-2.6s-2.4.8-2.6,1.9h-1.3c.1-1.9,1.7-3.1,3.9-3.1s3.8,1.3,3.8,3.6v6.9h-1.3v-1.7c-.5.7-1.4,1.8-3.4,1.8ZM260.2,345.6c0,1.2,1,1.9,2.2,1.9s3.2-1.1,3.2-2.9v-1h-1.8c-1,0-1.9,0-2.5.3-.7.3-1.1.8-1.1,1.6ZM274.4,344.6l2.4-6.3h1.4l-5.5,14.6h-1.4l1.1-2.9c.2-.4.3-.8.3-1.2s-.1-.8-.3-1.1l-3.6-9.4h1.4l2.4,6.3,1,2.5.9-2.5ZM280.7,346.1c.2.9,1,1.6,2.6,1.6s2.5-.7,2.5-1.8-1.3-1.5-2.8-1.8c-1.5-.3-3.4-.8-3.4-3s1.8-3,3.7-3,3.5,1.2,3.6,2.7h-1.3c-.2-.8-1-1.6-2.4-1.6s-2.4.6-2.4,1.7,1.1,1.5,2.6,1.8c2,.4,3.7.9,3.7,2.9s-1.8,3.1-3.9,3.1-3.6-1.2-3.8-2.8h1.3ZM292.8,339.7v-1.2h1.9c0-.7,0-1.2.2-1.8.4-1.8,1.7-3.1,4-3.1s.5,0,.6,0v1.2h-.5c-1.6,0-2.5.9-2.8,2.1-.1.4-.1.9-.1,1.5h3v1.2h-3v9h-1.3v-9h-1.9ZM301.3,348.7v-15h1.3v15h-1.3ZM308.8,348.8c-1.9,0-3.3-1.1-3.3-3.1s.6-2.3,1.9-2.8c.6-.2,1.4-.4,2.9-.4h1.9v-.6c0-1.7-.9-2.6-2.6-2.6s-2.4.8-2.6,1.9h-1.3c.1-1.9,1.7-3.1,3.9-3.1s3.8,1.3,3.8,3.6v6.9h-1.3v-1.7c-.5.7-1.4,1.8-3.4,1.8ZM306.9,345.6c0,1.2,1,1.9,2.2,1.9s3.2-1.1,3.2-2.9v-1h-1.8c-1,0-1.9,0-2.5.3-.7.3-1.1.8-1.1,1.6ZM321.3,348.7c-2,0-3.1-1.1-3.5-2.3-.2-.7-.3-1.6-.3-2.1v-4.6h-1.9v-1.2h1.9v-3.6h1.3v3.6h3v1.2h-3v4.4c0,.8,0,1.3.2,1.8.3,1,1,1.6,2.6,1.6h.7v1.2c-.3,0-.8,0-1,0ZM332.7,348.8c-1.4,0-2.6-.6-3.4-1.5-.8-.9-1.2-2.2-1.2-3.5v-.9c0-1.4.4-2.6,1.2-3.5.8-.9,2-1.5,3.4-1.5s2.6.6,3.4,1.5c.8.9,1.2,2.2,1.2,3.5v.9c0,1.3-.4,2.6-1.2,3.5-.8.9-2,1.5-3.4,1.5ZM329.4,343.9c0,1,.3,2,.9,2.7.6.7,1.4,1,2.4,1s1.8-.3,2.4-1c.7-.7.9-1.7.9-2.7v-.8c0-1-.3-2-.9-2.7-.6-.7-1.4-1-2.4-1s-1.8.4-2.4,1c-.7.7-.9,1.7-.9,2.7v.8ZM340.3,348.7v-10.4h1.3v1.7c.4-.8,1.4-1.8,3.3-1.8s2.9.8,3.5,2.2c.2.5.3,1.2.3,2.1v6.2h-1.3v-5.9c0-.8,0-1.4-.3-1.9-.4-.9-1.3-1.5-2.6-1.5s-2.2.6-2.6,1.5c-.2.5-.3,1.1-.3,1.9v5.8h-1.3ZM360.6,348.7c-2,0-3.1-1.1-3.5-2.3-.2-.7-.3-1.6-.3-2.1v-4.6h-1.9v-1.2h1.9v-3.6h1.3v3.6h3v1.2h-3v4.4c0,.8,0,1.3.2,1.8.3,1,1,1.6,2.6,1.6h.7v1.2c-.3,0-.8,0-1,0ZM363.9,348.7v-15h1.3v6.3c.4-.8,1.4-1.8,3.3-1.8s2.9.8,3.5,2.2c.2.5.3,1.2.3,2.1v6.2h-1.3v-5.9c0-.8,0-1.4-.3-1.9-.4-.9-1.3-1.5-2.6-1.5s-2.2.6-2.6,1.5c-.2.5-.3,1.1-.3,1.9v5.8h-1.3ZM379.7,348.8c-1.4,0-2.6-.5-3.4-1.5-.8-.9-1.2-2.1-1.2-3.5v-.9c0-1.4.4-2.6,1.2-3.5.8-.9,2-1.5,3.3-1.5s2.4.5,3.2,1.4c.8.9,1.2,2.2,1.2,3.7v.7h-7.7c0,1.1.3,2,.8,2.6.6.7,1.5,1.1,2.5,1.1s2.4-.6,2.8-1.6h1.3c-.5,1.8-2.3,2.8-4.2,2.8ZM376.4,342.7h6.4c-.1-2.1-1.4-3.3-3.2-3.3s-1.7.4-2.3,1c-.5.6-.9,1.4-.9,2.3ZM391.6,346.1c.2.9,1,1.6,2.6,1.6s2.5-.7,2.5-1.8-1.3-1.5-2.8-1.8c-1.5-.3-3.4-.8-3.4-3s1.8-3,3.7-3,3.5,1.2,3.6,2.7h-1.3c-.2-.8-1-1.6-2.4-1.6s-2.4.6-2.4,1.7,1.1,1.5,2.6,1.8c2,.4,3.7.9,3.7,2.9s-1.8,3.1-3.9,3.1-3.6-1.2-3.8-2.8h1.3ZM404.2,344.3c-.4-.5-.5-.6-1.1-.6h-.9v5h-1.3v-15h1.3v8.9h.8c.5,0,.7,0,1.1-.6l3.6-3.7h1.7l-4.6,4.8,4.6,5.6h-1.7l-3.6-4.4ZM411.5,348.7v-10.4h1.3v10.4h-1.3ZM411.1,334.9c0-.6.4-1,1-1s1,.4,1,1-.4,1-1,1-1-.4-1-1ZM416.4,348.7v-10.4h1.3v1.7c.4-.8,1.4-1.8,3.3-1.8s2.9.8,3.5,2.2c.2.5.3,1.2.3,2.1v6.2h-1.3v-5.9c0-.8,0-1.4-.3-1.9-.4-.9-1.3-1.5-2.6-1.5s-2.2.6-2.6,1.5c-.2.5-.3,1.1-.3,1.9v5.8h-1.3ZM427.7,350.3c.5-.2.9-.9,1-1.8-.5,0-.9-.4-.9-1s.4-1,1-1,1.1.6,1.1,1.4c0,1.3-.8,2.9-2.1,3.1v-.8ZM441,348.8c-1.4,0-2.6-.5-3.4-1.5-.8-.9-1.2-2.1-1.2-3.5v-.9c0-1.4.4-2.6,1.2-3.5.8-.9,2-1.5,3.3-1.5s2.4.5,3.2,1.4c.8.9,1.2,2.2,1.2,3.7v.7h-7.7c0,1.1.3,2,.8,2.6.6.7,1.5,1.1,2.5,1.1s2.4-.6,2.8-1.6h1.3c-.5,1.8-2.3,2.8-4.2,2.8ZM437.6,342.7h6.4c-.1-2.1-1.4-3.3-3.2-3.3s-1.7.4-2.3,1c-.5.6-.9,1.4-.9,2.3ZM448.2,348.7v-10.4h1.3v1.7c.4-.8,1.4-1.8,3.3-1.8s2.9.8,3.5,2.2c.2.5.3,1.2.3,2.1v6.2h-1.3v-5.9c0-.8,0-1.4-.3-1.9-.4-.9-1.3-1.5-2.6-1.5s-2.2.6-2.6,1.5c-.2.5-.3,1.1-.3,1.9v5.8h-1.3ZM460.6,346.1c.2.9,1,1.6,2.6,1.6s2.5-.7,2.5-1.8-1.3-1.5-2.8-1.8c-1.5-.3-3.4-.8-3.4-3s1.8-3,3.7-3,3.5,1.2,3.6,2.7h-1.3c-.2-.8-1-1.6-2.4-1.6s-2.4.6-2.4,1.7,1.1,1.5,2.6,1.8c2,.4,3.7.9,3.7,2.9s-1.8,3.1-3.9,3.1-3.6-1.2-3.8-2.8h1.3ZM474,348.8c-1.6,0-3-.8-3.6-1.9-.4-.6-.6-1.4-.6-2.8v-5.8h1.3v5.5c0,1.1.1,1.8.4,2.3.4.9,1.3,1.4,2.5,1.4s2.1-.5,2.5-1.4c.2-.5.4-1.2.4-2.3v-5.5h1.3v5.8c0,1.4-.2,2.2-.5,2.8-.7,1.2-2,1.9-3.6,1.9ZM481.7,348.7v-10.4h1.3v2.1c.4-.8,1.3-2.3,4-2.1v1.4c-2.7-.1-3.9,1.2-3.9,3.3v5.7h-1.3ZM489,348.7v-10.4h1.3v10.4h-1.3ZM488.7,334.9c0-.6.4-1,1-1s1,.4,1,1-.4,1-1,1-1-.4-1-1ZM493.9,348.7v-10.4h1.3v1.7c.4-.8,1.4-1.8,3.3-1.8s2.9.8,3.5,2.2c.2.5.3,1.2.3,2.1v6.2h-1.3v-5.9c0-.8,0-1.4-.3-1.9-.4-.9-1.3-1.5-2.6-1.5s-2.2.6-2.6,1.5c-.2.5-.3,1.1-.3,1.9v5.8h-1.3ZM509.6,352.9c-2,0-3.7-1.1-4.1-2.7h1.4c.5.9,1.5,1.5,2.7,1.5s2.6-.9,3.1-2.3c.2-.6.3-1.3.3-2.4v-.6c-.4.9-1.5,2.1-3.5,2.1s-2.3-.5-3.1-1.4c-.9-1-1.2-2.2-1.2-3.5v-.7c0-1.3.4-2.5,1.2-3.4s2-1.4,3.3-1.4c2.1,0,3.1,1.3,3.4,2v-1.9h1.3v8.8c0,1.3-.1,2.1-.4,2.8-.6,1.8-2.2,3-4.4,3ZM506.5,343.6c0,1,.3,2,.9,2.7.6.7,1.4,1,2.4,1s1.8-.3,2.4-1c.6-.7.9-1.7.9-2.7v-.5c0-1-.3-2-.9-2.7-.6-.7-1.4-1-2.4-1s-1.8.4-2.4,1c-.7.7-.9,1.7-.9,2.7v.5ZM524.6,348.8c-1.9,0-3.3-1.1-3.3-3.1s.6-2.3,1.9-2.8c.6-.2,1.4-.4,2.9-.4h1.9v-.6c0-1.7-.9-2.6-2.6-2.6s-2.4.8-2.6,1.9h-1.3c.1-1.9,1.7-3.1,3.9-3.1s3.8,1.3,3.8,3.6v6.9h-1.3v-1.7c-.5.7-1.4,1.8-3.4,1.8ZM522.7,345.6c0,1.2,1,1.9,2.2,1.9s3.2-1.1,3.2-2.9v-1h-1.8c-1,0-1.9,0-2.5.3-.7.3-1.1.8-1.1,1.6ZM203.3,376.7v-15h1.3v6.3c.4-.8,1.4-1.8,3.3-1.8s2.9.8,3.5,2.2c.2.5.3,1.2.3,2.1v6.2h-1.3v-5.9c0-.8,0-1.4-.3-1.9-.4-.9-1.3-1.5-2.6-1.5s-2.2.6-2.6,1.5c-.2.5-.3,1.1-.3,1.9v5.8h-1.3ZM219.1,376.8c-1.4,0-2.6-.5-3.4-1.5-.8-.9-1.2-2.1-1.2-3.5v-.9c0-1.4.4-2.6,1.2-3.5.8-.9,2-1.5,3.3-1.5s2.4.5,3.2,1.4c.8.9,1.2,2.2,1.2,3.7v.7h-7.7c0,1.1.3,2,.8,2.6.6.7,1.5,1.1,2.5,1.1s2.4-.6,2.8-1.6h1.3c-.5,1.8-2.3,2.8-4.2,2.8ZM215.8,370.7h6.4c-.1-2.1-1.4-3.3-3.2-3.3s-1.7.4-2.3,1c-.5.6-.9,1.4-.9,2.3ZM229,376.8c-1.9,0-3.3-1.1-3.3-3.1s.6-2.3,1.9-2.8c.6-.2,1.4-.4,2.9-.4h1.9v-.6c0-1.7-.9-2.6-2.6-2.6s-2.4.8-2.6,1.9h-1.3c.1-1.9,1.7-3.1,3.9-3.1s3.8,1.3,3.8,3.6v6.9h-1.3v-1.7c-.5.7-1.4,1.8-3.4,1.8ZM227,373.6c0,1.2,1,1.9,2.2,1.9s3.2-1.1,3.2-2.9v-1h-1.8c-1,0-1.9,0-2.5.3-.7.3-1.1.8-1.1,1.6ZM237.2,376.7v-15h1.3v15h-1.3ZM246.4,376.7c-2,0-3.1-1.1-3.5-2.3-.2-.7-.3-1.6-.3-2.1v-4.6h-1.9v-1.2h1.9v-3.6h1.3v3.6h3v1.2h-3v4.4c0,.8,0,1.3.2,1.8.3,1,1,1.6,2.6,1.6h.7v1.2c-.3,0-.8,0-1,0ZM249.7,376.7v-15h1.3v6.3c.4-.8,1.4-1.8,3.3-1.8s2.9.8,3.5,2.2c.2.5.3,1.2.3,2.1v6.2h-1.3v-5.9c0-.8,0-1.4-.3-1.9-.4-.9-1.3-1.5-2.6-1.5s-2.2.6-2.6,1.5c-.2.5-.3,1.1-.3,1.9v5.8h-1.3ZM265.6,372.6l2.4-6.3h1.4l-5.5,14.6h-1.4l1.1-2.9c.2-.4.3-.8.3-1.2s-.1-.8-.3-1.1l-3.6-9.4h1.4l2.4,6.3,1,2.5.9-2.5ZM275.6,376.7v-10.4h1.3v10.4h-1.3ZM275.3,362.9c0-.6.4-1,1-1s1,.4,1,1-.4,1-1,1-1-.4-1-1ZM280.5,376.7v-10.4h1.3v1.7c.4-.8,1.4-1.8,3.3-1.8s2.9.8,3.5,2.2c.2.5.3,1.2.3,2.1v6.2h-1.3v-5.9c0-.8,0-1.4-.3-1.9-.4-.9-1.3-1.5-2.6-1.5s-2.2.6-2.6,1.5c-.2.5-.3,1.1-.3,1.9v5.8h-1.3ZM296.7,376.7c-2,0-3.1-1.1-3.5-2.3-.2-.7-.3-1.6-.3-2.1v-4.6h-1.9v-1.2h1.9v-3.6h1.3v3.6h3v1.2h-3v4.4c0,.8,0,1.3.2,1.8.3,1,1,1.6,2.6,1.6h.7v1.2c-.3,0-.8,0-1,0ZM303.9,376.8c-1.4,0-2.6-.5-3.4-1.5-.8-.9-1.2-2.1-1.2-3.5v-.9c0-1.4.4-2.6,1.2-3.5.8-.9,2-1.5,3.3-1.5s2.4.5,3.2,1.4c.8.9,1.2,2.2,1.2,3.7v.7h-7.7c0,1.1.3,2,.8,2.6.6.7,1.5,1.1,2.5,1.1s2.4-.6,2.8-1.6h1.3c-.5,1.8-2.3,2.8-4.2,2.8ZM300.6,370.7h6.4c-.1-2.1-1.4-3.3-3.2-3.3s-1.7.4-2.3,1c-.5.6-.9,1.4-.9,2.3ZM311.2,376.7v-10.4h1.3v2.1c.4-.8,1.3-2.3,4-2.1v1.4c-2.7-.1-3.9,1.2-3.9,3.3v5.7h-1.3ZM320.9,376.8c-1.9,0-3.3-1.1-3.3-3.1s.6-2.3,1.9-2.8c.6-.2,1.4-.4,2.9-.4h1.9v-.6c0-1.7-.9-2.6-2.6-2.6s-2.4.8-2.6,1.9h-1.3c.1-1.9,1.7-3.1,3.9-3.1s3.8,1.3,3.8,3.6v6.9h-1.3v-1.7c-.5.7-1.4,1.8-3.4,1.8ZM319,373.6c0,1.2,1,1.9,2.2,1.9s3.2-1.1,3.2-2.9v-1h-1.8c-1,0-1.9,0-2.5.3-.7.3-1.1.8-1.1,1.6ZM333.1,376.8c-1.4,0-2.5-.6-3.3-1.5-.8-.9-1.2-2.2-1.2-3.5v-.9c0-1.4.4-2.6,1.2-3.5.8-.9,2-1.5,3.4-1.5,2,0,3.8,1.3,4.1,3.3h-1.3c-.3-1.2-1.3-2.1-2.8-2.1s-1.7.4-2.3,1c-.6.7-.9,1.6-.9,2.7v.8c0,1.1.3,2,.9,2.7.6.7,1.4,1,2.3,1,1.4,0,2.5-.9,2.8-2.1h1.3c-.3,2-2.1,3.3-4.1,3.3ZM344.1,376.7c-2,0-3.1-1.1-3.5-2.3-.2-.7-.3-1.6-.3-2.1v-4.6h-1.9v-1.2h1.9v-3.6h1.3v3.6h3v1.2h-3v4.4c0,.8,0,1.3.2,1.8.3,1,1,1.6,2.6,1.6h.7v1.2c-.3,0-.8,0-1,0ZM347.4,376.7v-10.4h1.3v10.4h-1.3ZM347,362.9c0-.6.4-1,1-1s1,.4,1,1-.4,1-1,1-1-.4-1-1ZM356.3,376.8c-1.4,0-2.6-.6-3.4-1.5-.8-.9-1.2-2.2-1.2-3.5v-.9c0-1.4.4-2.6,1.2-3.5.8-.9,2-1.5,3.4-1.5s2.6.6,3.4,1.5c.8.9,1.2,2.2,1.2,3.5v.9c0,1.3-.4,2.6-1.2,3.5-.8.9-2,1.5-3.4,1.5ZM353,371.9c0,1,.3,2,.9,2.7.6.7,1.4,1,2.4,1s1.8-.3,2.4-1c.7-.7.9-1.7.9-2.7v-.8c0-1-.3-2-.9-2.7-.6-.7-1.4-1-2.4-1s-1.8.4-2.4,1c-.7.7-.9,1.7-.9,2.7v.8ZM363.9,376.7v-10.4h1.3v1.7c.4-.8,1.4-1.8,3.3-1.8s2.9.8,3.5,2.2c.2.5.3,1.2.3,2.1v6.2h-1.3v-5.9c0-.8,0-1.4-.3-1.9-.4-.9-1.3-1.5-2.6-1.5s-2.2.6-2.6,1.5c-.2.5-.3,1.1-.3,1.9v5.8h-1.3ZM381.8,376.7l-3.2-10.4h1.3l2.1,6.8.7,2.3.7-2.3,2.1-6.8h1.5l2.1,6.8.7,2.3.7-2.3,2-6.8h1.3l-3.2,10.4h-1.7l-2.8-8.8-2.7,8.8h-1.7ZM396.3,376.7v-10.4h1.3v10.4h-1.3ZM395.9,362.9c0-.6.4-1,1-1s1,.4,1,1-.4,1-1,1-1-.4-1-1ZM405.5,376.7c-2,0-3.1-1.1-3.5-2.3-.2-.7-.3-1.6-.3-2.1v-4.6h-1.9v-1.2h1.9v-3.6h1.3v3.6h3v1.2h-3v4.4c0,.8,0,1.3.2,1.8.3,1,1,1.6,2.6,1.6h.7v1.2c-.3,0-.8,0-1,0ZM408.8,376.7v-15h1.3v6.3c.4-.8,1.4-1.8,3.3-1.8s2.9.8,3.5,2.2c.2.5.3,1.2.3,2.1v6.2h-1.3v-5.9c0-.8,0-1.4-.3-1.9-.4-.9-1.3-1.5-2.6-1.5s-2.2.6-2.6,1.5c-.2.5-.3,1.1-.3,1.9v5.8h-1.3ZM428.9,372.6l2.4-6.3h1.4l-5.5,14.6h-1.4l1.1-2.9c.2-.4.3-.8.3-1.2s-.1-.8-.3-1.1l-3.6-9.4h1.4l2.4,6.3,1,2.5.9-2.5ZM438.8,376.8c-1.4,0-2.6-.6-3.4-1.5-.8-.9-1.2-2.2-1.2-3.5v-.9c0-1.4.4-2.6,1.2-3.5.8-.9,2-1.5,3.4-1.5s2.6.6,3.4,1.5c.8.9,1.2,2.2,1.2,3.5v.9c0,1.3-.4,2.6-1.2,3.5-.8.9-2,1.5-3.4,1.5ZM435.5,371.9c0,1,.3,2,.9,2.7.6.7,1.4,1,2.4,1s1.8-.3,2.4-1c.7-.7.9-1.7.9-2.7v-.8c0-1-.3-2-.9-2.7-.6-.7-1.4-1-2.4-1s-1.8.4-2.4,1c-.7.7-.9,1.7-.9,2.7v.8ZM450.5,376.8c-1.6,0-3-.8-3.6-1.9-.4-.6-.6-1.4-.6-2.8v-5.8h1.3v5.5c0,1.1.1,1.8.4,2.3.4.9,1.3,1.4,2.5,1.4s2.1-.5,2.5-1.4c.2-.5.4-1.2.4-2.3v-5.5h1.3v5.8c0,1.4-.2,2.2-.5,2.8-.7,1.2-2,1.9-3.6,1.9ZM458.2,376.7v-10.4h1.3v2.1c.4-.8,1.3-2.3,4-2.1v1.4c-2.7-.1-3.9,1.2-3.9,3.3v5.7h-1.3ZM470.1,374.1c.2.9,1,1.6,2.6,1.6s2.5-.7,2.5-1.8-1.3-1.5-2.8-1.8c-1.5-.3-3.4-.8-3.4-3s1.8-3,3.7-3,3.5,1.2,3.6,2.7h-1.3c-.2-.8-1-1.6-2.4-1.6s-2.4.6-2.4,1.7,1.1,1.5,2.6,1.8c2,.4,3.7.9,3.7,2.9s-1.8,3.1-3.9,3.1-3.6-1.2-3.8-2.8h1.3ZM482.7,372.3c-.4-.5-.5-.6-1.1-.6h-.9v5h-1.3v-15h1.3v8.9h.8c.5,0,.7,0,1.1-.6l3.6-3.7h1.7l-4.6,4.8,4.6,5.6h-1.7l-3.6-4.4ZM489.9,376.7v-10.4h1.3v10.4h-1.3ZM489.6,362.9c0-.6.4-1,1-1s1,.4,1,1-.4,1-1,1-1-.4-1-1ZM494.8,376.7v-10.4h1.3v1.7c.4-.8,1.4-1.8,3.3-1.8s2.9.8,3.5,2.2c.2.5.3,1.2.3,2.1v6.2h-1.3v-5.9c0-.8,0-1.4-.3-1.9-.4-.9-1.3-1.5-2.6-1.5s-2.2.6-2.6,1.5c-.2.5-.3,1.1-.3,1.9v5.8h-1.3ZM507.3,376.8c-.6,0-1.1-.5-1.1-1.1s.5-1.1,1.1-1.1,1.1.5,1.1,1.1-.5,1.1-1.1,1.1Z"/>
  <path class="cls-23" d="M147.1,710.8c-1.9,0-3.5-.8-4.6-2.1-1-1.2-1.6-2.9-1.6-4.9v-.9c0-2.1.6-3.7,1.6-4.9,1.1-1.3,2.7-2.1,4.6-2.1s3.5.8,4.6,2.1c1,1.2,1.6,2.9,1.6,4.9v.9c0,2.1-.6,3.7-1.6,4.9-1.1,1.3-2.7,2.1-4.6,2.1ZM142.3,703.8c0,1.8.5,3.2,1.3,4.2.8,1,2.1,1.6,3.5,1.6s2.6-.6,3.5-1.6c.8-1,1.3-2.4,1.3-4.2v-.7c0-1.8-.5-3.2-1.3-4.2-.8-1-2-1.6-3.5-1.6s-2.6.6-3.5,1.6c-.8,1-1.3,2.4-1.3,4.2v.7ZM156.4,710.7v-10.4h1.3v2.1c.4-.8,1.3-2.3,4-2.1v1.4c-2.7-.1-3.9,1.2-3.9,3.3v5.7h-1.3ZM167.1,710.8c-1.3,0-2.3-.5-3.1-1.4-.9-1-1.2-2.2-1.2-3.5v-.8c0-1.3.4-2.5,1.2-3.4.8-.9,2-1.4,3.3-1.4,2.1,0,3.1,1.4,3.4,2.1v-6.6h1.3v15h-1.3s0-2,0-2c-.4.8-1.5,2.1-3.5,2.1ZM164.1,705.8c0,1,.3,2,.9,2.7.6.7,1.4,1,2.4,1s1.8-.3,2.4-1c.6-.7.9-1.7.9-2.7v-.7c0-1-.3-2-.9-2.7-.6-.7-1.4-1-2.4-1s-1.8.4-2.4,1c-.7.7-.9,1.7-.9,2.7v.7ZM175.6,710.7v-10.4h1.3v10.4h-1.3ZM175.2,696.9c0-.6.4-1,1-1s1,.4,1,1-.4,1-1,1-1-.4-1-1ZM180.5,710.7v-10.4h1.3v1.7c.4-.8,1.4-1.8,3.3-1.8s2.9.8,3.5,2.2c.2.5.3,1.2.3,2.1v6.2h-1.3v-5.9c0-.8,0-1.4-.3-1.9-.4-.9-1.3-1.5-2.6-1.5s-2.2.6-2.6,1.5c-.2.5-.3,1.1-.3,1.9v5.8h-1.3ZM194.9,710.8c-1.9,0-3.3-1.1-3.3-3.1s.6-2.3,1.9-2.8c.6-.2,1.4-.4,2.9-.4h1.9v-.6c0-1.7-.9-2.6-2.6-2.6s-2.4.8-2.6,1.9h-1.3c.1-1.9,1.7-3.1,3.9-3.1s3.8,1.3,3.8,3.6v6.9h-1.3v-1.7c-.5.7-1.4,1.8-3.4,1.8ZM192.9,707.6c0,1.2,1,1.9,2.2,1.9s3.2-1.1,3.2-2.9v-1h-1.8c-1,0-1.9,0-2.5.3-.7.3-1.1.8-1.1,1.6ZM203.1,710.7v-10.4h1.3v2.1c.4-.8,1.3-2.3,4-2.1v1.4c-2.7-.1-3.9,1.2-3.9,3.3v5.7h-1.3ZM215.1,706.6l2.4-6.3h1.4l-5.5,14.6h-1.4l1.1-2.9c.2-.4.3-.8.3-1.2s-.1-.8-.3-1.1l-3.6-9.4h1.4l2.4,6.3,1,2.5.9-2.5ZM225.7,708.1c.2.9,1,1.6,2.6,1.6s2.5-.7,2.5-1.8-1.3-1.5-2.8-1.8c-1.5-.3-3.4-.8-3.4-3s1.8-3,3.7-3,3.5,1.2,3.6,2.7h-1.3c-.2-.8-1-1.6-2.4-1.6s-2.4.6-2.4,1.7,1.1,1.5,2.6,1.8c2,.4,3.7.9,3.7,2.9s-1.8,3.1-3.9,3.1-3.6-1.2-3.8-2.8h1.3ZM239.3,710.7c-2,0-3.1-1.1-3.5-2.3-.2-.7-.3-1.6-.3-2.1v-4.6h-1.9v-1.2h1.9v-3.6h1.3v3.6h3v1.2h-3v4.4c0,.8,0,1.3.2,1.8.3,1,1,1.6,2.6,1.6h.7v1.2c-.3,0-.8,0-1,0ZM242.6,710.7v-10.4h1.3v2.1c.4-.8,1.3-2.3,4-2.1v1.4c-2.7-.1-3.9,1.2-3.9,3.3v5.7h-1.3ZM252.3,710.8c-1.9,0-3.3-1.1-3.3-3.1s.6-2.3,1.9-2.8c.6-.2,1.4-.4,2.9-.4h1.9v-.6c0-1.7-.9-2.6-2.6-2.6s-2.4.8-2.6,1.9h-1.3c.1-1.9,1.7-3.1,3.9-3.1s3.8,1.3,3.8,3.6v6.9h-1.3v-1.7c-.5.7-1.4,1.8-3.4,1.8ZM250.4,707.6c0,1.2,1,1.9,2.2,1.9s3.2-1.1,3.2-2.9v-1h-1.8c-1,0-1.9,0-2.5.3-.7.3-1.1.8-1.1,1.6ZM260.5,710.7v-10.4h1.3v10.4h-1.3ZM260.2,696.9c0-.6.4-1,1-1s1,.4,1,1-.4,1-1,1-1-.4-1-1ZM269.3,714.9c-2,0-3.7-1.1-4.1-2.7h1.4c.5.9,1.5,1.5,2.7,1.5s2.6-.9,3.1-2.3c.2-.6.3-1.3.3-2.4v-.6c-.4.9-1.5,2.1-3.5,2.1s-2.3-.5-3.1-1.4c-.9-1-1.2-2.2-1.2-3.5v-.7c0-1.3.4-2.5,1.2-3.4.8-.9,2-1.4,3.3-1.4,2.1,0,3.1,1.3,3.4,2v-1.9h1.3v8.8c0,1.3-.1,2.1-.4,2.8-.6,1.8-2.2,3-4.4,3ZM266.2,705.6c0,1,.3,2,.9,2.7.6.7,1.4,1,2.4,1s1.8-.3,2.4-1c.6-.7.9-1.7.9-2.7v-.5c0-1-.3-2-.9-2.7-.6-.7-1.4-1-2.4-1s-1.8.4-2.4,1c-.7.7-.9,1.7-.9,2.7v.5ZM277.7,710.7v-15h1.3v6.3c.4-.8,1.4-1.8,3.3-1.8s2.9.8,3.5,2.2c.2.5.3,1.2.3,2.1v6.2h-1.3v-5.9c0-.8,0-1.4-.3-1.9-.4-.9-1.3-1.5-2.6-1.5s-2.2.6-2.6,1.5c-.2.5-.3,1.1-.3,1.9v5.8h-1.3ZM293.8,710.7c-2,0-3.1-1.1-3.5-2.3-.2-.7-.3-1.6-.3-2.1v-4.6h-1.9v-1.2h1.9v-3.6h1.3v3.6h3v1.2h-3v4.4c0,.8,0,1.3.2,1.8.3,1,1,1.6,2.6,1.6h.7v1.2c-.3,0-.8,0-1,0ZM305.8,710.8c-2.1,0-3-1.3-3.4-2v1.9h-1.3v-15h1.3v6.7c.4-.9,1.5-2.1,3.6-2.1s2.3.5,3.1,1.4c.8.9,1.2,2.2,1.2,3.5v.8c0,1.3-.4,2.6-1.2,3.5-.8.9-2,1.4-3.3,1.4ZM302.4,705.8c0,1,.3,2,.9,2.7.6.7,1.4,1,2.4,1s1.8-.3,2.4-1c.6-.7.9-1.7.9-2.7v-.7c0-1-.3-2-.9-2.7-.6-.7-1.4-1-2.4-1s-1.8.3-2.4,1c-.6.7-.9,1.7-.9,2.7v.7ZM313.4,710.7v-15h1.3v15h-1.3ZM320.9,710.8c-1.9,0-3.3-1.1-3.3-3.1s.6-2.3,1.9-2.8c.6-.2,1.4-.4,2.9-.4h1.9v-.6c0-1.7-.9-2.6-2.6-2.6s-2.4.8-2.6,1.9h-1.3c.1-1.9,1.7-3.1,3.9-3.1s3.8,1.3,3.8,3.6v6.9h-1.3v-1.7c-.5.7-1.4,1.8-3.4,1.8ZM318.9,707.6c0,1.2,1,1.9,2.2,1.9s3.2-1.1,3.2-2.9v-1h-1.8c-1,0-1.9,0-2.5.3-.7.3-1.1.8-1.1,1.6ZM332.8,710.8c-1.3,0-2.3-.5-3.1-1.4-.9-1-1.2-2.2-1.2-3.5v-.8c0-1.3.4-2.5,1.2-3.4.8-.9,2-1.4,3.3-1.4,2.1,0,3.1,1.4,3.4,2.1v-6.6h1.3v15h-1.3s0-2,0-2c-.4.8-1.5,2.1-3.5,2.1ZM329.8,705.8c0,1,.3,2,.9,2.7.6.7,1.4,1,2.4,1s1.8-.3,2.4-1c.6-.7.9-1.7.9-2.7v-.7c0-1-.3-2-.9-2.7-.6-.7-1.4-1-2.4-1s-1.8.4-2.4,1c-.7.7-.9,1.7-.9,2.7v.7ZM345.3,710.8c-1.4,0-2.6-.5-3.4-1.5-.8-.9-1.2-2.1-1.2-3.5v-.9c0-1.4.4-2.6,1.2-3.5.8-.9,2-1.5,3.3-1.5s2.4.5,3.2,1.4c.8.9,1.2,2.2,1.2,3.7v.7h-7.7c0,1.1.3,2,.8,2.6.6.7,1.5,1.1,2.5,1.1s2.4-.6,2.8-1.6h1.3c-.5,1.8-2.3,2.8-4.2,2.8ZM342,704.7h6.4c0-2.1-1.4-3.3-3.2-3.3s-1.7.4-2.3,1c-.5.6-.9,1.4-.9,2.3ZM360.4,710.8c-1.3,0-2.3-.5-3.1-1.4-.9-1-1.2-2.2-1.2-3.5v-.8c0-1.3.4-2.5,1.2-3.4.8-.9,2-1.4,3.3-1.4,2.1,0,3.1,1.4,3.4,2.1v-6.6h1.3v15h-1.3s0-2,0-2c-.4.8-1.5,2.1-3.5,2.1ZM357.3,705.8c0,1,.3,2,.9,2.7.6.7,1.4,1,2.4,1s1.8-.3,2.4-1c.6-.7.9-1.7.9-2.7v-.7c0-1-.3-2-.9-2.7-.6-.7-1.4-1-2.4-1s-1.8.4-2.4,1c-.7.7-.9,1.7-.9,2.7v.7ZM372.9,710.8c-1.4,0-2.6-.5-3.4-1.5-.8-.9-1.2-2.1-1.2-3.5v-.9c0-1.4.4-2.6,1.2-3.5.8-.9,2-1.5,3.3-1.5s2.4.5,3.2,1.4c.8.9,1.2,2.2,1.2,3.7v.7h-7.7c0,1.1.3,2,.8,2.6.6.7,1.5,1.1,2.5,1.1s2.4-.6,2.8-1.6h1.3c-.5,1.8-2.3,2.8-4.2,2.8ZM369.5,704.7h6.4c0-2.1-1.4-3.3-3.2-3.3s-1.7.4-2.3,1c-.5.6-.9,1.4-.9,2.3ZM380.1,710.7v-10.4h1.3v2.1c.4-.8,1.3-2.3,4-2.1v1.4c-2.7-.1-3.9,1.2-3.9,3.3v5.7h-1.3ZM387.4,710.7v-10.4h1.3v1.7c.4-.8,1.4-1.8,3.1-1.8s2.7.8,3.3,2.2c.4-.9,1.5-2.2,3.4-2.2s2.8.9,3.3,2.2c.2.5.3,1.2.3,2.1v6.2h-1.3v-5.9c0-.8,0-1.4-.3-1.9-.4-.9-1.3-1.5-2.4-1.5s-2,.6-2.4,1.5c-.2.5-.3,1.1-.3,1.9v5.8h-1.3v-5.9c0-.8,0-1.4-.3-1.9-.4-.9-1.3-1.5-2.4-1.5s-2,.6-2.4,1.5c-.2.5-.3,1.1-.3,1.9v5.8h-1.3ZM408.2,710.8c-1.9,0-3.3-1.1-3.3-3.1s.6-2.3,1.9-2.8c.6-.2,1.4-.4,2.9-.4h1.9v-.6c0-1.7-.9-2.6-2.6-2.6s-2.4.8-2.6,1.9h-1.3c.1-1.9,1.7-3.1,3.9-3.1s3.8,1.3,3.8,3.6v6.9h-1.3v-1.7c-.5.7-1.4,1.8-3.4,1.8ZM406.2,707.6c0,1.2,1,1.9,2.2,1.9s3.2-1.1,3.2-2.9v-1h-1.8c-1,0-1.9,0-2.5.3-.7.3-1.1.8-1.1,1.6ZM421,709.5c.9,0,1.8-.3,2.4-1,.6-.7.9-1.7.9-2.7v-.7c0-1-.3-2-.9-2.7-.6-.7-1.4-1-2.4-1s-1.8.3-2.4,1c-.6.7-.9,1.7-.9,2.7v.7c0,1,.3,2,.9,2.7.6.7,1.4,1,2.4,1ZM416.4,714.9v-14.6h1.3v2c.4-.9,1.5-2.1,3.6-2.1s2.3.5,3.1,1.4c.8.9,1.2,2.2,1.2,3.5v.8c0,1.3-.4,2.6-1.2,3.5-.8.9-2,1.4-3.3,1.4-2.1,0-3-1.3-3.4-2v6.1h-1.3ZM428.6,710.7v-15h1.3v15h-1.3ZM436.1,710.8c-1.9,0-3.3-1.1-3.3-3.1s.6-2.3,1.9-2.8c.6-.2,1.4-.4,2.9-.4h1.9v-.6c0-1.7-.9-2.6-2.6-2.6s-2.4.8-2.6,1.9h-1.3c.1-1.9,1.7-3.1,3.9-3.1s3.8,1.3,3.8,3.6v6.9h-1.3v-1.7c-.5.7-1.4,1.8-3.4,1.8ZM434.1,707.6c0,1.2,1,1.9,2.2,1.9s3.2-1.1,3.2-2.9v-1h-1.8c-1,0-1.9,0-2.5.3-.7.3-1.1.8-1.1,1.6ZM444.3,710.7v-10.4h1.3v1.7c.4-.8,1.4-1.8,3.3-1.8s2.9.8,3.5,2.2c.2.5.3,1.2.3,2.1v6.2h-1.3v-5.9c0-.8,0-1.4-.3-1.9-.4-.9-1.3-1.5-2.6-1.5s-2.2.6-2.6,1.5c-.2.5-.3,1.1-.3,1.9v5.8h-1.3ZM456.2,710.7v-10.4h1.3v10.4h-1.3ZM455.8,696.9c0-.6.4-1,1-1s1,.4,1,1-.4,1-1,1-1-.4-1-1ZM461.1,710.7v-10.4h1.3v1.7c.4-.8,1.4-1.8,3.3-1.8s2.9.8,3.5,2.2c.2.5.3,1.2.3,2.1v6.2h-1.3v-5.9c0-.8,0-1.4-.3-1.9-.4-.9-1.3-1.5-2.6-1.5s-2.2.6-2.6,1.5c-.2.5-.3,1.1-.3,1.9v5.8h-1.3ZM476.8,714.9c-2,0-3.7-1.1-4.1-2.7h1.4c.5.9,1.5,1.5,2.7,1.5s2.6-.9,3.1-2.3c.2-.6.3-1.3.3-2.4v-.6c-.4.9-1.5,2.1-3.5,2.1s-2.3-.5-3.1-1.4c-.9-1-1.2-2.2-1.2-3.5v-.7c0-1.3.4-2.5,1.2-3.4.8-.9,2-1.4,3.3-1.4,2.1,0,3.1,1.3,3.4,2v-1.9h1.3v8.8c0,1.3-.1,2.1-.4,2.8-.6,1.8-2.2,3-4.4,3ZM473.7,705.6c0,1,.3,2,.9,2.7.6.7,1.4,1,2.4,1s1.8-.3,2.4-1c.6-.7.9-1.7.9-2.7v-.5c0-1-.3-2-.9-2.7-.6-.7-1.4-1-2.4-1s-1.8.4-2.4,1c-.7.7-.9,1.7-.9,2.7v.5ZM493.6,710.7c-2,0-3.1-1.1-3.5-2.3-.2-.7-.3-1.6-.3-2.1v-4.6h-1.9v-1.2h1.9v-3.6h1.3v3.6h3v1.2h-3v4.4c0,.8,0,1.3.2,1.8.3,1,1,1.6,2.6,1.6h.7v1.2c-.3,0-.8,0-1,0ZM500.8,710.8c-1.4,0-2.6-.6-3.4-1.5-.8-.9-1.2-2.2-1.2-3.5v-.9c0-1.4.4-2.6,1.2-3.5.8-.9,2-1.5,3.4-1.5s2.6.6,3.4,1.5c.8.9,1.2,2.2,1.2,3.5v.9c0,1.3-.4,2.6-1.2,3.5-.8.9-2,1.5-3.4,1.5ZM497.5,705.9c0,1,.3,2,.9,2.7.6.7,1.4,1,2.4,1s1.8-.3,2.4-1c.7-.7.9-1.7.9-2.7v-.8c0-1-.3-2-.9-2.7-.6-.7-1.4-1-2.4-1s-1.8.4-2.4,1c-.7.7-.9,1.7-.9,2.7v.8ZM512.6,710.8c-1.4,0-2.6-.6-3.4-1.5-.8-.9-1.2-2.2-1.2-3.5v-.9c0-1.4.4-2.6,1.2-3.5.8-.9,2-1.5,3.4-1.5s2.6.6,3.4,1.5c.8.9,1.2,2.2,1.2,3.5v.9c0,1.3-.4,2.6-1.2,3.5-.8.9-2,1.5-3.4,1.5ZM509.3,705.9c0,1,.3,2,.9,2.7.6.7,1.4,1,2.4,1s1.8-.3,2.4-1c.7-.7.9-1.7.9-2.7v-.8c0-1-.3-2-.9-2.7-.6-.7-1.4-1-2.4-1s-1.8.4-2.4,1c-.7.7-.9,1.7-.9,2.7v.8ZM520.2,710.7v-15h1.3v15h-1.3ZM525.7,708.1c.2.9,1,1.6,2.6,1.6s2.5-.7,2.5-1.8-1.3-1.5-2.8-1.8c-1.5-.3-3.4-.8-3.4-3s1.8-3,3.7-3,3.5,1.2,3.6,2.7h-1.3c-.2-.8-1-1.6-2.4-1.6s-2.4.6-2.4,1.7,1.1,1.5,2.6,1.8c2,.4,3.7.9,3.7,2.9s-1.8,3.1-3.9,3.1-3.6-1.2-3.8-2.8h1.3ZM543,710.8c-1.4,0-2.5-.6-3.3-1.5-.8-.9-1.2-2.2-1.2-3.5v-.9c0-1.4.4-2.6,1.2-3.5.8-.9,2-1.5,3.4-1.5,2,0,3.8,1.3,4.1,3.3h-1.3c-.3-1.2-1.3-2.1-2.8-2.1s-1.7.4-2.3,1c-.6.7-.9,1.6-.9,2.7v.8c0,1.1.3,2,.9,2.7.6.7,1.4,1,2.3,1,1.4,0,2.5-.9,2.8-2.1h1.3c-.3,2-2.1,3.3-4.1,3.3ZM552.3,710.8c-1.9,0-3.3-1.1-3.3-3.1s.6-2.3,1.9-2.8c.6-.2,1.4-.4,2.9-.4h1.9v-.6c0-1.7-.9-2.6-2.6-2.6s-2.4.8-2.6,1.9h-1.3c.1-1.9,1.7-3.1,3.9-3.1s3.8,1.3,3.8,3.6v6.9h-1.3v-1.7c-.5.7-1.4,1.8-3.4,1.8ZM550.3,707.6c0,1.2,1,1.9,2.2,1.9s3.2-1.1,3.2-2.9v-1h-1.8c-1,0-1.9,0-2.5.3-.7.3-1.1.8-1.1,1.6ZM560.5,710.7v-10.4h1.3v1.7c.4-.8,1.4-1.8,3.3-1.8s2.9.8,3.5,2.2c.2.5.3,1.2.3,2.1v6.2h-1.3v-5.9c0-.8,0-1.4-.3-1.9-.4-.9-1.3-1.5-2.6-1.5s-2.2.6-2.6,1.5c-.2.5-.3,1.1-.3,1.9v5.8h-1.3ZM249.1,738.8c-2.1,0-3-1.3-3.4-2v1.9h-1.3v-15h1.3v6.7c.4-.9,1.5-2.1,3.6-2.1s2.3.5,3.1,1.4c.8.9,1.2,2.2,1.2,3.5v.8c0,1.3-.4,2.6-1.2,3.5-.8.9-2,1.4-3.3,1.4ZM245.7,733.8c0,1,.3,2,.9,2.7.6.7,1.4,1,2.4,1s1.8-.3,2.4-1c.6-.7.9-1.7.9-2.7v-.7c0-1-.3-2-.9-2.7-.6-.7-1.4-1-2.4-1s-1.8.3-2.4,1c-.6.7-.9,1.7-.9,2.7v.7ZM260.7,738.8c-1.6,0-3-.8-3.6-1.9-.4-.6-.6-1.4-.6-2.8v-5.8h1.3v5.5c0,1.1.1,1.8.4,2.3.4.9,1.3,1.4,2.5,1.4s2.1-.5,2.5-1.4c.2-.5.4-1.2.4-2.3v-5.5h1.3v5.8c0,1.4-.2,2.2-.5,2.8-.7,1.2-2,1.9-3.6,1.9ZM268.4,738.7v-15h1.3v15h-1.3ZM277.1,742.9c-2,0-3.7-1.1-4.1-2.7h1.4c.5.9,1.5,1.5,2.7,1.5s2.6-.9,3.1-2.3c.2-.6.3-1.3.3-2.4v-.6c-.4.9-1.5,2.1-3.5,2.1s-2.3-.5-3.1-1.4c-.9-1-1.2-2.2-1.2-3.5v-.7c0-1.3.4-2.5,1.2-3.4.8-.9,2-1.4,3.3-1.4,2.1,0,3.1,1.3,3.4,2v-1.9h1.3v8.8c0,1.3-.1,2.1-.4,2.8-.6,1.8-2.2,3-4.4,3ZM274,733.6c0,1,.3,2,.9,2.7.6.7,1.4,1,2.4,1s1.8-.3,2.4-1c.6-.7.9-1.7.9-2.7v-.5c0-1-.3-2-.9-2.7-.6-.7-1.4-1-2.4-1s-1.8.4-2.4,1c-.7.7-.9,1.7-.9,2.7v.5ZM289.5,738.8c-1.4,0-2.6-.5-3.4-1.5-.8-.9-1.2-2.1-1.2-3.5v-.9c0-1.4.4-2.6,1.2-3.5.8-.9,2-1.5,3.3-1.5s2.4.5,3.2,1.4c.8.9,1.2,2.2,1.2,3.7v.7h-7.7c0,1.1.3,2,.8,2.6.6.7,1.5,1.1,2.5,1.1s2.4-.6,2.8-1.6h1.3c-.5,1.8-2.3,2.8-4.2,2.8ZM286.2,732.7h6.4c-.1-2.1-1.4-3.3-3.2-3.3s-1.7.4-2.3,1c-.5.6-.9,1.4-.9,2.3ZM304.9,738.8c-1.4,0-2.6-.6-3.4-1.5-.8-.9-1.2-2.2-1.2-3.5v-.9c0-1.4.4-2.6,1.2-3.5.8-.9,2-1.5,3.4-1.5s2.6.6,3.4,1.5c.8.9,1.2,2.2,1.2,3.5v.9c0,1.3-.4,2.6-1.2,3.5-.8.9-2,1.5-3.4,1.5ZM301.6,733.9c0,1,.3,2,.9,2.7.6.7,1.4,1,2.4,1s1.8-.3,2.4-1c.7-.7.9-1.7.9-2.7v-.8c0-1-.3-2-.9-2.7-.6-.7-1.4-1-2.4-1s-1.8.4-2.4,1c-.7.7-.9,1.7-.9,2.7v.8ZM312.5,738.7v-10.4h1.3v2.1c.4-.8,1.3-2.3,4-2.1v1.4c-2.7-.1-3.9,1.2-3.9,3.3v5.7h-1.3ZM327.6,738.8c-1.3,0-2.3-.5-3.1-1.4-.9-1-1.2-2.2-1.2-3.5v-.8c0-1.3.4-2.5,1.2-3.4.8-.9,2-1.4,3.3-1.4,2.1,0,3.1,1.4,3.4,2.1v-6.6h1.3v15h-1.3s0-2,0-2c-.4.8-1.5,2.1-3.5,2.1ZM324.6,733.8c0,1,.3,2,.9,2.7.6.7,1.4,1,2.4,1s1.8-.3,2.4-1c.6-.7.9-1.7.9-2.7v-.7c0-1-.3-2-.9-2.7-.6-.7-1.4-1-2.4-1s-1.8.4-2.4,1c-.7.7-.9,1.7-.9,2.7v.7ZM336.1,738.7v-10.4h1.3v10.4h-1.3ZM335.7,724.9c0-.6.4-1,1-1s1,.4,1,1-.4,1-1,1-1-.4-1-1ZM344.8,742.9c-2,0-3.7-1.1-4.1-2.7h1.4c.5.9,1.5,1.5,2.7,1.5s2.6-.9,3.1-2.3c.2-.6.3-1.3.3-2.4v-.6c-.4.9-1.5,2.1-3.5,2.1s-2.3-.5-3.1-1.4c-.9-1-1.2-2.2-1.2-3.5v-.7c0-1.3.4-2.5,1.2-3.4.8-.9,2-1.4,3.3-1.4,2.1,0,3.1,1.3,3.4,2v-1.9h1.3v8.8c0,1.3-.1,2.1-.4,2.8-.6,1.8-2.2,3-4.4,3ZM341.7,733.6c0,1,.3,2,.9,2.7.6.7,1.4,1,2.4,1s1.8-.3,2.4-1c.6-.7.9-1.7.9-2.7v-.5c0-1-.3-2-.9-2.7-.6-.7-1.4-1-2.4-1s-1.8.4-2.4,1c-.7.7-.9,1.7-.9,2.7v.5ZM357.3,738.7v-10.4h1.3v10.4h-1.3ZM356.9,724.9c0-.6.4-1,1-1s1,.4,1,1-.4,1-1,1-1-.4-1-1ZM362.2,738.7v-10.4h1.3v1.7c.4-.8,1.4-1.8,3.3-1.8s2.9.8,3.5,2.2c.2.5.3,1.2.3,2.1v6.2h-1.3v-5.9c0-.8,0-1.4-.3-1.9-.4-.9-1.3-1.5-2.6-1.5s-2.2.6-2.6,1.5c-.2.5-.3,1.1-.3,1.9v5.8h-1.3ZM378.3,738.7c-2,0-3.1-1.1-3.5-2.3-.2-.7-.3-1.6-.3-2.1v-4.6h-1.9v-1.2h1.9v-3.6h1.3v3.6h3v1.2h-3v4.4c0,.8,0,1.3.2,1.8.3,1,1,1.6,2.6,1.6h.7v1.2c-.3,0-.8,0-1,0ZM385.6,738.8c-1.4,0-2.6-.6-3.4-1.5-.8-.9-1.2-2.2-1.2-3.5v-.9c0-1.4.4-2.6,1.2-3.5.8-.9,2-1.5,3.4-1.5s2.6.6,3.4,1.5c.8.9,1.2,2.2,1.2,3.5v.9c0,1.3-.4,2.6-1.2,3.5-.8.9-2,1.5-3.4,1.5ZM382.3,733.9c0,1,.3,2,.9,2.7.6.7,1.4,1,2.4,1s1.8-.3,2.4-1c.7-.7.9-1.7.9-2.7v-.8c0-1-.3-2-.9-2.7-.6-.7-1.4-1-2.4-1s-1.8.4-2.4,1c-.7.7-.9,1.7-.9,2.7v.8ZM401.7,738.7c-2,0-3.1-1.1-3.5-2.3-.2-.7-.3-1.6-.3-2.1v-4.6h-1.9v-1.2h1.9v-3.6h1.3v3.6h3v1.2h-3v4.4c0,.8,0,1.3.2,1.8.3,1,1,1.6,2.6,1.6h.7v1.2c-.3,0-.8,0-1,0ZM404.9,738.7v-15h1.3v6.3c.4-.8,1.4-1.8,3.3-1.8s2.9.8,3.5,2.2c.2.5.3,1.2.3,2.1v6.2h-1.3v-5.9c0-.8,0-1.4-.3-1.9-.4-.9-1.3-1.5-2.6-1.5s-2.2.6-2.6,1.5c-.2.5-.3,1.1-.3,1.9v5.8h-1.3ZM420.8,738.8c-1.4,0-2.6-.5-3.4-1.5-.8-.9-1.2-2.1-1.2-3.5v-.9c0-1.4.4-2.6,1.2-3.5.8-.9,2-1.5,3.3-1.5s2.4.5,3.2,1.4c.8.9,1.2,2.2,1.2,3.7v.7h-7.7c0,1.1.3,2,.8,2.6.6.7,1.5,1.1,2.5,1.1s2.4-.6,2.8-1.6h1.3c-.5,1.8-2.3,2.8-4.2,2.8ZM417.5,732.7h6.4c-.1-2.1-1.4-3.3-3.2-3.3s-1.7.4-2.3,1c-.5.6-.9,1.4-.9,2.3ZM432.7,736.1c.2.9,1,1.6,2.6,1.6s2.5-.7,2.5-1.8-1.3-1.5-2.8-1.8c-1.5-.3-3.4-.8-3.4-3s1.8-3,3.7-3,3.5,1.2,3.6,2.7h-1.3c-.2-.8-1-1.6-2.4-1.6s-2.4.6-2.4,1.7,1.1,1.5,2.6,1.8c2,.4,3.7.9,3.7,2.9s-1.8,3.1-3.9,3.1-3.6-1.2-3.8-2.8h1.3ZM445.3,734.3c-.4-.5-.5-.6-1.1-.6h-.9v5h-1.3v-15h1.3v8.9h.8c.5,0,.7,0,1.1-.6l3.6-3.7h1.7l-4.6,4.8,4.6,5.6h-1.7l-3.6-4.4ZM452.6,738.7v-10.4h1.3v10.4h-1.3ZM452.2,724.9c0-.6.4-1,1-1s1,.4,1,1-.4,1-1,1-1-.4-1-1ZM457.5,738.7v-10.4h1.3v1.7c.4-.8,1.4-1.8,3.3-1.8s2.9.8,3.5,2.2c.2.5.3,1.2.3,2.1v6.2h-1.3v-5.9c0-.8,0-1.4-.3-1.9-.4-.9-1.3-1.5-2.6-1.5s-2.2.6-2.6,1.5c-.2.5-.3,1.1-.3,1.9v5.8h-1.3Z"/>
</svg>